<svg width="64" height="64" viewBox="0 0 64 64" fill="none" xmlns="http://www.w3.org/2000/svg">
    <defs>
        <linearGradient id="paint0_linear_50_5796" x1="-10.1701" y1="-4.01143" x2="-9.99377"
            y2="42.3487" gradientUnits="userSpaceOnUse">
            <stop stop-color="#FFC578" />
            <stop offset="1" stop-color="#FCDBB4" />
        </linearGradient>
        <linearGradient id="paint1_linear_50_5796" x1="34.1547" y1="46.0071" x2="31.6153"
            y2="65.403" gradientUnits="userSpaceOnUse">
            <stop stop-color="#F9A947" />
            <stop offset="1" stop-color="#EA4537" />
        </linearGradient>
        <linearGradient id="paint2_linear_50_5796" x1="27.876" y1="60.464" x2="32.615" y2="36.529"
            gradientUnits="userSpaceOnUse">
            <stop stop-color="#527124" />
            <stop offset="1" stop-color="#527124" stop-opacity="0" />
        </linearGradient>
        <linearGradient id="paint3_linear_50_5796" x1="35.8743" y1="-0.403234" x2="35.8743"
            y2="42.2079" gradientUnits="userSpaceOnUse">
            <stop stop-color="#F9A947" />
            <stop offset="1" stop-color="#EA4537" />
        </linearGradient>
        <linearGradient id="paint4_linear_50_5796" x1="22.5771" y1="22.252" x2="27.1561"
            y2="39.7684" gradientUnits="userSpaceOnUse">
            <stop stop-color="#92150D" />
            <stop offset="1" stop-color="#92150D" stop-opacity="0" />
        </linearGradient>
        <linearGradient id="paint5_linear_50_5796" x1="5.24068" y1="3.83585" x2="21.2573"
            y2="35.8292" gradientUnits="userSpaceOnUse">
            <stop stop-color="#411112" />
            <stop offset="1" stop-color="#411112" stop-opacity="0" />
        </linearGradient>
        <linearGradient id="paint6_linear_50_5796" x1="20.0576" y1="26.6311" x2="17.8181"
            y2="34.9494" gradientUnits="userSpaceOnUse">
            <stop stop-color="#F9A947" />
            <stop offset="1" stop-color="#EA4537" />
        </linearGradient>
    </defs>
    <path
        d="M29.8222 0.466041L6.09884 11.5639C4.22232 12.4524 3 14.3689 3 16.4944V47.4882C3 49.6137 4.20511 51.5476 6.09884 52.4187L29.8222 63.5165C31.2167 64.1611 32.8005 64.1611 34.1778 63.5165L57.9012 52.4187C59.7777 51.5301 61 49.6137 61 47.4882V16.5118C61 14.3863 59.7949 12.4524 57.9012 11.5813L34.1778 0.483463C32.7833 -0.161154 31.1995 -0.161154 29.8222 0.483463V0.466041Z"
        fill="url(#paint0_linear_50_5796)" />
    <path
        d="M9.9397 48.9064V57.5646L20.5975 61.0639L24.0567 56.6648L21.9972 51.5459L9.9397 48.9064Z"
        fill="white" />
    <path
        d="M55.7702 46.8869L44.2726 44.4674L8.78003 47.7067V49.3264L20.6176 53.2855V60.504L8.78003 56.5449V58.1445L20.6176 62.1037L55.8102 56.8648C56.83 56.7048 57.6898 56.005 58.0098 55.0052C58.3297 54.0054 58.7496 51.5059 57.7898 48.6865C57.4899 47.7867 56.69 47.1068 55.7702 46.9069V46.8869Z"
        fill="url(#paint1_linear_50_5796)" />
    <path
        d="M54.9704 55.3851L20.5975 60.504V53.2855L54.1505 48.2866C55.0903 48.1466 55.9901 48.7465 56.1901 49.6663C56.49 50.946 56.77 52.7257 56.47 53.9854C56.3101 54.7052 55.6902 55.2651 54.9504 55.3651L54.9704 55.3851Z"
        fill="white" />
    <path opacity="0.2"
        d="M54.9704 55.3851L20.5975 60.504V53.2855L54.1505 48.2866C55.0903 48.1466 55.9901 48.7465 56.1901 49.6663C56.49 50.946 56.77 52.7257 56.47 53.9854C56.3101 54.7052 55.6902 55.2651 54.9504 55.3651L54.9704 55.3851Z"
        fill="#8C8237" />
    <path
        d="M43.4728 44.7873V47.8067C43.4728 48.7865 44.4726 49.4463 45.3924 49.0664L55.1903 44.9073V38.9085L44.3126 43.5276C43.8127 43.7475 43.4728 44.2474 43.4728 44.7873Z"
        fill="white" />
    <path opacity="0.2" d="M20.5975 57.9446L9.9397 54.3653V55.4451L20.5975 59.0043V57.9446Z"
        fill="#8C8237" />
    <path opacity="0.2" d="M20.5975 55.1052L9.9397 51.5459V52.6257L20.5975 56.1849V55.1052Z"
        fill="#8C8237" />
    <path opacity="0.2"
        d="M56.59 52.6057L20.5975 57.9446V59.0243L56.51 53.6855C56.55 53.3455 56.59 52.9856 56.57 52.6257L56.59 52.6057Z"
        fill="#8C8237" />
    <path opacity="0.2"
        d="M56.2301 49.8263L20.5975 55.1052V56.1849L56.4301 50.8461C56.3701 50.4861 56.3101 50.1462 56.2301 49.8263Z"
        fill="#8C8237" />
    <path opacity="0.2"
        d="M43.4728 47.8067C43.4728 48.0266 43.5328 48.2266 43.6128 48.4065L55.1703 43.5276V42.7277L43.4728 47.6667V47.8067Z"
        fill="#8C8237" />
    <path opacity="0.2" d="M55.1703 40.4482L43.4728 45.3872V46.167L55.1703 41.2281V40.4482Z"
        fill="#8C8237" />
    <path
        d="M43.4727 45.4072C43.4727 44.4874 44.0126 43.6675 44.8724 43.3076L56.51 38.3686V37.6688L24.0168 32.9098C23.6169 32.8498 23.197 32.9098 22.8171 33.0498L8.74 38.7886C7.02035 39.4884 5.76062 41.0681 5.64064 42.9277C5.62065 43.3476 5.60065 43.7875 5.64064 44.2674C5.82061 46.6669 7.82019 48.5465 10.2197 48.7465L42.9129 51.4659C43.2928 51.5059 43.6527 51.4459 43.9926 51.2859L56.49 45.9671V44.3274L46.6521 48.5065C45.1324 49.1464 43.4727 48.0466 43.4727 46.407V45.3672V45.4072Z"
        fill="#FAA847" />
    <path
        d="M43.4727 45.4072C43.4727 44.4874 44.0126 43.6675 44.8724 43.3076L56.51 38.3686V37.6688L24.0168 32.9098C23.6169 32.8498 23.197 32.9098 22.8171 33.0498L8.74 38.7886C7.02035 39.4884 5.76062 41.0681 5.64064 42.9277C5.62065 43.3476 5.60065 43.7875 5.64064 44.2674C5.82061 46.6669 7.82019 48.5465 10.2197 48.7465L42.9129 51.4659C43.2928 51.5059 43.6527 51.4459 43.9926 51.2859L56.49 45.9671V44.3274L46.6521 48.5065C45.1324 49.1464 43.4727 48.0466 43.4727 46.407V45.3672V45.4072Z"
        fill="#BFB554" />
    <path
        d="M43.4727 45.4072C43.4727 44.4874 44.0126 43.6675 44.8724 43.3076L56.51 38.3686V37.6688L24.0168 32.9098C23.6169 32.8498 23.197 32.9098 22.8171 33.0498L8.74 38.7886C7.02035 39.4884 5.76062 41.0681 5.64064 42.9277C5.62065 43.3476 5.60065 43.7875 5.64064 44.2674C5.82061 46.6669 7.82019 48.5465 10.2197 48.7465L42.9129 51.4659C43.2928 51.5059 43.6527 51.4459 43.9926 51.2859L56.49 45.9671V44.3274L46.6521 48.5065C45.1324 49.1464 43.4727 48.0466 43.4727 46.407V45.3672V45.4072Z"
        fill="url(#paint2_linear_50_5796)" />
    <path
        d="M37.194 49.1864L16.5583 47.6667C15.4185 47.5867 14.5387 46.7869 14.4987 45.8271L14.4387 44.0675C14.3988 42.9277 15.5585 42.0279 16.8982 42.1279L37.374 43.7075C37.9138 43.7475 38.2738 44.1874 38.0938 44.6273C37.7739 45.4472 37.4939 46.7669 38.0538 48.2266C38.2338 48.7265 37.8139 49.2264 37.194 49.1864Z"
        fill="#1B502C" />
    <path
        d="M47.7718 38.9285L49.9313 37.9287C51.0111 37.4888 51.7109 36.3491 51.7109 35.0893V5.63549C51.7109 4.25578 50.8711 3.05603 49.6714 2.69611L47.6918 2.11623L47.7718 38.9285Z"
        fill="#92150D" />
    <path
        d="M49.4115 4.91566V36.1491C49.4115 37.8288 48.1918 39.1685 46.6721 39.1685H25.0766C23.5569 39.1685 22.3372 37.8088 22.3372 36.1491V4.91566C22.3372 3.256 23.5569 1.89629 25.0766 1.89629H46.6721C48.1918 1.89629 49.4115 3.256 49.4115 4.91566Z"
        fill="url(#paint3_linear_50_5796)" />
    <path
        d="M24.2367 17.753C24.2367 17.753 25.9564 19.4726 25.5964 22.7919C25.5964 22.7919 33.4748 28.0908 31.0553 39.1685H20.8574L21.7572 22.5719C21.7572 22.5719 23.3969 22.352 23.7968 20.5324C24.1967 18.7128 24.2367 17.753 24.2367 17.753Z"
        fill="url(#paint4_linear_50_5796)" />
    <path
        d="M20.3776 16.8531C18.8179 17.613 18.178 19.4926 18.9379 21.0323C19.6977 22.592 21.5773 23.2318 23.117 22.472C24.6767 21.7121 25.3165 19.8325 24.5567 18.2928C23.7969 16.7532 21.9172 16.0933 20.3776 16.8531ZM22.5771 21.3922C21.6173 21.8521 20.4775 21.4522 20.0176 20.5124C19.5577 19.5526 19.9577 18.4128 20.8975 17.9529C21.8373 17.493 22.997 17.8929 23.4569 18.8327C23.9168 19.7725 23.5169 20.9323 22.5771 21.3922Z"
        fill="white" />
    <path
        d="M18.7779 39.7284C23.659 39.7284 27.616 35.7714 27.616 30.8902C27.616 26.009 23.659 22.052 18.7779 22.052C13.8967 22.052 9.9397 26.009 9.9397 30.8902C9.9397 35.7714 13.8967 39.7284 18.7779 39.7284Z"
        fill="#1B502C" />
    <path
        d="M18.7779 39.7284C23.659 39.7284 27.616 35.7714 27.616 30.8902C27.616 26.009 23.659 22.052 18.7779 22.052C13.8967 22.052 9.9397 26.009 9.9397 30.8902C9.9397 35.7714 13.8967 39.7284 18.7779 39.7284Z"
        fill="url(#paint5_linear_50_5796)" />
    <path
        d="M18.7779 37.4288C22.3891 37.4288 25.3165 34.5014 25.3165 30.8902C25.3165 27.279 22.3891 24.3516 18.7779 24.3516C15.1667 24.3516 12.2393 27.279 12.2393 30.8902C12.2393 34.5014 15.1667 37.4288 18.7779 37.4288Z"
        fill="white" />
    <path d="M20.0976 26.7911L16.8783 30.4903L17.6181 35.3493L20.8575 31.65L20.0976 26.7911Z"
        fill="url(#paint6_linear_50_5796)" />
    <path
        d="M42.8128 8.61487H26.8361C26.4717 8.61487 26.1763 8.9103 26.1763 9.27473V9.33472C26.1763 9.69915 26.4717 9.99458 26.8361 9.99458H42.8128C43.1772 9.99458 43.4727 9.69915 43.4727 9.33472V9.27473C43.4727 8.9103 43.1772 8.61487 42.8128 8.61487Z"
        fill="white" />
    <path
        d="M42.8128 14.8336H26.8361C26.4717 14.8336 26.1763 15.129 26.1763 15.4934V15.5534C26.1763 15.9179 26.4717 16.2133 26.8361 16.2133H42.8128C43.1772 16.2133 43.4727 15.9179 43.4727 15.5534V15.4934C43.4727 15.129 43.1772 14.8336 42.8128 14.8336Z"
        fill="white" />
</svg>
