<svg width="120" height="120" viewBox="0 0 120 120" fill="none" xmlns="http://www.w3.org/2000/svg">
<rect width="120" height="120" rx="60" fill="#ECFDF2"/>
<rect x="16" y="16" width="88" height="88" rx="44" fill="#D1FADD"/>
<path fill-rule="evenodd" clip-rule="evenodd" d="M60 92C68.4869 92 76.6263 88.6286 82.6274 82.6274C88.6286 76.6263 92 68.4869 92 60C92 51.5131 88.6286 43.3737 82.6274 37.3726C76.6263 31.3714 68.4869 28 60 28C51.5131 28 43.3737 31.3714 37.3726 37.3726C31.3714 43.3737 28 51.5131 28 60C28 68.4869 31.3714 76.6263 37.3726 82.6274C43.3737 88.6286 51.5131 92 60 92ZM74.828 54.828C75.5566 54.0736 75.9598 53.0632 75.9507 52.0144C75.9416 50.9656 75.5209 49.9624 74.7793 49.2207C74.0376 48.4791 73.0344 48.0584 71.9856 48.0493C70.9368 48.0402 69.9264 48.4434 69.172 49.172L56 62.344L50.828 57.172C50.0736 56.4434 49.0632 56.0402 48.0144 56.0493C46.9656 56.0584 45.9624 56.4791 45.2207 57.2207C44.4791 57.9624 44.0584 58.9656 44.0493 60.0144C44.0402 61.0632 44.4434 62.0736 45.172 62.828L53.172 70.828C53.9221 71.5779 54.9393 71.9991 56 71.9991C57.0607 71.9991 58.0779 71.5779 58.828 70.828L74.828 54.828Z" fill="#10B95F"/>
</svg>
