<svg width="64" height="64" viewBox="0 0 64 64" fill="none" xmlns="http://www.w3.org/2000/svg">
    <defs>
        <linearGradient id="paint0_linear_50_5978" x1="-10.1701" y1="-4.01143" x2="-9.99377"
            y2="42.3487" gradientUnits="userSpaceOnUse">
            <stop stop-color="#FFC578" />
            <stop offset="1" stop-color="#FCDBB4" />
        </linearGradient>
        <linearGradient id="paint1_linear_50_5978" x1="32" y1="16.1699" x2="32" y2="5.66189"
            gradientUnits="userSpaceOnUse">
            <stop stop-color="#411112" />
            <stop offset="1" stop-color="#411112" stop-opacity="0" />
        </linearGradient>
        <linearGradient id="paint2_linear_50_5978" x1="32" y1="45.7587" x2="32" y2="58.8068"
            gradientUnits="userSpaceOnUse">
            <stop stop-color="#411112" />
            <stop offset="1" stop-color="#411112" stop-opacity="0" />
        </linearGradient>
        <linearGradient id="paint3_linear_50_5978" x1="32" y1="17.3492" x2="32" y2="60.8631"
            gradientUnits="userSpaceOnUse">
            <stop stop-color="#F9A947" />
            <stop offset="1" stop-color="#EA4537" />
        </linearGradient>
        <linearGradient id="paint4_linear_50_5978" x1="14.9905" y1="34.2226" x2="40.24" y2="48.6163"
            gradientUnits="userSpaceOnUse">
            <stop stop-color="#527124" />
            <stop offset="1" stop-color="#527124" stop-opacity="0" />
        </linearGradient>
        <linearGradient id="paint5_linear_50_5978" x1="39.3782" y1="28.1143" x2="42.8406"
            y2="35.7043" gradientUnits="userSpaceOnUse">
            <stop stop-color="#411112" />
            <stop offset="1" stop-color="#411112" stop-opacity="0" />
        </linearGradient>
        <linearGradient id="paint6_linear_50_5978" x1="8.54962" y1="22.2026" x2="31.9394"
            y2="39.6656" gradientUnits="userSpaceOnUse">
            <stop stop-color="#411112" />
            <stop offset="1" stop-color="#411112" stop-opacity="0" />
        </linearGradient>
        <linearGradient id="paint7_linear_50_5978" x1="21.2197" y1="28.583" x2="23.6389"
            y2="32.9223" gradientUnits="userSpaceOnUse">
            <stop stop-color="#527124" />
            <stop offset="1" stop-color="#527124" stop-opacity="0" />
        </linearGradient>
    </defs>

    <path
        d="M29.8222 0.466041L6.09884 11.5639C4.22232 12.4524 3 14.3689 3 16.4944V47.4882C3 49.6137 4.20511 51.5476 6.09884 52.4187L29.8222 63.5165C31.2167 64.1611 32.8005 64.1611 34.1778 63.5165L57.9012 52.4187C59.7777 51.5301 61 49.6137 61 47.4882V16.5118C61 14.3863 59.7949 12.4524 57.9012 11.5813L34.1778 0.483463C32.7833 -0.161154 31.1995 -0.161154 29.8222 0.483463V0.466041Z"
        fill="url(#paint0_linear_50_5978)" />
    <path
        d="M45.3203 2.69847H18.6798C17.2101 2.69847 16.0187 3.88985 16.0187 5.3595V12.0272C16.0187 13.4968 17.2101 14.6882 18.6798 14.6882H45.3203C46.7899 14.6882 47.9813 13.4968 47.9813 12.0272V5.3595C47.9813 3.88985 46.7899 2.69847 45.3203 2.69847Z"
        fill="#92150D" />
    <path
        d="M45.3203 2.69847H18.6798C17.2101 2.69847 16.0187 3.88985 16.0187 5.3595V12.0272C16.0187 13.4968 17.2101 14.6882 18.6798 14.6882H45.3203C46.7899 14.6882 47.9813 13.4968 47.9813 12.0272V5.3595C47.9813 3.88985 46.7899 2.69847 45.3203 2.69847Z"
        fill="url(#paint1_linear_50_5978)" />
    <path
        d="M45.3203 49.3118H18.6798C17.2101 49.3118 16.0187 50.5032 16.0187 51.9728V58.6405C16.0187 60.1101 17.2101 61.3015 18.6798 61.3015H45.3203C46.7899 61.3015 47.9813 60.1101 47.9813 58.6405V51.9728C47.9813 50.5032 46.7899 49.3118 45.3203 49.3118Z"
        fill="#92150D" />
    <path
        d="M45.3203 49.3118H18.6798C17.2101 49.3118 16.0187 50.5032 16.0187 51.9728V58.6405C16.0187 60.1101 17.2101 61.3015 18.6798 61.3015H45.3203C46.7899 61.3015 47.9813 60.1101 47.9813 58.6405V51.9728C47.9813 50.5032 46.7899 49.3118 45.3203 49.3118Z"
        fill="url(#paint2_linear_50_5978)" />
    <path
        d="M50.9749 10.6816H13.0251C11.6556 10.6816 10.5455 11.7917 10.5455 13.1612V50.8237C10.5455 52.1932 11.6556 53.3033 13.0251 53.3033H50.9749C52.3444 53.3033 53.4545 52.1932 53.4545 50.8237V13.1612C53.4545 11.7917 52.3444 10.6816 50.9749 10.6816Z"
        fill="url(#paint3_linear_50_5978)" />
    <path
        d="M17.3492 18.6797C18.8188 18.6797 20.0102 17.4884 20.0102 16.0187C20.0102 14.5491 18.8188 13.3577 17.3492 13.3577C15.8796 13.3577 14.6882 14.5491 14.6882 16.0187C14.6882 17.4884 15.8796 18.6797 17.3492 18.6797Z"
        fill="white" />
    <path
        d="M47.951 21.3408H16.0489C15.2974 21.3408 14.6882 21.95 14.6882 22.7015V41.2834C14.6882 42.0349 15.2974 42.6441 16.0489 42.6441H47.951C48.7025 42.6441 49.3117 42.0349 49.3117 41.2834V22.7015C49.3117 21.95 48.7025 21.3408 47.951 21.3408Z"
        fill="white" />
    <path
        d="M47.951 21.3408H16.0489C15.2974 21.3408 14.6882 21.95 14.6882 22.7015V41.2834C14.6882 42.0349 15.2974 42.6441 16.0489 42.6441H47.951C48.7025 42.6441 49.3117 42.0349 49.3117 41.2834V22.7015C49.3117 21.95 48.7025 21.3408 47.951 21.3408Z"
        fill="white" />
    <path
        d="M37.9873 15.3535H23.3365C22.9691 15.3535 22.6713 15.6513 22.6713 16.0187C22.6713 16.3861 22.9691 16.684 23.3365 16.684H37.9873C38.3547 16.684 38.6525 16.3861 38.6525 16.0187C38.6525 15.6513 38.3547 15.3535 37.9873 15.3535Z"
        fill="white" />
    <mask id="mask0_50_5978" style="mask-type:alpha" maskUnits="userSpaceOnUse" x="14" y="21"
        width="36" height="22">
        <path
            d="M47.951 21.3408H16.0489C15.2974 21.3408 14.6882 21.95 14.6882 22.7015V41.2834C14.6882 42.0349 15.2974 42.6441 16.0489 42.6441H47.951C48.7025 42.6441 49.3117 42.0349 49.3117 41.2834V22.7015C49.3117 21.95 48.7025 21.3408 47.951 21.3408Z"
            fill="white" />
    </mask>
    <g mask="url(#mask0_50_5978)">
        <path
            d="M49.7804 35.2053C48.2987 33.8143 46.817 32.4234 45.3353 31.0324C45.1387 30.8509 44.9422 30.6544 44.7003 30.5485C43.9443 30.1857 43.0522 30.5788 42.3719 31.0777C42.266 31.1533 42.1602 31.2289 42.0544 31.3196C42.2358 31.5615 42.387 31.8639 42.5835 32.0756C42.8406 32.3478 43.2337 32.5443 43.3244 32.9072C43.3546 32.9979 43.3395 33.1189 43.279 33.1793C43.143 33.3305 42.8859 33.2096 42.6894 33.27C42.5533 33.3154 42.4626 33.4666 42.4475 33.6178C42.4475 33.769 42.4777 33.9051 42.5231 34.0563C42.6894 34.6157 42.8708 35.1751 42.9615 35.7496C42.9918 35.9462 42.9918 36.173 42.8557 36.3091C42.7347 36.43 42.5231 36.43 42.3719 36.3544C42.2207 36.2788 42.0997 36.1427 41.9939 36.0067C41.0867 34.9181 40.3459 33.6934 39.605 32.4838C39.5294 32.3478 39.4538 32.2268 39.3933 32.1058C39.227 31.9698 39.1212 31.7883 39.0153 31.6069C37.8965 29.6565 36.7777 27.691 35.6588 25.7406C35.4774 25.4079 35.2657 25.0602 34.9482 24.8636C34.4039 24.5461 33.7991 24.7427 33.2246 25.0753C32.9524 25.2416 32.6803 25.423 32.4384 25.6347C30.5484 27.2525 28.6585 28.8552 26.7837 30.4729C26.3604 30.8358 25.8917 31.1987 25.3927 31.4859C24.5007 32 23.5481 32.2873 22.6561 31.8488C22.0664 31.5615 21.628 30.9719 21.0081 30.7905C20.1009 30.5183 19.1786 31.1382 18.4378 31.7279C16.4873 33.3305 14.6125 35.0844 12.5109 36.4451L12.6319 53.6511L49.9165 53.3789L49.7955 35.2205L49.7804 35.2053Z"
            fill="#BFB554" />
        <path
            d="M49.7804 35.2053C48.2987 33.8143 46.817 32.4234 45.3353 31.0324C45.1387 30.8509 44.9422 30.6544 44.7003 30.5485C43.9443 30.1857 43.0522 30.5788 42.3719 31.0777C42.266 31.1533 42.1602 31.2289 42.0544 31.3196C42.2358 31.5615 42.387 31.8639 42.5835 32.0756C42.8406 32.3478 43.2337 32.5443 43.3244 32.9072C43.3546 32.9979 43.3395 33.1189 43.279 33.1793C43.143 33.3305 42.8859 33.2096 42.6894 33.27C42.5533 33.3154 42.4626 33.4666 42.4475 33.6178C42.4475 33.769 42.4777 33.9051 42.5231 34.0563C42.6894 34.6157 42.8708 35.1751 42.9615 35.7496C42.9918 35.9462 42.9918 36.173 42.8557 36.3091C42.7347 36.43 42.5231 36.43 42.3719 36.3544C42.2207 36.2788 42.0997 36.1427 41.9939 36.0067C41.0867 34.9181 40.3459 33.6934 39.605 32.4838C39.5294 32.3478 39.4538 32.2268 39.3933 32.1058C39.227 31.9698 39.1212 31.7883 39.0153 31.6069C37.8965 29.6565 36.7777 27.691 35.6588 25.7406C35.4774 25.4079 35.2657 25.0602 34.9482 24.8636C34.4039 24.5461 33.7991 24.7427 33.2246 25.0753C32.9524 25.2416 32.6803 25.423 32.4384 25.6347C30.5484 27.2525 28.6585 28.8552 26.7837 30.4729C26.3604 30.8358 25.8917 31.1987 25.3927 31.4859C24.5007 32 23.5481 32.2873 22.6561 31.8488C22.0664 31.5615 21.628 30.9719 21.0081 30.7905C20.1009 30.5183 19.1786 31.1382 18.4378 31.7279C16.4873 33.3305 14.6125 35.0844 12.5109 36.4451L12.6319 53.6511L49.9165 53.3789L49.7955 35.2205L49.7804 35.2053Z"
            fill="url(#paint4_linear_50_5978)" />
        <path
            d="M41.9939 35.9915C42.0997 36.1276 42.2207 36.2637 42.3719 36.3393C42.5231 36.4149 42.7347 36.4149 42.8557 36.2939C42.9918 36.1579 42.9918 35.9311 42.9615 35.7345C42.8708 35.16 42.6894 34.6005 42.5231 34.0411C42.4777 33.9051 42.4323 33.7539 42.4475 33.6027C42.4475 33.4515 42.5382 33.3003 42.6894 33.2549C42.8859 33.1793 43.143 33.3154 43.279 33.1642C43.3395 33.0886 43.3546 32.9828 43.3244 32.892C43.2337 32.5292 42.8406 32.3326 42.5835 32.0605C42.3719 31.8337 42.2207 31.5464 42.0544 31.3045C41.4798 31.743 40.9053 32.1966 40.2098 32.2722C39.9528 32.3024 39.6655 32.2722 39.4538 32.121C39.4387 32.121 39.4236 32.0907 39.4084 32.0756C39.4689 32.1966 39.5445 32.3175 39.6201 32.4536C40.3459 33.6631 41.1018 34.8878 42.009 35.9764L41.9939 35.9915Z"
            fill="#1B502C" />
        <path
            d="M41.9939 35.9915C42.0997 36.1276 42.2207 36.2637 42.3719 36.3393C42.5231 36.4149 42.7347 36.4149 42.8557 36.2939C42.9918 36.1579 42.9918 35.9311 42.9615 35.7345C42.8708 35.16 42.6894 34.6005 42.5231 34.0411C42.4777 33.9051 42.4323 33.7539 42.4475 33.6027C42.4475 33.4515 42.5382 33.3003 42.6894 33.2549C42.8859 33.1793 43.143 33.3154 43.279 33.1642C43.3395 33.0886 43.3546 32.9828 43.3244 32.892C43.2337 32.5292 42.8406 32.3326 42.5835 32.0605C42.3719 31.8337 42.2207 31.5464 42.0544 31.3045C41.4798 31.743 40.9053 32.1966 40.2098 32.2722C39.9528 32.3024 39.6655 32.2722 39.4538 32.121C39.4387 32.121 39.4236 32.0907 39.4084 32.0756C39.4689 32.1966 39.5445 32.3175 39.6201 32.4536C40.3459 33.6631 41.1018 34.8878 42.009 35.9764L41.9939 35.9915Z"
            fill="url(#paint5_linear_50_5978)" />
        <path
            d="M13.7054 40.86C13.7658 41.359 13.8414 41.873 14.0531 42.3266C14.2648 42.7802 14.6428 43.1884 15.1417 43.3094C16.2757 43.5815 17.6062 42.1754 18.5889 42.7953C19.6775 43.4908 21.0534 43.4757 22.3235 43.2791C23.5935 43.0826 24.8635 42.7348 26.1487 42.8255C26.7232 42.8709 27.2978 42.9919 27.8874 43.0221C28.4771 43.0523 29.0819 42.9314 29.5354 42.5534C29.9437 42.2056 30.1553 41.6765 30.3972 41.1926C30.8811 40.2401 31.5614 39.3934 32.393 38.7282C33.3002 38.0024 34.4493 37.3523 34.6761 36.2032C34.7819 35.6589 34.6609 35.1146 34.6761 34.5552C34.7214 33.9051 34.9784 33.2852 35.432 32.8165C35.6891 32.5443 35.9914 32.3175 36.2031 32.0151C36.4148 31.7127 36.5055 31.2743 36.2787 30.9719C36.0822 30.6997 35.6891 30.6393 35.3716 30.7149C35.0389 30.7904 34.7517 30.9719 34.4493 31.108C33.9806 31.3196 33.4665 31.4255 32.9373 31.4406C32.3477 31.4406 31.7429 31.3196 31.1835 31.5011C30.6089 31.6976 30.1856 32.2117 29.6413 32.4687C29.4145 32.5745 29.1423 32.635 28.9307 32.5292C28.598 32.3629 28.5376 31.8942 28.719 31.5615C28.9004 31.244 29.233 31.0475 29.5657 30.8812C29.8983 30.7149 30.246 30.5637 30.488 30.2915C30.7752 29.9589 30.8811 29.5053 31.123 29.1575C31.5614 28.5074 32.4233 28.2353 32.8315 27.57C33.1339 27.0711 33.1339 26.4512 33.2851 25.8917C33.406 25.4684 33.6026 25.0904 33.8898 24.7578C33.6782 24.8183 33.4514 24.9241 33.2397 25.0451C32.9676 25.2114 32.6954 25.3928 32.4535 25.6045C30.5636 27.2223 28.6736 28.8249 26.7988 30.4427C26.3755 30.8056 25.9068 31.1684 25.4078 31.4557C24.5158 31.9698 23.5632 32.257 22.6712 31.8186C22.0815 31.5313 21.6431 30.9416 21.0232 30.7602C20.116 30.4881 19.1937 31.108 18.4529 31.6976C16.7897 33.0584 15.1871 34.5098 13.4483 35.7648C13.403 36.0974 13.3878 36.4451 13.3878 36.7778C13.3727 38.1536 13.5542 39.5144 13.7356 40.86H13.7054Z"
            fill="#1B502C" />
        <path
            d="M13.7054 40.86C13.7658 41.359 13.8414 41.873 14.0531 42.3266C14.2648 42.7802 14.6428 43.1884 15.1417 43.3094C16.2757 43.5815 17.6062 42.1754 18.5889 42.7953C19.6775 43.4908 21.0534 43.4757 22.3235 43.2791C23.5935 43.0826 24.8635 42.7348 26.1487 42.8255C26.7232 42.8709 27.2978 42.9919 27.8874 43.0221C28.4771 43.0523 29.0819 42.9314 29.5354 42.5534C29.9437 42.2056 30.1553 41.6765 30.3972 41.1926C30.8811 40.2401 31.5614 39.3934 32.393 38.7282C33.3002 38.0024 34.4493 37.3523 34.6761 36.2032C34.7819 35.6589 34.6609 35.1146 34.6761 34.5552C34.7214 33.9051 34.9784 33.2852 35.432 32.8165C35.6891 32.5443 35.9914 32.3175 36.2031 32.0151C36.4148 31.7127 36.5055 31.2743 36.2787 30.9719C36.0822 30.6997 35.6891 30.6393 35.3716 30.7149C35.0389 30.7904 34.7517 30.9719 34.4493 31.108C33.9806 31.3196 33.4665 31.4255 32.9373 31.4406C32.3477 31.4406 31.7429 31.3196 31.1835 31.5011C30.6089 31.6976 30.1856 32.2117 29.6413 32.4687C29.4145 32.5745 29.1423 32.635 28.9307 32.5292C28.598 32.3629 28.5376 31.8942 28.719 31.5615C28.9004 31.244 29.233 31.0475 29.5657 30.8812C29.8983 30.7149 30.246 30.5637 30.488 30.2915C30.7752 29.9589 30.8811 29.5053 31.123 29.1575C31.5614 28.5074 32.4233 28.2353 32.8315 27.57C33.1339 27.0711 33.1339 26.4512 33.2851 25.8917C33.406 25.4684 33.6026 25.0904 33.8898 24.7578C33.6782 24.8183 33.4514 24.9241 33.2397 25.0451C32.9676 25.2114 32.6954 25.3928 32.4535 25.6045C30.5636 27.2223 28.6736 28.8249 26.7988 30.4427C26.3755 30.8056 25.9068 31.1684 25.4078 31.4557C24.5158 31.9698 23.5632 32.257 22.6712 31.8186C22.0815 31.5313 21.6431 30.9416 21.0232 30.7602C20.116 30.4881 19.1937 31.108 18.4529 31.6976C16.7897 33.0584 15.1871 34.5098 13.4483 35.7648C13.403 36.0974 13.3878 36.4451 13.3878 36.7778C13.3727 38.1536 13.5542 39.5144 13.7356 40.86H13.7054Z"
            fill="url(#paint6_linear_50_5978)" />
        <path
            d="M20.1009 31.0777C20.1916 31.108 20.2823 31.1684 20.3277 31.244C20.3882 31.3499 20.3579 31.4859 20.4033 31.6069C20.5242 31.9244 21.0837 31.8942 21.1593 32.2268C21.2197 32.4989 20.8871 32.8467 21.0988 33.013C21.4919 33.3003 22.4142 33.1491 22.7922 33.013C23.8656 32.6199 24.9391 31.8639 25.9068 31.1382C24.4553 31.9395 23.2911 32.1663 22.641 31.8488C22.0513 31.5615 21.7036 30.987 21.0685 30.7753C20.4335 30.5637 19.7834 30.6846 19.2996 31.0928C19.5415 31.0324 19.859 31.0172 20.0858 31.0928L20.1009 31.0777Z"
            fill="#BFB554" />
        <path
            d="M20.1009 31.0777C20.1916 31.108 20.2823 31.1684 20.3277 31.244C20.3882 31.3499 20.3579 31.4859 20.4033 31.6069C20.5242 31.9244 21.0837 31.8942 21.1593 32.2268C21.2197 32.4989 20.8871 32.8467 21.0988 33.013C21.4919 33.3003 22.4142 33.1491 22.7922 33.013C23.8656 32.6199 24.9391 31.8639 25.9068 31.1382C24.4553 31.9395 23.2911 32.1663 22.641 31.8488C22.0513 31.5615 21.7036 30.987 21.0685 30.7753C20.4335 30.5637 19.7834 30.6846 19.2996 31.0928C19.5415 31.0324 19.859 31.0172 20.0858 31.0928L20.1009 31.0777Z"
            fill="url(#paint7_linear_50_5978)" />
    </g>
    <path
        d="M16.8654 49.3118C16.6537 49.1152 16.4572 48.9338 16.2606 48.7372C15.9129 48.4046 15.5651 48.0569 15.2174 47.7091C15.0057 47.4823 14.8243 47.2102 14.7487 46.9078C14.6126 46.4088 14.7033 45.9553 15.1115 45.5924C15.5651 45.1842 16.2455 45.2144 16.6689 45.668C16.7444 45.7436 16.8049 45.8343 16.8805 45.925C16.9561 45.8343 17.0166 45.7587 17.0922 45.668C17.4097 45.3202 17.9238 45.1993 18.3471 45.3807C18.7705 45.5622 19.1787 46.0611 19.0426 46.7112C18.967 47.1043 18.7705 47.437 18.4983 47.7091C18.1052 48.1022 17.697 48.4953 17.3039 48.8884C17.1678 49.0245 17.0166 49.1455 16.8805 49.2967L16.8654 49.3118Z"
        fill="white" />
    <path
        d="M26.2697 48.8733L25.9522 47.9057C26.0127 47.7091 26.0581 47.5126 26.0581 47.3009C26.0581 46.1972 25.166 45.3051 24.0623 45.3051C22.9586 45.3051 22.0665 46.1972 22.0665 47.3009C22.0665 48.4046 22.9586 49.2967 24.0623 49.2967C25.166 49.2967 24.7729 49.1908 25.0602 49.0094L25.9825 49.1908C26.179 49.2362 26.3453 49.0396 26.2849 48.8582L26.2697 48.8733Z"
        fill="white" />
    <path
        d="M48.6465 45.3202H46.7415C46.3786 45.3202 46.0762 45.6378 46.0762 46.0309V49.0396C46.0762 49.1908 46.1972 49.3118 46.3333 49.3118C46.4693 49.3118 46.424 49.2815 46.4693 49.2513L47.2858 48.6012C47.4067 48.4953 47.5428 48.45 47.694 48.45C47.8452 48.45 47.9813 48.4953 48.1022 48.6012L48.9187 49.2513C48.964 49.2815 49.0094 49.3118 49.0548 49.3118C49.1908 49.3118 49.3118 49.1908 49.3118 49.0396V46.0309C49.3118 45.6378 49.0094 45.3202 48.6465 45.3202Z"
        fill="white" />
</svg>
