<svg width="25" height="24" viewBox="0 0 25 24" fill="none" xmlns="http://www.w3.org/2000/svg">
<path d="M21.9633 10.3915H21.2059V10.3529H12.7353V14.1176H18.0552C17.2776 16.3088 15.193 17.8823 12.7353 17.8823C9.61583 17.8823 7.08825 15.3547 7.08825 12.2353C7.08825 9.11577 9.61583 6.58819 12.7353 6.58819C14.1747 6.58819 15.4853 7.13047 16.4816 8.01834L19.1434 5.35657C17.4633 3.7904 15.2151 2.82349 12.7353 2.82349C7.53678 2.82349 3.32355 7.03672 3.32355 12.2353C3.32355 17.4338 7.53678 21.647 12.7353 21.647C17.9338 21.647 22.1471 17.4338 22.1471 12.2353C22.1471 11.6047 22.0827 10.9889 21.9633 10.3915Z" fill="#FFC107"/>
<path d="M4.40808 7.85474L7.50183 10.1231C8.33823 8.05143 10.364 6.58819 12.7353 6.58819C14.1746 6.58819 15.4853 7.13047 16.4816 8.01834L19.1434 5.35657C17.4632 3.7904 15.2151 2.82349 12.7353 2.82349C9.11948 2.82349 5.98529 4.86393 4.40808 7.85474Z" fill="#FF3D00"/>
<path d="M12.7353 21.647C15.1655 21.647 17.375 20.7168 19.046 19.204L16.1324 16.7389C15.1875 17.454 14.0129 17.8823 12.7353 17.8823C10.2868 17.8823 8.20957 16.3216 7.42648 14.1433L4.35663 16.5073C5.91361 19.5551 9.07722 21.647 12.7353 21.647Z" fill="#4CAF50"/>
<path d="M21.9632 10.3914H21.2059V10.3528H12.7353V14.1175H18.0551C17.682 15.1708 17.0037 16.077 16.1305 16.7388C16.1323 16.7388 16.1323 16.7388 16.1323 16.7388L19.046 19.2039C18.8401 19.3895 22.1471 16.941 22.1471 12.2351C22.1471 11.6046 22.0827 10.9888 21.9632 10.3914Z" fill="#1976D2"/>
</svg>
