<svg width="145" height="149" viewBox="0 0 145 149" fill="none" xmlns="http://www.w3.org/2000/svg">
<mask id="mask0_24_15572" style="mask-type:alpha" maskUnits="userSpaceOnUse" x="45" y="28" width="54" height="49">
<path d="M97.5763 69.9791C89.7423 74.2766 80.9516 76.5295 72.0166 76.5295C63.0817 76.5295 54.291 74.2766 46.457 69.9791C46.1608 69.814 45.9143 69.5725 45.743 69.2798C45.5718 68.987 45.4821 68.6537 45.4834 68.3145C45.6476 60.7599 47.4238 53.3275 50.6931 46.5151C53.9624 39.7027 58.6493 33.6676 64.4399 28.814C64.6645 28.6276 64.9288 28.4954 65.2126 28.4274C65.4964 28.3594 65.792 28.3575 66.0766 28.4218C66.3612 28.4861 66.6273 28.615 66.8543 28.7984C67.0812 28.9819 67.2631 29.215 67.3857 29.4798C69.6477 34.3385 72.6299 38.828 76.2315 42.7965C76.466 43.0497 76.7645 43.2351 77.0954 43.3333C77.4263 43.4314 77.7775 43.4386 78.1122 43.3541C81.389 42.4824 84.5764 41.3036 87.632 39.8335C88.0503 39.6388 88.5253 39.6032 88.9679 39.7334C89.4106 39.8636 89.7906 40.1507 90.0369 40.541C95.4054 48.801 98.357 58.3982 98.5582 68.248C98.5718 68.5993 98.4871 68.9475 98.3136 69.2534C98.1402 69.5592 97.8848 69.8106 97.5763 69.9791Z" fill="white"/>
</mask>
<g mask="url(#mask0_24_15572)">
<path d="M64.2613 23.2701C64.2613 23.2701 61.1557 44.9863 68.9396 44.8353C76.7235 44.6842 89.4557 38.6829 89.4557 38.2854C89.4557 37.888 69.3209 10.4089 64.2613 23.2701Z" fill="#960B0B" fill-opacity="0.24"/>
<path d="M89.9637 40.4008C89.9637 40.4008 97.3345 64.1916 97.3345 76.7746C105.388 75.9956 117.819 64.8514 117.771 64.1916C117.724 63.5319 93.6809 18.1758 89.9637 40.4008Z" fill="#960B0B" fill-opacity="0.24"/>
</g>
<path d="M103.193 35.464C97.3129 25.5155 88.9704 17.2491 78.9693 11.4607C76.8605 10.2341 74.4645 9.58797 72.025 9.58797C69.5855 9.58797 67.1895 10.2341 65.0806 11.4607C54.9005 17.3265 46.4455 25.7715 40.5668 35.9453C34.6882 46.1191 31.5937 57.6626 31.5947 69.4132C31.5913 71.8482 32.2294 74.2412 33.4449 76.351C34.6604 78.4609 36.4102 80.2132 38.5183 81.4315C48.7038 87.315 60.2586 90.4125 72.0208 90.4125C83.783 90.4125 95.3378 87.315 105.523 81.4315C107.631 80.2132 109.381 78.4609 110.597 76.351C111.812 74.2412 112.45 71.8482 112.447 69.4132C112.442 57.4743 109.247 45.7537 103.193 35.464ZM97.5763 69.9791C89.7423 74.2766 80.9516 76.5295 72.0166 76.5295C63.0817 76.5295 54.291 74.2766 46.457 69.9791C46.1608 69.814 45.9143 69.5725 45.743 69.2798C45.5718 68.987 45.4821 68.6537 45.4834 68.3145C45.6476 60.7599 47.4238 53.3275 50.6931 46.5151C53.9624 39.7027 58.6493 33.6676 64.4399 28.814C64.6645 28.6276 64.9288 28.4954 65.2126 28.4274C65.4964 28.3594 65.792 28.3575 66.0766 28.4218C66.3613 28.4861 66.6273 28.615 66.8543 28.7984C67.0812 28.9819 67.2631 29.215 67.3857 29.4798C69.6477 34.3385 72.6299 38.8279 76.2315 42.7965C76.466 43.0497 76.7645 43.2351 77.0954 43.3333C77.4263 43.4314 77.7775 43.4386 78.1122 43.3541C81.389 42.4823 84.5764 41.3036 87.632 39.8335C88.0503 39.6388 88.5253 39.6032 88.9679 39.7334C89.4106 39.8636 89.7906 40.1507 90.0369 40.541C95.4054 48.801 98.357 58.3982 98.5582 68.248C98.5718 68.5993 98.4871 68.9475 98.3136 69.2533C98.1402 69.5592 97.8848 69.8105 97.5763 69.9791Z" fill="white"/>
<path fill-rule="evenodd" clip-rule="evenodd" d="M23.8313 115.497C21.3573 114.163 18.5901 113.464 15.7787 113.464C12.9673 113.464 10.2001 114.163 7.72606 115.497C5.31837 116.88 3.35896 118.925 2.08081 121.388C0.693606 123.967 0 127.091 0 130.761C0 134.43 0.690494 137.549 2.07148 140.115C3.35047 142.582 5.30935 144.631 7.71672 146.02C10.1908 147.354 12.958 148.053 15.7694 148.053C18.5807 148.053 21.348 147.354 23.822 146.02C26.2364 144.638 28.2024 142.591 29.4859 140.124C30.8731 137.545 31.5667 134.421 31.5667 130.752C31.5667 127.082 30.8762 123.961 29.4952 121.388C28.2114 118.922 26.2454 116.878 23.8313 115.497ZM23.2901 136.778C22.6857 138.29 21.6447 139.588 20.2996 140.507C18.9409 141.333 17.3809 141.77 15.7904 141.77C14.1998 141.77 12.6399 141.333 11.2812 140.507C9.93872 139.586 8.89964 138.288 8.29525 136.778C7.53433 134.866 7.17235 132.818 7.23151 130.761C7.17235 128.704 7.53433 126.656 8.29525 124.744C8.8989 123.233 9.93814 121.935 11.2812 121.015C12.6388 120.186 14.1991 119.747 15.7904 119.747C17.3816 119.747 18.9419 120.186 20.2996 121.015C21.6453 121.933 22.6865 123.231 23.2901 124.744C24.0472 126.657 24.4075 128.704 24.3492 130.761C24.4075 132.818 24.0472 134.865 23.2901 136.778ZM50.6066 136.843C50.6429 137.837 50.4057 138.822 49.9208 139.691C49.498 140.424 48.8792 141.024 48.1339 141.425C47.4041 141.811 46.5899 142.012 45.7638 142.007C45.1764 142.034 44.5903 141.933 44.0453 141.713C43.5003 141.492 43.0092 141.157 42.6053 140.73C41.7728 139.747 41.3444 138.484 41.4062 137.197V122.343H34.408V138.423C34.3611 140.186 34.732 141.935 35.4904 143.527C36.1531 144.882 37.1953 146.015 38.4903 146.789C39.8429 147.575 41.3861 147.974 42.9505 147.941C44.6614 147.994 46.3479 147.524 47.784 146.594C49.0793 145.729 50.0712 144.48 50.6206 143.024H50.8865V147.614H57.6188V122.343H50.6206L50.6066 136.843ZM71.9559 142.306C72.2878 142.305 72.6188 142.274 72.945 142.213L73.7148 142.073L74.8112 147.274C74.4613 147.381 73.9667 147.512 73.3322 147.656C72.5652 147.822 71.7841 147.915 70.9995 147.931C69.4907 148.026 67.9791 147.796 66.5673 147.256C65.3611 146.786 64.3319 145.952 63.6233 144.869C62.883 143.63 62.5229 142.2 62.5876 140.758V127.605H59.1305V122.343H62.5876V116.284H69.5858V122.343H74.34V127.605H69.5858V139.836C69.5575 140.354 69.6601 140.872 69.8844 141.341C70.0621 141.683 70.3569 141.949 70.7149 142.091C71.1114 142.24 71.5324 142.313 71.9559 142.306Z" fill="white"/>
<path fill-rule="evenodd" clip-rule="evenodd" d="M88.2571 113.045C88.973 112.36 89.9302 111.985 90.9211 112.001C91.9171 111.978 92.8816 112.35 93.6038 113.036C93.9533 113.352 94.2327 113.739 94.4238 114.17C94.615 114.601 94.7138 115.067 94.7138 115.539C94.7138 116.01 94.615 116.476 94.4238 116.907C94.2327 117.338 93.9533 117.725 93.6038 118.041C93.2492 118.383 92.8304 118.651 92.3716 118.83C91.9128 119.01 91.423 119.096 90.9305 119.085C89.938 119.104 88.9779 118.733 88.2571 118.051C87.9063 117.735 87.6258 117.349 87.4338 116.918C87.2418 116.486 87.1426 116.02 87.1426 115.548C87.1426 115.076 87.2418 114.609 87.4338 114.178C87.6258 113.747 87.9063 113.361 88.2571 113.045ZM84.1235 113.926H77.1113V147.6H84.1235V113.926ZM94.4109 122.343H87.3987V147.6H94.4109V122.343ZM113.833 122.343L108.599 140.413H108.337L103.089 122.343H95.6799L104.521 147.6H112.42L121.256 122.343H113.833ZM144.817 134.839V136.764L127.601 136.755C127.569 137.883 127.809 139.002 128.301 140.017C128.739 140.899 129.427 141.634 130.279 142.129C131.206 142.637 132.25 142.891 133.307 142.865C134.034 142.872 134.758 142.761 135.449 142.534C136.068 142.33 136.635 141.992 137.11 141.546C137.578 141.097 137.939 140.547 138.164 139.938L144.649 140.362C144.342 141.87 143.648 143.273 142.633 144.431C141.56 145.629 140.217 146.554 138.714 147.13C136.952 147.801 135.076 148.127 133.19 148.09C130.856 148.155 128.544 147.608 126.486 146.505C124.631 145.464 123.127 143.895 122.166 141.998C121.108 139.851 120.588 137.479 120.65 135.086C120.597 132.717 121.117 130.37 122.166 128.244C123.121 126.339 124.602 124.747 126.435 123.658C128.404 122.527 130.645 121.958 132.915 122.012C134.505 122 136.085 122.27 137.581 122.809C138.999 123.328 140.289 124.145 141.364 125.205C142.498 126.336 143.366 127.703 143.907 129.209C144.548 131.015 144.856 132.923 144.817 134.839ZM130.219 127.974C129.418 128.447 128.757 129.122 128.301 129.931C127.878 130.695 127.643 131.548 127.615 132.42H138.211C138.229 131.485 138.002 130.561 137.553 129.74C137.126 128.974 136.497 128.34 135.733 127.908C134.911 127.453 133.982 127.223 133.041 127.242C132.051 127.224 131.075 127.477 130.219 127.974Z" fill="white"/>
</svg>
