<svg width="153" height="40" viewBox="0 0 153 40" fill="none" xmlns="http://www.w3.org/2000/svg">
    <defs>
        <linearGradient id="paint0_linear_48_10651" x1="20.7845" y1="-0.063173" x2="20.7845"
            y2="39.9345" gradientUnits="userSpaceOnUse">
            <stop offset="0.02" stop-color="#F9A947" />
            <stop offset="1" stop-color="#EA4537" />
        </linearGradient>
        <clipPath id="clip0_48_10651">
            <rect width="151.429" height="40" fill="white" transform="translate(0.785706)" />
        </clipPath>
    </defs>

    <g clip-path="url(#clip0_48_10651)">
        <path fill-rule="evenodd" clip-rule="evenodd"
            d="M65.796 9.60806C64.0288 8.65524 62.0522 8.15637 60.0441 8.15637C58.036 8.15637 56.0594 8.65524 54.2922 9.60806C52.5725 10.596 51.1729 12.0566 50.2599 13.8161C49.2691 15.6583 48.7736 17.8899 48.7736 20.5111C48.7736 23.1323 49.2668 25.3595 50.2533 27.1927C51.1668 28.9544 52.566 30.4181 54.2856 31.4108C56.0527 32.3636 58.0293 32.8625 60.0375 32.8625C62.0456 32.8625 64.0222 32.3636 65.7893 31.4108C67.5139 30.4232 68.9182 28.9614 69.835 27.1994C70.8259 25.3573 71.3213 23.1256 71.3213 20.5044C71.3213 17.8833 70.8281 15.6538 69.8417 13.8161C68.9246 12.0551 67.5204 10.5945 65.796 9.60806ZM65.4094 24.8091C64.9777 25.8889 64.2341 26.816 63.2733 27.4724C62.3028 28.0625 61.1886 28.3746 60.0525 28.3746C58.9163 28.3746 57.8021 28.0625 56.8316 27.4724C55.8727 26.8148 55.1305 25.888 54.6988 24.8091C54.1553 23.443 53.8967 21.9805 53.939 20.5111C53.8967 19.0417 54.1553 17.5792 54.6988 16.2131C55.13 15.1339 55.8723 14.2069 56.8316 13.5498C57.8013 12.9576 58.9159 12.6442 60.0525 12.6442C61.189 12.6442 62.3036 12.9576 63.2733 13.5498C64.2345 14.2057 64.9782 15.133 65.4094 16.2131C65.9502 17.5799 66.2076 19.0421 66.1659 20.5111C66.2076 21.9801 65.9502 23.4423 65.4094 24.8091ZM84.9212 24.8557C84.9472 25.5657 84.7777 26.2693 84.4313 26.8898C84.1294 27.4131 83.6874 27.842 83.155 28.1283C82.6337 28.4044 82.0521 28.5473 81.4621 28.5444C81.0425 28.563 80.6239 28.4912 80.2346 28.3338C79.8453 28.1764 79.4945 27.9371 79.206 27.6322C78.6114 26.9295 78.3053 26.0278 78.3495 25.1087V14.4986H73.3508V25.9843C73.3173 27.2433 73.5822 28.4924 74.1239 29.6297C74.5973 30.5974 75.3417 31.4069 76.2667 31.9601C77.2328 32.5215 78.3351 32.806 79.4526 32.7824C80.6746 32.8207 81.8793 32.485 82.905 31.8203C83.8303 31.2023 84.5388 30.3106 84.9312 29.2702H85.1211V32.5494H89.9299V14.4986H84.9312L84.9212 24.8557ZM100.171 28.7575C100.408 28.7568 100.644 28.7345 100.877 28.6909L101.427 28.591L102.21 32.3064C101.96 32.3829 101.607 32.4762 101.154 32.5794C100.606 32.698 100.048 32.7637 99.4875 32.7758C98.4098 32.8434 97.3301 32.6787 96.3217 32.293C95.4601 31.9575 94.725 31.3616 94.2189 30.5885C93.69 29.7031 93.4328 28.6822 93.479 27.6522V18.2573H91.0097V14.4986H93.479V10.1707H98.4778V14.4986H101.874V18.2573H98.4778V26.993C98.4575 27.3636 98.5309 27.7334 98.6911 28.0683C98.818 28.3123 99.0285 28.5026 99.2842 28.6043C99.5675 28.7106 99.8682 28.7625 100.171 28.7575Z"
            fill="black" />
        <path fill-rule="evenodd" clip-rule="evenodd"
            d="M111.814 7.85691C112.326 7.36783 113.009 7.09988 113.717 7.11118C114.429 7.09492 115.118 7.36063 115.633 7.85025C115.883 8.0765 116.083 8.35244 116.219 8.66034C116.356 8.96823 116.426 9.30126 116.426 9.63802C116.426 9.97478 116.356 10.3078 116.219 10.6157C116.083 10.9236 115.883 11.1995 115.633 11.4258C115.38 11.6698 115.081 11.8614 114.753 11.9894C114.426 12.1174 114.076 12.1793 113.724 12.1715C113.015 12.1849 112.329 11.9195 111.814 11.4324C111.564 11.2067 111.363 10.931 111.226 10.623C111.089 10.3151 111.018 9.98174 111.018 9.64468C111.018 9.30761 111.089 8.9743 111.226 8.66633C111.363 8.35837 111.564 8.08261 111.814 7.85691ZM108.862 8.48611H103.853V32.5394H108.862V8.48611ZM116.21 14.4986H111.201V32.5394H116.21V14.4986ZM130.083 14.4986L126.344 27.4058H126.157L122.408 14.4986H117.116L123.432 32.5394H129.073L135.385 14.4986H130.083ZM152.214 23.4241V24.7991L139.917 24.7924C139.894 25.5981 140.066 26.3974 140.417 27.1228C140.73 27.7529 141.222 28.2773 141.83 28.6309C142.492 28.9938 143.238 29.1753 143.993 29.1569C144.512 29.1623 145.029 29.0824 145.523 28.9206C145.965 28.7745 146.37 28.5336 146.709 28.2148C147.044 27.8937 147.301 27.501 147.462 27.0662L152.094 27.3692C151.875 28.4465 151.379 29.4482 150.655 30.2755C149.888 31.1309 148.928 31.7916 147.855 32.2031C146.596 32.6827 145.257 32.9156 143.91 32.8889C142.242 32.9352 140.591 32.545 139.121 31.757C137.795 31.0134 136.721 29.8928 136.035 28.5377C135.28 27.0037 134.908 25.3096 134.952 23.6006C134.915 21.9082 135.286 20.2318 136.035 18.7133C136.717 17.3525 137.775 16.2156 139.084 15.4374C140.491 14.63 142.092 14.2235 143.713 14.2622C144.849 14.2531 145.977 14.4459 147.046 14.8315C148.059 15.202 148.98 15.7856 149.748 16.5427C150.558 17.3502 151.178 18.3269 151.564 19.4025C152.022 20.6929 152.242 22.0554 152.214 23.4241ZM141.787 18.5202C141.215 18.858 140.743 19.3403 140.417 19.9185C140.115 20.464 139.947 21.0733 139.927 21.6963H147.495C147.508 21.0282 147.346 20.3684 147.026 19.782C146.721 19.2348 146.271 18.7821 145.726 18.4736C145.138 18.148 144.475 17.9837 143.803 17.9976C143.096 17.9847 142.399 18.1655 141.787 18.5202Z"
            fill="black" />
        <path
            d="M20.794 39.9999C15.2887 40.0046 9.87966 38.5565 5.11291 35.8018C3.79601 35.0332 2.7035 33.9328 1.94426 32.6104C1.18502 31.2879 0.785565 29.7895 0.785706 28.2645C0.787247 22.7728 2.23373 17.3781 4.97983 12.6224C7.72594 7.8668 11.675 3.91767 16.4302 1.17178C17.7534 0.404157 19.256 -0.00012207 20.7857 -0.00012207C22.3154 -0.00012207 23.818 0.404157 25.1412 1.17178C29.8123 3.88008 33.7094 7.74336 36.4585 12.3911C39.2895 17.202 40.7834 22.6823 40.7857 28.2645C40.7858 29.7895 40.3864 31.2879 39.6272 32.6104C38.8679 33.9328 37.7754 35.0332 36.4585 35.8018C31.6966 38.5537 26.2937 40.0017 20.794 39.9999Z"
            fill="url(#paint0_linear_48_10651)" />
        <mask id="mask0_48_10651" style="mask-type:alpha" maskUnits="userSpaceOnUse" x="10" y="11"
            width="22" height="20">
            <path
                d="M31.0162 27.9917C27.8827 29.7107 24.3664 30.6118 20.7924 30.6118C17.2184 30.6118 13.7021 29.7107 10.5685 27.9917C10.45 27.9256 10.3514 27.829 10.2829 27.7119C10.2144 27.5948 10.1786 27.4615 10.1791 27.3258C10.2448 24.304 10.9553 21.331 12.263 18.606C13.5707 15.8811 15.4454 13.4671 17.7617 11.5256C17.8515 11.4511 17.9573 11.3981 18.0708 11.371C18.1843 11.3438 18.3025 11.343 18.4164 11.3687C18.5302 11.3945 18.6366 11.446 18.7274 11.5194C18.8182 11.5927 18.8909 11.686 18.94 11.7919C19.8448 13.7354 21.0377 15.5312 22.4783 17.1186C22.5721 17.2199 22.6915 17.2941 22.8239 17.3333C22.9562 17.3726 23.0967 17.3754 23.2306 17.3416C24.5413 16.9929 25.8163 16.5214 27.0385 15.9334C27.2059 15.8555 27.3958 15.8413 27.5729 15.8934C27.75 15.9455 27.902 16.0603 28.0005 16.2164C30.1479 19.5204 31.3285 23.3593 31.409 27.2992C31.4144 27.4397 31.3806 27.579 31.3112 27.7013C31.2418 27.8237 31.1396 27.9242 31.0162 27.9917Z"
                fill="white" />
        </mask>
        <g mask="url(#mask0_48_10651)">
            <path
                d="M17.6902 9.30804C17.6902 9.30804 16.448 17.9945 19.5616 17.9341C22.6751 17.8737 27.768 15.4731 27.768 15.3142C27.768 15.1552 19.7141 4.16355 17.6902 9.30804Z"
                fill="#960B0B" fill-opacity="0.24" />
            <path
                d="M27.9712 16.1604C27.9712 16.1604 30.9195 25.6767 30.9195 30.7099C34.1411 30.3983 39.1133 25.9406 39.0942 25.6767C39.0751 25.4128 29.4581 7.2704 27.9712 16.1604Z"
                fill="#960B0B" fill-opacity="0.24" />
        </g>
        <path
            d="M33.263 14.1856C30.9109 10.2062 27.5739 6.89965 23.5734 4.58429C22.7299 4.09366 21.7715 3.83521 20.7957 3.83521C19.8199 3.83521 18.8615 4.09366 18.018 4.58429C13.9459 6.9306 10.5639 10.3086 8.21244 14.3781C5.861 18.4477 4.62317 23.0651 4.6236 27.7653C4.62222 28.7393 4.87748 29.6965 5.36367 30.5404C5.84985 31.3844 6.5498 32.0853 7.39301 32.5726C11.4672 34.926 16.0892 36.165 20.794 36.165C25.4989 36.165 30.1208 34.926 34.195 32.5726C35.0383 32.0853 35.7382 31.3844 36.2244 30.5404C36.7106 29.6965 36.9658 28.7393 36.9644 27.7653C36.9624 22.9897 35.6845 18.3015 33.263 14.1856ZM31.0162 27.9917C27.8826 29.7107 24.3663 30.6118 20.7924 30.6118C17.2184 30.6118 13.7021 29.7107 10.5685 27.9917C10.45 27.9256 10.3514 27.829 10.2829 27.7119C10.2144 27.5948 10.1786 27.4615 10.1791 27.3258C10.2447 24.304 10.9552 21.331 12.2629 18.6061C13.5707 15.8811 15.4454 13.4671 17.7617 11.5256C17.8515 11.4511 17.9572 11.3982 18.0708 11.371C18.1843 11.3438 18.3025 11.343 18.4164 11.3687C18.5302 11.3945 18.6366 11.446 18.7274 11.5194C18.8182 11.5928 18.8909 11.686 18.94 11.7919C19.8448 13.7354 21.0376 15.5312 22.4783 17.1186C22.5721 17.2199 22.6915 17.2941 22.8239 17.3333C22.9562 17.3726 23.0967 17.3755 23.2306 17.3417C24.5413 16.993 25.8163 16.5215 27.0385 15.9334C27.2058 15.8555 27.3958 15.8413 27.5729 15.8934C27.7499 15.9455 27.902 16.0603 28.0005 16.2164C30.1479 19.5204 31.3285 23.3593 31.409 27.2992C31.4144 27.4397 31.3806 27.579 31.3112 27.7014C31.2418 27.8237 31.1396 27.9242 31.0162 27.9917Z"
            fill="white" />
    </g>
</svg>
