<svg width="64" height="64" viewBox="0 0 64 64" fill="none" xmlns="http://www.w3.org/2000/svg">
    <defs>
        <linearGradient id="paint0_linear_50_5862" x1="-10.1701" y1="-4.01143" x2="-9.99377"
            y2="42.3487" gradientUnits="userSpaceOnUse">
            <stop stop-color="#FFC578" />
            <stop offset="1" stop-color="#FCDBB4" />
        </linearGradient>
        <linearGradient id="paint1_linear_50_5862" x1="29.0375" y1="23.2889" x2="21.9188"
            y2="40.0821" gradientUnits="userSpaceOnUse">
            <stop stop-color="#411112" />
            <stop offset="1" stop-color="#411112" stop-opacity="0" />
        </linearGradient>
        <linearGradient id="paint2_linear_50_5862" x1="35.4762" y1="60.9216" x2="35.4762"
            y2="23.7523" gradientUnits="userSpaceOnUse">
            <stop stop-color="#F9A947" />
            <stop offset="1" stop-color="#EA4537" />
        </linearGradient>
        <linearGradient id="paint3_linear_50_5862" x1="17.3478" y1="12.8772" x2="48.7797"
            y2="12.8772" gradientUnits="userSpaceOnUse">
            <stop stop-color="#527124" />
            <stop offset="1" stop-color="#527124" stop-opacity="0" />
        </linearGradient>
        <linearGradient id="paint4_linear_50_5862" x1="22.0662" y1="-0.172345" x2="20.2804"
            y2="14.1305" gradientUnits="userSpaceOnUse">
            <stop stop-color="#411112" />
            <stop offset="1" stop-color="#411112" stop-opacity="0" />
        </linearGradient>
        <linearGradient id="paint5_linear_50_5862" x1="52.0127" y1="49.7527" x2="56.1168"
            y2="57.3465" gradientUnits="userSpaceOnUse">
            <stop stop-color="#411112" />
            <stop offset="1" stop-color="#411112" stop-opacity="0" />
        </linearGradient>
        <linearGradient id="paint6_linear_50_5862" x1="47.3762" y1="48.3028" x2="67.0938"
            y2="50.6948" gradientUnits="userSpaceOnUse">
            <stop stop-color="#F9A947" />
            <stop offset="1" stop-color="#EA4537" />
        </linearGradient>
        <linearGradient id="paint7_linear_50_5862" x1="29.3897" y1="13.4916" x2="24.0077"
            y2="19.5125" gradientUnits="userSpaceOnUse">
            <stop stop-color="#411112" />
            <stop offset="1" stop-color="#411112" stop-opacity="0" />
        </linearGradient>
        <linearGradient id="paint8_linear_50_5862" x1="31.0363" y1="2.91595" x2="38.5236"
            y2="28.4661" gradientUnits="userSpaceOnUse">
            <stop stop-color="#FCDBB4" />
            <stop offset="1" stop-color="#F8D6AE" stop-opacity="0" />
        </linearGradient>
        <linearGradient id="paint9_linear_50_5862" x1="24.7695" y1="38.4356" x2="27.44" y2="48.0199"
            gradientUnits="userSpaceOnUse">
            <stop stop-color="#411112" />
            <stop offset="1" stop-color="#411112" stop-opacity="0" />
        </linearGradient>
        <linearGradient id="paint10_linear_50_5862" x1="26.2195" y1="50.5348" x2="29.7092"
            y2="56.6213" gradientUnits="userSpaceOnUse">
            <stop stop-color="#411112" />
            <stop offset="1" stop-color="#411112" stop-opacity="0" />
        </linearGradient>
        <linearGradient id="paint11_linear_50_5862" x1="18.8141" y1="58.2023" x2="26.883"
            y2="33.5614" gradientUnits="userSpaceOnUse">
            <stop stop-color="#411112" />
            <stop offset="1" stop-color="#411112" stop-opacity="0" />
        </linearGradient>
        <linearGradient id="paint12_linear_50_5862" x1="1.74244" y1="39.2957" x2="19.4285"
            y2="56.9736" gradientUnits="userSpaceOnUse">
            <stop stop-color="#527124" />
            <stop offset="1" stop-color="#527124" stop-opacity="0" />
        </linearGradient>
        <linearGradient id="paint13_linear_50_5862" x1="1.88174" y1="42.9165" x2="15.2917"
            y2="53.6887" gradientUnits="userSpaceOnUse">
            <stop stop-color="#1B502C" />
            <stop offset="1" stop-color="#1B502C" stop-opacity="0" />
        </linearGradient>
        <clipPath id="clip0_50_5862">
            <rect width="64" height="64" fill="white" />
        </clipPath>
    </defs>

    <g clip-path="url(#clip0_50_5862)">
        <path
            d="M29.8222 0.466041L6.09884 11.5639C4.22232 12.4524 3 14.3689 3 16.4944V47.4882C3 49.6137 4.20511 51.5476 6.09884 52.4187L29.8222 63.5165C31.2167 64.1611 32.8005 64.1611 34.1778 63.5165L57.9012 52.4187C59.7777 51.5301 61 49.6137 61 47.4882V16.5118C61 14.3863 59.7949 12.4524 57.9012 11.5813L34.1778 0.483463C32.7833 -0.161154 31.1995 -0.161154 29.8222 0.483463V0.466041Z"
            fill="url(#paint0_linear_50_5862)" />
        <path
            d="M24.229 25.6482L18.8469 26.451L16.8645 30.0717L12.6867 29.0478L9.19702 31.9558L14.1285 48.9702L26.2114 48.8883L27.1125 25.0993L24.229 25.6482Z"
            fill="white" />
        <path
            d="M27.7759 50.6577L24.2698 51.8455C23.9176 51.9684 23.7865 52.3944 24.0241 52.6893C24.7941 53.6313 26.5717 55.3762 29.3405 55.7284C33.1743 56.2117 27.7759 50.6659 27.7759 50.6659V50.6577Z"
            fill="#411112" />
        <path
            d="M26.8667 20.5201C26.8667 20.5201 21.9598 24.1163 20.1494 32.2016C18.339 40.2869 20.8048 51.9192 20.8048 51.9192L22.5906 51.608C22.5906 51.608 20.2559 28.7856 26.2359 25.1075L26.8749 20.5283L26.8667 20.5201Z"
            fill="#92150D" />
        <path
            d="M26.8667 20.5201C26.8667 20.5201 21.9598 24.1163 20.1494 32.2016C18.339 40.2869 20.8048 51.9192 20.8048 51.9192L22.5906 51.608C22.5906 51.608 20.2559 28.7856 26.2359 25.1075L26.8749 20.5283L26.8667 20.5201Z"
            fill="url(#paint1_linear_50_5862)" />
        <path
            d="M35.0748 14.8189C35.0748 14.8189 27.8087 14.2984 26.0638 20.1168C24.319 25.9437 24.7532 51.8706 26.113 55.4474C27.4728 59.0241 42.1197 57.9578 44.7411 56.7655C47.3543 55.5733 45.4538 23.4249 44.094 20.1084C42.7341 16.792 38.8594 14.7685 35.083 14.8105L35.0748 14.8189Z"
            fill="url(#paint2_linear_50_5862)" />
        <path
            d="M25.6051 18.9063H21.8778C21.8778 18.9063 19.3629 19.1521 17.8884 15.1545C16.4139 11.1651 18.0932 6.83982 21.6976 6.83982H43.7007C43.7007 6.83982 48.7878 6.60226 48.7878 11.5255C48.7878 16.4488 48.3783 18.9063 44.8558 18.9063C41.3333 18.9063 25.6133 18.9063 25.6133 18.9063H25.6051Z"
            fill="#BFB554" />
        <path
            d="M25.6051 18.9063H21.8778C21.8778 18.9063 19.3629 19.1521 17.8884 15.1545C16.4139 11.1651 18.0932 6.83982 21.6976 6.83982H43.7007C43.7007 6.83982 48.7878 6.60226 48.7878 11.5255C48.7878 16.4488 48.3783 18.9063 44.8558 18.9063C41.3333 18.9063 25.6133 18.9063 25.6133 18.9063H25.6051Z"
            fill="url(#paint3_linear_50_5862)" />
        <path
            d="M34.0263 32.862C34.0263 32.862 34.9028 51.0982 34.4113 57.7395C34.4031 57.899 34.4932 58.0333 34.6407 58.0669C35.0585 58.1593 35.9186 58.3104 36.5985 58.1425C36.7787 58.1005 36.8934 57.9242 36.8852 57.7311C36.8361 55.0611 36.4757 36.1533 35.8531 32.5765C35.1813 28.7228 34.0263 32.862 34.0263 32.862Z"
            fill="white" />
        <path
            d="M37.729 40.164C37.729 40.164 38.0321 41.6304 37.4177 42.2038C36.8033 42.7854 33.887 42.8345 33.5839 42.1055C33.2972 41.401 33.1088 39.7954 33.7805 39.5578C34.6653 39.2465 37.5406 38.7714 37.7208 40.1558L37.729 40.164Z"
            fill="#92150D" />
        <path
            d="M41.063 32.5933C41.063 32.5933 41.9067 50.3761 41.4644 57.3532C41.448 57.5967 41.5955 57.8234 41.8248 57.8738C42.2918 57.9746 43.07 57.7646 43.668 57.5296C43.8236 57.4708 43.9219 57.3113 43.9219 57.1349C43.8728 54.5993 43.5205 35.9266 42.8898 32.3079C42.218 28.4205 41.063 32.5933 41.063 32.5933Z"
            fill="white" />
        <path
            d="M20.4525 18.7261C22.4205 18.7261 24.0159 16.0671 24.0159 12.7871C24.0159 9.50702 22.4205 6.84802 20.4525 6.84802C18.4844 6.84802 16.889 9.50702 16.889 12.7871C16.889 16.0671 18.4844 18.7261 20.4525 18.7261Z"
            fill="#1B502C" />
        <path
            d="M20.4525 18.7261C22.4205 18.7261 24.0159 16.0671 24.0159 12.7871C24.0159 9.50702 22.4205 6.84802 20.4525 6.84802C18.4844 6.84802 16.889 9.50702 16.889 12.7871C16.889 16.0671 18.4844 18.7261 20.4525 18.7261Z"
            fill="url(#paint4_linear_50_5862)" />
        <path
            d="M19.0926 16.7355C18.9943 16.7355 18.8878 16.6864 18.8305 16.5962C18.0277 15.3347 17.7328 13.6308 17.9867 11.804C18.0686 11.2142 18.2243 10.4524 18.683 9.82163C19.1663 9.14991 19.9282 8.76489 20.649 8.84681C21.2307 8.91234 21.7713 9.28917 22.2301 9.93632C23.1803 11.2962 23.4261 13.893 22.7461 15.2856C22.4348 15.9245 21.9433 16.2768 21.3371 16.3013C20.7228 16.3341 20.1248 15.8426 19.7643 14.9907C19.5268 14.4172 19.4121 13.7783 19.4285 13.1557C19.453 12.443 19.8381 11.7303 20.518 11.7303C20.903 11.7303 21.2634 11.9925 21.4518 12.3939C21.5993 12.7133 21.6157 13.0492 21.6239 13.3523C21.6239 13.5243 21.501 13.6636 21.329 13.6718C21.1569 13.6963 21.0177 13.5489 21.0095 13.3769C21.0013 13.1229 20.9849 12.8608 20.8866 12.6478C20.8047 12.4676 20.649 12.3447 20.5098 12.3447C20.2067 12.3447 20.051 12.8444 20.0347 13.1803C20.0183 13.7127 20.1166 14.2616 20.3214 14.7531C20.518 15.22 20.8538 15.7033 21.2962 15.687C21.673 15.6706 21.9679 15.4412 22.1727 15.007C22.7543 13.8274 22.5168 11.4436 21.7058 10.2886C21.46 9.94451 21.0668 9.51854 20.5589 9.46119C20.0756 9.40385 19.5186 9.69057 19.1663 10.1821C18.8714 10.5917 18.6912 11.1241 18.5765 11.8942C18.339 13.5735 18.6093 15.1299 19.3302 16.2686C19.4203 16.416 19.3793 16.6044 19.2319 16.6945C19.1827 16.7273 19.1254 16.7437 19.068 16.7437L19.0926 16.7355Z"
            fill="#411112" />
        <path
            d="M44.6592 39.8855C44.6592 39.8855 44.9623 41.3518 44.3479 41.9253C43.7335 42.5069 40.8173 42.556 40.5142 41.827C40.2275 41.1225 40.039 39.5169 40.7108 39.2793C41.5955 38.968 44.4708 38.4929 44.651 39.8773L44.6592 39.8855Z"
            fill="#92150D" />
        <path
            d="M63.2273 51.3501C63.2273 51.3501 63.5467 51.6614 63.5467 52.1529C63.5467 52.6444 63.088 53.0949 62.9897 53.1113C62.8914 53.1277 62.7767 53.1113 62.6948 53.2752C62.6211 53.4308 62.0149 53.865 61.7773 53.8732C61.5398 53.8732 61.4988 53.7257 61.2776 53.8732C61.0564 54.0288 61.1056 54.1763 60.9254 54.2909C60.7452 54.4056 60.1144 54.6022 59.9669 54.5777C59.8113 54.5613 59.7212 54.4138 59.5 54.5203C59.2788 54.6268 59.3362 54.8398 59.1068 54.9381C58.8856 55.0364 57.5176 55.2248 57.3619 55.1675C57.2145 55.1101 57.1735 54.9709 56.9687 55.0364C56.7639 55.1101 56.7558 55.2412 56.4363 55.2576C56.1168 55.274 55.273 55.3313 54.675 55.2166C54.0688 55.1019 53.6347 54.9791 53.3889 54.7415C53.1432 54.5039 52.8401 54.2746 52.3404 54.3155C51.8325 54.3565 51.513 54.4875 51.341 54.6514C51.169 54.807 50.8331 55.1757 50.5873 55.2822C50.3498 55.3886 49.8828 55.4624 49.7026 55.4378C49.5224 55.4132 49.5306 55.3149 49.2521 55.3641C48.9736 55.4132 49.0309 55.5771 48.7688 55.6262C48.5066 55.6754 47.7612 55.7491 47.5973 55.7163C47.4335 55.6917 47.4007 55.5443 47.1795 55.5607C46.9584 55.5771 46.77 55.5852 46.7208 55.6344C46.6717 55.6835 46.6143 55.7491 46.4751 55.7573C46.3358 55.7655 45.6641 55.7245 45.5002 55.5771C45.3364 55.4378 45.3855 55.3149 45.2053 55.233C45.0251 55.1429 44.8203 55.0118 44.7384 55.0118C44.6565 55.0118 44.6319 55.1101 44.5336 55.0364C44.4353 54.9627 44.0585 54.3565 44.0175 54.0943C43.9766 53.8322 44.3042 53.3489 44.3042 53.3489C44.3042 53.3489 44.337 53.0704 44.4189 52.9966C44.4189 52.9966 44.2797 52.1365 44.4435 51.8908C44.6073 51.645 44.7548 51.5385 44.7548 51.5385L63.2191 51.3337L63.2273 51.3501Z"
            fill="#92150D" />
        <path
            d="M63.2273 51.3501C63.2273 51.3501 63.5467 51.6614 63.5467 52.1529C63.5467 52.6444 63.088 53.0949 62.9897 53.1113C62.8914 53.1277 62.7767 53.1113 62.6948 53.2752C62.6211 53.4308 62.0149 53.865 61.7773 53.8732C61.5398 53.8732 61.4988 53.7257 61.2776 53.8732C61.0564 54.0288 61.1056 54.1763 60.9254 54.2909C60.7452 54.4056 60.1144 54.6022 59.9669 54.5777C59.8113 54.5613 59.7212 54.4138 59.5 54.5203C59.2788 54.6268 59.3362 54.8398 59.1068 54.9381C58.8856 55.0364 57.5176 55.2248 57.3619 55.1675C57.2145 55.1101 57.1735 54.9709 56.9687 55.0364C56.7639 55.1101 56.7558 55.2412 56.4363 55.2576C56.1168 55.274 55.273 55.3313 54.675 55.2166C54.0688 55.1019 53.6347 54.9791 53.3889 54.7415C53.1432 54.5039 52.8401 54.2746 52.3404 54.3155C51.8325 54.3565 51.513 54.4875 51.341 54.6514C51.169 54.807 50.8331 55.1757 50.5873 55.2822C50.3498 55.3886 49.8828 55.4624 49.7026 55.4378C49.5224 55.4132 49.5306 55.3149 49.2521 55.3641C48.9736 55.4132 49.0309 55.5771 48.7688 55.6262C48.5066 55.6754 47.7612 55.7491 47.5973 55.7163C47.4335 55.6917 47.4007 55.5443 47.1795 55.5607C46.9584 55.5771 46.77 55.5852 46.7208 55.6344C46.6717 55.6835 46.6143 55.7491 46.4751 55.7573C46.3358 55.7655 45.6641 55.7245 45.5002 55.5771C45.3364 55.4378 45.3855 55.3149 45.2053 55.233C45.0251 55.1429 44.8203 55.0118 44.7384 55.0118C44.6565 55.0118 44.6319 55.1101 44.5336 55.0364C44.4353 54.9627 44.0585 54.3565 44.0175 54.0943C43.9766 53.8322 44.3042 53.3489 44.3042 53.3489C44.3042 53.3489 44.337 53.0704 44.4189 52.9966C44.4189 52.9966 44.2797 52.1365 44.4435 51.8908C44.6073 51.645 44.7548 51.5385 44.7548 51.5385L63.2191 51.3337L63.2273 51.3501Z"
            fill="url(#paint5_linear_50_5862)" />
        <path
            d="M62.3917 49.5725C62.449 49.4168 62.3671 49.294 62.2196 49.1957C62.5965 49.294 62.8996 49.4496 63.0798 49.7036C63.6778 50.5391 63.3829 51.3829 63.1044 51.7679C62.8832 52.071 60.6141 52.8656 58.2958 53.1851C58.3367 52.669 58.4432 51.9317 58.7299 51.5303C59.1969 50.8832 62.2033 50.0476 62.3835 49.5725H62.3917Z"
            fill="#92150D" />
        <path
            d="M58.4022 49.8182C58.1483 50.5145 54.1999 48.5321 53.6346 47.9997C53.1595 47.5491 53.6264 46.7299 53.9787 46.435C54.1999 46.7217 54.4046 46.9675 54.5931 47.1641C55.3549 47.9341 57.067 48.614 58.3367 48.9171C58.4514 49.1547 58.5333 49.4824 58.4104 49.8264L58.4022 49.8182Z"
            fill="#FAA847" />
        <path
            d="M44.935 47.8031C44.8449 47.3689 44.935 45.6814 45.7706 45.6978C46.6143 45.7141 46.9256 46.5743 47.4827 46.6316C48.0315 46.689 48.4902 46.1074 48.4902 46.1074C48.4902 46.1074 49.9811 43.9447 51.1771 43.9283C52.3813 43.912 53.0121 45.1735 53.9787 46.435C53.6265 46.7299 53.1596 47.5491 53.6347 47.9997C54.1917 48.5321 58.1402 50.5227 58.4023 49.8182C58.5334 49.466 58.4515 49.1465 58.3286 48.9089C58.7464 49.0072 59.1232 49.0646 59.3935 49.0728C60.1472 49.0892 61.3595 48.9827 62.2197 49.2039C62.3671 49.3022 62.4572 49.425 62.3917 49.5807C62.2033 50.0558 59.1969 50.8914 58.7382 51.5385C58.4515 51.9317 58.345 52.6772 58.304 53.1933C57.7142 53.2752 57.1162 53.3243 56.551 53.3325C53.7658 53.3489 52.8483 52.5133 49.76 52.8C46.6717 53.0786 46.901 53.1277 45.8443 52.9803C44.7957 52.8328 44.6483 52.243 44.6073 51.604C44.5582 50.9651 45.0251 48.2454 44.935 47.8112V47.8031Z"
            fill="#FAA847" />
        <path
            d="M44.935 47.8031C44.8449 47.3689 44.935 45.6814 45.7706 45.6978C46.6143 45.7141 46.9256 46.5743 47.4827 46.6316C48.0315 46.689 48.4902 46.1074 48.4902 46.1074C48.4902 46.1074 49.9811 43.9447 51.1771 43.9283C52.3813 43.912 53.0121 45.1735 53.9787 46.435C53.6265 46.7299 53.1596 47.5491 53.6347 47.9997C54.1917 48.5321 58.1402 50.5227 58.4023 49.8182C58.5334 49.466 58.4515 49.1465 58.3286 48.9089C58.7464 49.0072 59.1232 49.0646 59.3935 49.0728C60.1472 49.0892 61.3595 48.9827 62.2197 49.2039C62.3671 49.3022 62.4572 49.425 62.3917 49.5807C62.2033 50.0558 59.1969 50.8914 58.7382 51.5385C58.4515 51.9317 58.345 52.6772 58.304 53.1933C57.7142 53.2752 57.1162 53.3243 56.551 53.3325C53.7658 53.3489 52.8483 52.5133 49.76 52.8C46.6717 53.0786 46.901 53.1277 45.8443 52.9803C44.7957 52.8328 44.6483 52.243 44.6073 51.604C44.5582 50.9651 45.0251 48.2454 44.935 47.8112V47.8031Z"
            fill="url(#paint6_linear_50_5862)" />
        <path
            d="M57.8371 49.9083C57.919 49.9247 58.0009 49.892 58.0418 49.8182C58.1811 49.5643 58.3286 49.3021 58.476 49.0482C58.5252 48.9581 58.5006 48.8434 58.4105 48.7943C58.3204 48.7451 58.2057 48.7697 58.1565 48.8598C58.0091 49.1137 57.8616 49.3759 57.7142 49.638C57.665 49.7281 57.6978 49.8428 57.7879 49.892C57.8043 49.892 57.8207 49.9083 57.8371 49.9083Z"
            fill="#F4F7E6" />
        <path
            d="M56.592 49.7445C56.6657 49.7609 56.7476 49.7281 56.7967 49.6626C56.936 49.4414 57.0917 49.2202 57.2719 48.9909C57.4029 49.2694 57.5176 49.5561 57.6241 49.851C57.6569 49.9493 57.7634 49.9984 57.8617 49.9657C57.96 49.9329 58.0091 49.8264 57.9764 49.7281C57.8617 49.4005 57.7224 49.0728 57.575 48.7615C57.5258 48.6632 57.4275 48.5895 57.321 48.5813C57.2063 48.5649 57.0998 48.614 57.0343 48.696C56.8213 48.9581 56.6411 49.212 56.4855 49.466C56.4281 49.5561 56.4609 49.6708 56.5428 49.7199C56.5592 49.7281 56.5756 49.7363 56.6001 49.7445H56.592Z"
            fill="#F4F7E6" />
        <path
            d="M55.2403 49.4086C55.2976 49.425 55.3549 49.4086 55.3959 49.3759L56.3298 48.6386L56.5018 49.5397C56.5182 49.638 56.6165 49.7117 56.723 49.6872C56.8213 49.6708 56.895 49.5725 56.8704 49.466L56.682 48.4748C56.6574 48.3601 56.5837 48.2782 56.4772 48.2372C56.3707 48.1963 56.256 48.2126 56.1659 48.2864L55.1665 49.0728C55.0846 49.1383 55.0682 49.253 55.1338 49.3349C55.1583 49.3677 55.1993 49.3923 55.2403 49.4004V49.4086Z"
            fill="#F4F7E6" />
        <path
            d="M56.7081 49.7727C56.8548 49.7453 56.9502 49.5968 56.921 49.4412C56.8919 49.2855 56.7493 49.1816 56.6026 49.2091C56.4558 49.2366 56.3605 49.385 56.3896 49.5406C56.4187 49.6963 56.5613 49.8002 56.7081 49.7727Z"
            fill="#92150D" />
        <path
            d="M55.3058 49.3923C55.3304 49.3923 55.3468 49.3923 55.3713 49.3923C55.4778 49.3759 55.5434 49.2858 55.5352 49.1875L55.3713 47.8031C55.3631 47.7048 55.2976 47.6146 55.1993 47.5737C55.1092 47.5327 54.9945 47.5491 54.9126 47.6064L53.8559 48.4011C53.7739 48.4666 53.7576 48.5813 53.8231 48.6632C53.8886 48.7451 54.0033 48.7615 54.0852 48.696L55.0191 47.9915L55.1665 49.2202C55.1747 49.3021 55.2321 49.3595 55.3058 49.3759V49.3923Z"
            fill="#F4F7E6" />
        <path
            d="M55.4012 49.4943C55.548 49.4668 55.6433 49.3184 55.6142 49.1628C55.5851 49.0071 55.4425 48.9032 55.2957 48.9307C55.149 48.9581 55.0536 49.1066 55.0828 49.2622C55.1119 49.4179 55.2545 49.5218 55.4012 49.4943Z"
            fill="#92150D" />
        <path
            d="M52.3486 48.4994C52.2339 48.4338 52.1847 48.3028 52.2175 48.1799L52.8728 45.7223L51.3164 46.8037C51.2345 46.861 51.1116 46.8446 51.0543 46.7545C50.9969 46.6726 51.0133 46.5497 51.1034 46.4924L52.881 45.2636C52.9793 45.1981 53.1022 45.1981 53.2005 45.2636C53.2988 45.3291 53.3398 45.4438 53.307 45.5585L52.668 47.9669L53.9705 46.7217C54.0443 46.648 54.159 46.6316 54.2491 46.6808C54.3392 46.7299 54.3965 46.8282 54.3801 46.9265L54.159 48.5731C54.1426 48.6796 54.0525 48.7451 53.946 48.7369C53.8395 48.7205 53.7739 48.6304 53.7821 48.5239L53.9542 47.246L52.6926 48.4502C52.6189 48.5157 52.5206 48.5403 52.4305 48.5239C52.4059 48.5239 52.3731 48.5076 52.3486 48.4912V48.4994Z"
            fill="#F4F7E6" />
        <path
            d="M52.3635 48.8599C52.5191 48.8308 52.621 48.6774 52.591 48.5173C52.5611 48.3572 52.4106 48.2511 52.255 48.2802C52.0993 48.3093 51.9974 48.4627 52.0274 48.6228C52.0574 48.7829 52.2078 48.8891 52.3635 48.8599Z"
            fill="#92150D" />
        <path
            d="M51.2678 46.9483C51.4234 46.9192 51.5253 46.7658 51.4953 46.6057C51.4654 46.4456 51.3149 46.3395 51.1593 46.3686C51.0036 46.3977 50.9017 46.5511 50.9317 46.7112C50.9617 46.8713 51.1121 46.9775 51.2678 46.9483Z"
            fill="#92150D" />
        <path
            d="M54.0263 48.8412C54.173 48.8137 54.2684 48.6653 54.2393 48.5096C54.2101 48.354 54.0676 48.2501 53.9208 48.2775C53.7741 48.305 53.6787 48.4534 53.7078 48.6091C53.737 48.7647 53.8795 48.8686 54.0263 48.8412Z"
            fill="#92150D" />
        <g opacity="0.2">
            <path
                d="M12.6866 29.0478L18.2407 49.2897L22.869 48.921L16.8645 30.0717L12.6866 29.0478Z"
                fill="#8C8237" />
        </g>
        <path
            d="M32.519 12.443C32.519 12.443 25.4167 12.8772 23.2295 18.9145H26.4243L32.5272 12.443H32.519Z"
            fill="url(#paint7_linear_50_5862)" />
        <path
            d="M31.8309 12.3529C28.7344 13.3523 26.4898 15.9245 25.7771 19.0947C25.6133 19.8074 25.5478 20.5119 25.6624 21.0853C26.072 23.0841 27.6039 22.4124 29.0375 27.2783C30.471 32.1443 31.9537 33.8809 36.2053 34.3151C40.4568 34.7492 45.8634 33.9792 47.1823 30.3994C48.493 26.8196 47.0102 18.0134 44.5036 14.794C42.6604 12.4266 36.7459 10.7719 31.8391 12.3611L31.8309 12.3529Z"
            fill="#FAA847" />
        <path
            d="M31.8309 12.3529C28.7344 13.3523 26.4898 15.9245 25.7771 19.0947C25.6133 19.8074 25.5478 20.5119 25.6624 21.0853C26.072 23.0841 27.6039 22.4124 29.0375 27.2783C30.471 32.1443 31.9537 33.8809 36.2053 34.3151C40.4568 34.7492 45.8634 33.9792 47.1823 30.3994C48.493 26.8196 47.0102 18.0134 44.5036 14.794C42.6604 12.4266 36.7459 10.7719 31.8391 12.3611L31.8309 12.3529Z"
            fill="#FAA847" />
        <path
            d="M31.8309 12.3529C28.7344 13.3523 26.4898 15.9245 25.7771 19.0947C25.6133 19.8074 25.5478 20.5119 25.6624 21.0853C26.072 23.0841 27.6039 22.4124 29.0375 27.2783C30.471 32.1443 31.9537 33.8809 36.2053 34.3151C40.4568 34.7492 45.8634 33.9792 47.1823 30.3994C48.493 26.8196 47.0102 18.0134 44.5036 14.794C42.6604 12.4266 36.7459 10.7719 31.8391 12.3611L31.8309 12.3529Z"
            fill="url(#paint8_linear_50_5862)" />
        <path
            d="M27.3991 39.3121C27.3991 39.3121 24.6876 39.0008 23.7619 40.2296C22.8444 41.4583 23.254 49.2159 23.4834 50.0351C23.7128 50.8543 26.4243 50.8297 27.9152 50.8052C29.3979 50.7806 30.2252 49.7648 30.4055 48.962C30.6103 48.0118 30.7086 42.3594 29.8402 40.59C29.5208 39.9428 28.6852 39.3285 27.4073 39.3121H27.3991Z"
            fill="#92150D" />
        <path
            d="M27.3991 39.3121C27.3991 39.3121 24.6876 39.0008 23.7619 40.2296C22.8444 41.4583 23.254 49.2159 23.4834 50.0351C23.7128 50.8543 26.4243 50.8297 27.9152 50.8052C29.3979 50.7806 30.2252 49.7648 30.4055 48.962C30.6103 48.0118 30.7086 42.3594 29.8402 40.59C29.5208 39.9428 28.6852 39.3285 27.4073 39.3121H27.3991Z"
            fill="url(#paint9_linear_50_5862)" />
        <path
            d="M28.6852 50.8543C28.9883 50.7232 29.2013 50.5512 29.275 50.3546C29.6273 49.3061 29.7911 44.137 28.5296 42.5642C27.268 40.9914 24.0978 42.0399 24.0978 42.0399C22.2137 42.5314 22.738 49.9204 23.6391 50.7396C23.934 51.01 24.6221 51.1738 25.4085 51.2311C25.5969 49.2815 26.1376 47.3728 26.1376 47.3728C26.1376 47.3728 28.4722 47.8479 28.677 50.8543H28.6852Z"
            fill="white" />
        <path
            d="M28.718 51.2639C28.718 51.1164 28.6852 51.0018 28.677 50.8625C27.907 51.1984 26.5472 51.3212 25.4085 51.2393C25.261 52.8121 25.343 54.4177 26.1376 55.0567C27.9234 56.4903 31.1264 56.6377 31.1264 56.6377C31.1755 52.1732 28.718 51.2721 28.718 51.2721V51.2639Z"
            fill="url(#paint10_linear_50_5862)" />
        <path
            d="M28.6852 50.8543C28.4804 47.8479 26.1458 47.3728 26.1458 47.3728C26.1458 47.3728 25.6051 49.2815 25.4167 51.2311C26.5553 51.3212 27.9152 51.1902 28.6852 50.8543Z"
            fill="#DEE0E4" />
        <path
            d="M27.2352 31.2104C27.2516 30.8254 26.8666 30.8008 26.8666 30.8008L26.2277 30.6861L25.5395 30.5632C25.5395 30.5632 24.876 30.4813 24.7777 30.9073C24.6876 31.3333 24.5893 32.3654 24.5893 32.3654L25.8672 32.3818L26.9977 32.8651L27.2352 31.2186V31.2104ZM26.5799 31.8821C26.3014 32.0869 25.9491 31.9804 25.9491 31.9804C25.9491 31.9804 25.5805 31.9395 25.4085 31.6364C25.2446 31.3333 25.5641 30.85 26.1621 30.9728C26.7601 31.0957 26.8584 31.6773 26.5799 31.8821Z"
            fill="white" />
        <path
            d="M27.5957 34.1922C26.9731 33.7007 27.0387 33.2502 27.0714 33.029C27.0714 33.029 27.2189 32.9798 27.2517 32.7914C27.2844 32.603 26.3342 32.4146 26.0966 32.3818L25.8181 32.3327L25.5396 32.2835C25.302 32.2426 24.3436 32.1115 24.319 32.3081C24.2862 32.4965 24.4173 32.5948 24.4173 32.5948C24.3845 32.816 24.2944 33.2583 23.549 33.5287C22.8035 33.799 22.6806 34.7247 22.6806 34.7247L20.6655 47.0124C20.5835 47.5284 20.8047 48.0527 21.2635 48.3149C21.6567 48.5442 22.2547 48.79 23.1066 48.9292C23.9586 49.0685 24.5975 49.0275 25.0481 48.9292C25.5641 48.8227 25.941 48.3968 26.0311 47.8807L28.0463 35.593C28.0463 35.593 28.2265 34.6755 27.6039 34.184L27.5957 34.1922Z"
            fill="#1B502C" />
        <path
            d="M27.5957 34.1922C26.9731 33.7007 27.0387 33.2502 27.0714 33.029C27.0714 33.029 27.2189 32.9798 27.2517 32.7914C27.2844 32.603 26.3342 32.4146 26.0966 32.3818L25.8181 32.3327L25.5396 32.2835C25.302 32.2426 24.3436 32.1115 24.319 32.3081C24.2862 32.4965 24.4173 32.5948 24.4173 32.5948C24.3845 32.816 24.2944 33.2583 23.549 33.5287C22.8035 33.799 22.6806 34.7247 22.6806 34.7247L20.6655 47.0124C20.5835 47.5284 20.8047 48.0527 21.2635 48.3149C21.6567 48.5442 22.2547 48.79 23.1066 48.9292C23.9586 49.0685 24.5975 49.0275 25.0481 48.9292C25.5641 48.8227 25.941 48.3968 26.0311 47.8807L28.0463 35.593C28.0463 35.593 28.2265 34.6755 27.6039 34.184L27.5957 34.1922Z"
            fill="url(#paint11_linear_50_5862)" />
        <path
            d="M27.5384 51.5178C27.5384 51.5178 28.0053 50.9362 28.1446 50.3218C28.3658 49.3142 28.1691 47.9954 27.0387 47.3728C25.2037 46.3652 8.63173 46.1768 4.65871 46.7174C4.39658 46.7502 4.16721 46.8076 3.93784 46.8567C3.03674 47.0779 2.3732 47.4301 1.92266 47.8561C0.792189 48.9374 0.923257 50.4611 1.41476 51.3049C1.42296 51.3212 1.43115 51.3458 1.44753 51.3622H1.43934C1.382 51.4032 0.218763 52.2551 0.0221604 53.6395C-0.182634 55.0567 1.03794 56.564 3.43814 56.564H27.6367C27.6367 56.564 29.6437 56.4083 29.6027 54.4751C29.5699 52.5418 27.5302 51.5178 27.5302 51.5178H27.5384Z"
            fill="#BFB554" />
        <path
            d="M27.5384 51.5178C27.5384 51.5178 28.0053 50.9362 28.1446 50.3218C28.3658 49.3142 28.1691 47.9954 27.0387 47.3728C25.2037 46.3652 8.63173 46.1768 4.65871 46.7174C4.39658 46.7502 4.16721 46.8076 3.93784 46.8567C3.03674 47.0779 2.3732 47.4301 1.92266 47.8561C0.792189 48.9374 0.923257 50.4611 1.41476 51.3049C1.42296 51.3212 1.43115 51.3458 1.44753 51.3622H1.43934C1.382 51.4032 0.218763 52.2551 0.0221604 53.6395C-0.182634 55.0567 1.03794 56.564 3.43814 56.564H27.6367C27.6367 56.564 29.6437 56.4083 29.6027 54.4751C29.5699 52.5418 27.5302 51.5178 27.5302 51.5178H27.5384Z"
            fill="url(#paint12_linear_50_5862)" />
        <path
            d="M4.35566 51.8701C5.60082 51.8865 6.87874 51.9029 8.06654 51.5096C8.23038 51.4523 8.39422 51.395 8.56624 51.4032C8.82838 51.4113 9.05775 51.5834 9.28712 51.7226C10.1309 52.2469 11.163 52.4271 12.1542 52.3862C13.1536 52.3534 14.1285 52.124 15.0951 51.9029C15.2835 51.8619 15.4719 51.8127 15.6603 51.8455C15.8324 51.8701 15.9962 51.952 16.1518 52.0257C17.2413 52.5418 18.4701 52.7958 19.6579 52.6155C20.8457 52.4353 21.9844 51.7882 22.6397 50.7806C20.6246 51.7063 18.1834 51.6243 16.242 50.5676C16.1355 50.5102 16.029 50.4529 15.9143 50.4447C15.7914 50.4447 15.6685 50.4857 15.5538 50.5348C13.7435 51.2967 11.6054 51.395 9.84416 50.5266C9.66394 50.4365 9.47553 50.33 9.27074 50.3218C9.11509 50.3136 8.95945 50.3464 8.812 50.3874C7.98463 50.584 7.14087 50.6905 6.28893 50.6905C5.50252 50.6905 4.68334 50.5922 4.01161 50.1826C3.33988 49.773 2.84018 48.9866 2.97125 48.2084C3.06136 47.6513 3.46276 47.1926 3.93788 46.8813C3.03679 47.1025 2.37325 47.4547 1.9227 47.8807C0.792236 48.962 0.923304 50.4857 1.41481 51.3294C1.423 51.3458 1.4312 51.3704 1.44758 51.3868H1.43939C1.70152 51.5178 1.97185 51.6243 2.25857 51.6981C2.94668 51.8701 3.65936 51.8783 4.36386 51.8947L4.35566 51.8701Z"
            fill="url(#paint13_linear_50_5862)" />
    </g>
</svg>
