<svg width="64" height="64" viewBox="0 0 64 64" fill="none" xmlns="http://www.w3.org/2000/svg">
    <defs>
        <linearGradient id="paint0_linear_50_5596" x1="-10.1701" y1="-4.01143" x2="-9.99377"
            y2="42.3487" gradientUnits="userSpaceOnUse">
            <stop stop-color="#FFC578" />
            <stop offset="1" stop-color="#FCDBB4" />
        </linearGradient>
        <linearGradient id="paint1_linear_50_5596" x1="27.0912" y1="2.72238" x2="26.8846"
            y2="16.8774" gradientUnits="userSpaceOnUse">
            <stop stop-color="#411112" />
            <stop offset="1" stop-color="#411112" stop-opacity="0" />
        </linearGradient>
        <linearGradient id="paint2_linear_50_5596" x1="57.3298" y1="61.2195" x2="40.8328"
            y2="44.7053" gradientUnits="userSpaceOnUse">
            <stop stop-color="#411112" />
            <stop offset="1" stop-color="#411112" stop-opacity="0" />
        </linearGradient>
        <linearGradient id="paint3_linear_50_5596" x1="-3.19926" y1="-27.3269" x2="42.7099"
            y2="41.8295" gradientUnits="userSpaceOnUse">
            <stop stop-color="#527124" />
            <stop offset="1" stop-color="#527124" stop-opacity="0" />
        </linearGradient>
        <linearGradient id="paint4_linear_50_5596" x1="32.3433" y1="-41.4131" x2="32.3433"
            y2="49.6303" gradientUnits="userSpaceOnUse">
            <stop stop-color="#1B502C" />
            <stop offset="1" stop-color="#1B502C" stop-opacity="0" />
        </linearGradient>
        <linearGradient id="paint5_linear_50_5596" x1="45.4479" y1="23.2661" x2="47.015"
            y2="28.5527" gradientUnits="userSpaceOnUse">
            <stop stop-color="#1B502C" />
            <stop offset="1" stop-color="#1B502C" stop-opacity="0" />
        </linearGradient>
        <linearGradient id="paint6_linear_50_5596" x1="49.3224" y1="37.4556" x2="51.0444"
            y2="44.2403" gradientUnits="userSpaceOnUse">
            <stop stop-color="#1B502C" />
            <stop offset="1" stop-color="#1B502C" stop-opacity="0" />
        </linearGradient>
        <linearGradient id="paint7_linear_50_5596" x1="59.7235" y1="46.6168" x2="47.1871"
            y2="25.6081" gradientUnits="userSpaceOnUse">
            <stop stop-color="#F9A947" />
            <stop offset="1" stop-color="#EA4537" />
        </linearGradient>
        <linearGradient id="paint8_linear_50_5596" x1="11.1108" y1="28.9143" x2="7.78728"
            y2="31.153" gradientUnits="userSpaceOnUse">
            <stop stop-color="#1B502C" />
            <stop offset="1" stop-color="#1B502C" stop-opacity="0" />
        </linearGradient>
        <linearGradient id="paint9_linear_50_5596" x1="8.51047" y1="52.6266" x2="8.8721"
            y2="29.1899" gradientUnits="userSpaceOnUse">
            <stop stop-color="#F9A947" />
            <stop offset="1" stop-color="#EA4537" />
        </linearGradient>
    </defs>

    <path
        d="M29.8222 0.466041L6.09884 11.5639C4.22232 12.4524 3 14.3689 3 16.4944V47.4882C3 49.6137 4.20511 51.5476 6.09884 52.4187L29.8222 63.5165C31.2167 64.1611 32.8005 64.1611 34.1778 63.5165L57.9012 52.4187C59.7777 51.5301 61 49.6137 61 47.4882V16.5118C61 14.3863 59.7949 12.4524 57.9012 11.5813L34.1778 0.483463C32.7833 -0.161154 31.1995 -0.161154 29.8222 0.483463V0.466041Z"
        fill="url(#paint0_linear_50_5596)" />
    <path
        d="M32.8774 50.6119L43.089 53.7115L55.2809 51.1285C55.2809 51.1285 58.725 11.057 59.3966 7.99177L44.8455 6.64859L33.4457 10.4715L19.8417 6.56249L3.1897 8.93888C3.1897 8.93888 8.47631 26.1591 9.88837 37.5761C11.3177 48.9932 11.7654 53.9526 11.7654 53.9526C11.7654 53.9526 23.0102 54.5209 23.2857 54.5209L32.8602 50.5946L32.8774 50.6119Z"
        fill="white" />
    <path
        d="M14.4171 13.1578C15.3298 13.33 16.2769 13.2784 17.2068 13.3989C18.1367 13.5195 19.101 13.8467 19.6521 14.5871C19.8587 14.8626 19.9965 15.1726 20.272 15.3793C20.7886 15.7753 21.5291 15.6031 22.1834 15.5687C22.8378 15.5342 23.6816 17.2735 23.6127 17.9278C24.181 17.4801 25.042 16.2919 25.6447 16.7052C26.2474 17.1185 26.7124 17.704 27.2978 18.1345C28.4516 18.9611 30.0875 19.0299 31.3102 18.3067C31.8784 17.9623 32.3778 17.4629 33.0494 17.3251C34.5476 17.0496 36.0457 18.9094 37.3889 18.2034C38.0949 17.8417 38.336 16.9463 38.9559 16.4641C39.8514 15.7753 41.1946 16.1369 42.1934 15.6376C43.1577 15.1554 43.5882 13.9672 43.4504 12.9168C43.3127 11.8491 42.71 10.9192 42.0384 10.0926C41.9006 9.92044 41.7628 9.74823 41.6251 9.55881L33.2905 12.5724L19.962 8.6117L10.4048 9.90322C10.4909 10.1099 10.5598 10.3337 10.6803 10.5231C11.4724 11.8835 12.8673 12.8823 14.3999 13.1751L14.4171 13.1578Z"
        fill="#1B502C" />
    <path
        d="M14.4171 13.1578C15.3298 13.33 16.2769 13.2784 17.2068 13.3989C18.1367 13.5195 19.101 13.8467 19.6521 14.5871C19.8587 14.8626 19.9965 15.1726 20.272 15.3793C20.7886 15.7753 21.5291 15.6031 22.1834 15.5687C22.8378 15.5342 23.6816 17.2735 23.6127 17.9278C24.181 17.4801 25.042 16.2919 25.6447 16.7052C26.2474 17.1185 26.7124 17.704 27.2978 18.1345C28.4516 18.9611 30.0875 19.0299 31.3102 18.3067C31.8784 17.9623 32.3778 17.4629 33.0494 17.3251C34.5476 17.0496 36.0457 18.9094 37.3889 18.2034C38.0949 17.8417 38.336 16.9463 38.9559 16.4641C39.8514 15.7753 41.1946 16.1369 42.1934 15.6376C43.1577 15.1554 43.5882 13.9672 43.4504 12.9168C43.3127 11.8491 42.71 10.9192 42.0384 10.0926C41.9006 9.92044 41.7628 9.74823 41.6251 9.55881L33.2905 12.5724L19.962 8.6117L10.4048 9.90322C10.4909 10.1099 10.5598 10.3337 10.6803 10.5231C11.4724 11.8835 12.8673 12.8823 14.3999 13.1751L14.4171 13.1578Z"
        fill="url(#paint1_linear_50_5596)" />
    <path
        d="M50.2523 46.2724C49.8218 45.9796 49.3224 45.773 48.9263 45.4286C47.8243 44.4815 47.7726 42.6389 46.5672 41.8295C45.8095 41.3129 44.7935 41.3474 43.9841 40.8996C43.4159 40.5897 42.9337 40.0386 42.2793 39.987C41.2289 39.9181 40.6262 41.2096 40.5918 42.2601C40.5573 43.3105 40.7467 44.4987 40.1096 45.3425C39.7652 45.8074 39.1969 46.0829 38.9558 46.6168C38.4737 47.7016 39.5758 49.217 38.7147 50.0264C38.4909 50.233 38.1809 50.3363 37.9054 50.4741L43.1748 51.9723L51.7333 50.2675C51.7849 50.0264 51.7333 49.372 51.7333 49.1309C51.7505 48.0116 51.1822 46.9095 50.2695 46.2724H50.2523Z"
        fill="#1B502C" />
    <path
        d="M50.2523 46.2724C49.8218 45.9796 49.3224 45.773 48.9263 45.4286C47.8243 44.4815 47.7726 42.6389 46.5672 41.8295C45.8095 41.3129 44.7935 41.3474 43.9841 40.8996C43.4159 40.5897 42.9337 40.0386 42.2793 39.987C41.2289 39.9181 40.6262 41.2096 40.5918 42.2601C40.5573 43.3105 40.7467 44.4987 40.1096 45.3425C39.7652 45.8074 39.1969 46.0829 38.9558 46.6168C38.4737 47.7016 39.5758 49.217 38.7147 50.0264C38.4909 50.233 38.1809 50.3363 37.9054 50.4741L43.1748 51.9723L51.7333 50.2675C51.7849 50.0264 51.7333 49.372 51.7333 49.1309C51.7505 48.0116 51.1822 46.9095 50.2695 46.2724H50.2523Z"
        fill="url(#paint2_linear_50_5596)" />
    <path
        d="M25.6446 16.7052C26.2474 17.1185 26.7123 17.704 27.2978 18.1345C28.4515 18.9611 30.0875 19.0299 31.3101 18.3067C31.8784 17.9623 32.3778 17.4629 33.0493 17.3251C34.5475 17.0496 36.0457 18.9094 37.3888 18.2034C38.0949 17.8418 38.336 16.9463 38.9559 16.4641C39.8513 15.7753 41.1945 16.1369 42.1933 15.6376C43.1576 15.1554 43.5881 13.9672 43.4504 12.9168C43.3126 11.8491 42.7099 10.9192 42.0383 10.0926C41.9005 9.92044 41.7628 9.74824 41.625 9.55882L44.7763 8.42228L57.5882 9.55882L53.6448 49.3548L51.6128 49.8542C51.6644 49.6131 51.7161 49.372 51.7161 49.1309C51.7333 48.0116 51.165 46.9095 50.2524 46.2724C49.8219 45.9796 49.3225 45.773 48.9264 45.4286C47.8243 44.4815 47.7727 42.6389 46.5672 41.8295C45.8095 41.3129 44.7935 41.3474 43.9842 40.8997C43.4159 40.5897 42.9338 40.0386 42.2794 39.987C41.229 39.9181 40.6263 41.2096 40.5918 42.2601C40.5574 43.3105 40.7468 44.4987 40.1096 45.3425C39.7652 45.8074 39.197 46.0829 38.9559 46.6168C38.4737 47.7016 39.5758 49.217 38.7148 50.0264C38.4909 50.233 38.181 50.3363 37.9054 50.4741L32.8944 48.9071L23.2166 52.8333L13.2977 52.2478C11.3346 30.602 5.22144 10.592 5.22144 10.592L10.4219 9.886C10.508 10.0926 10.5769 10.3165 10.6975 10.5059C11.4896 11.8663 12.8844 12.8651 14.417 13.1578C15.3297 13.33 16.2768 13.2784 17.2067 13.3989C18.1366 13.5195 19.101 13.8467 19.652 14.5871C19.8586 14.8626 19.9964 15.1726 20.2719 15.3793C20.7885 15.7753 21.529 15.6031 22.1834 15.5687C22.8377 15.5342 22.4933 15.6203 22.6655 15.7409C22.7861 15.827 22.8894 15.9475 22.9927 16.0681C23.1821 16.2919 23.3888 16.4986 23.6643 16.6019C24.267 16.8258 25.128 16.3264 25.6619 16.688L25.6446 16.7052Z"
        fill="#BFB554" />
    <path
        d="M25.6446 16.7052C26.2474 17.1185 26.7123 17.704 27.2978 18.1345C28.4515 18.9611 30.0875 19.0299 31.3101 18.3067C31.8784 17.9623 32.3778 17.4629 33.0493 17.3251C34.5475 17.0496 36.0457 18.9094 37.3888 18.2034C38.0949 17.8418 38.336 16.9463 38.9559 16.4641C39.8513 15.7753 41.1945 16.1369 42.1933 15.6376C43.1576 15.1554 43.5881 13.9672 43.4504 12.9168C43.3126 11.8491 42.7099 10.9192 42.0383 10.0926C41.9005 9.92044 41.7628 9.74824 41.625 9.55882L44.7763 8.42228L57.5882 9.55882L53.6448 49.3548L51.6128 49.8542C51.6644 49.6131 51.7161 49.372 51.7161 49.1309C51.7333 48.0116 51.165 46.9095 50.2524 46.2724C49.8219 45.9796 49.3225 45.773 48.9264 45.4286C47.8243 44.4815 47.7727 42.6389 46.5672 41.8295C45.8095 41.3129 44.7935 41.3474 43.9842 40.8997C43.4159 40.5897 42.9338 40.0386 42.2794 39.987C41.229 39.9181 40.6263 41.2096 40.5918 42.2601C40.5574 43.3105 40.7468 44.4987 40.1096 45.3425C39.7652 45.8074 39.197 46.0829 38.9559 46.6168C38.4737 47.7016 39.5758 49.217 38.7148 50.0264C38.4909 50.233 38.181 50.3363 37.9054 50.4741L32.8944 48.9071L23.2166 52.8333L13.2977 52.2478C11.3346 30.602 5.22144 10.592 5.22144 10.592L10.4219 9.886C10.508 10.0926 10.5769 10.3165 10.6975 10.5059C11.4896 11.8663 12.8844 12.8651 14.417 13.1578C15.3297 13.33 16.2768 13.2784 17.2067 13.3989C18.1366 13.5195 19.101 13.8467 19.652 14.5871C19.8586 14.8626 19.9964 15.1726 20.2719 15.3793C20.7885 15.7753 21.529 15.6031 22.1834 15.5687C22.8377 15.5342 22.4933 15.6203 22.6655 15.7409C22.7861 15.827 22.8894 15.9475 22.9927 16.0681C23.1821 16.2919 23.3888 16.4986 23.6643 16.6019C24.267 16.8258 25.128 16.3264 25.6619 16.688L25.6446 16.7052Z"
        fill="#BFB554" />
    <path
        d="M25.6446 16.7052C26.2474 17.1185 26.7123 17.704 27.2978 18.1345C28.4515 18.9611 30.0875 19.0299 31.3101 18.3067C31.8784 17.9623 32.3778 17.4629 33.0493 17.3251C34.5475 17.0496 36.0457 18.9094 37.3888 18.2034C38.0949 17.8418 38.336 16.9463 38.9559 16.4641C39.8513 15.7753 41.1945 16.1369 42.1933 15.6376C43.1576 15.1554 43.5881 13.9672 43.4504 12.9168C43.3126 11.8491 42.7099 10.9192 42.0383 10.0926C41.9005 9.92044 41.7628 9.74824 41.625 9.55882L44.7763 8.42228L57.5882 9.55882L53.6448 49.3548L51.6128 49.8542C51.6644 49.6131 51.7161 49.372 51.7161 49.1309C51.7333 48.0116 51.165 46.9095 50.2524 46.2724C49.8219 45.9796 49.3225 45.773 48.9264 45.4286C47.8243 44.4815 47.7727 42.6389 46.5672 41.8295C45.8095 41.3129 44.7935 41.3474 43.9842 40.8997C43.4159 40.5897 42.9338 40.0386 42.2794 39.987C41.229 39.9181 40.6263 41.2096 40.5918 42.2601C40.5574 43.3105 40.7468 44.4987 40.1096 45.3425C39.7652 45.8074 39.197 46.0829 38.9559 46.6168C38.4737 47.7016 39.5758 49.217 38.7148 50.0264C38.4909 50.233 38.181 50.3363 37.9054 50.4741L32.8944 48.9071L23.2166 52.8333L13.2977 52.2478C11.3346 30.602 5.22144 10.592 5.22144 10.592L10.4219 9.886C10.508 10.0926 10.5769 10.3165 10.6975 10.5059C11.4896 11.8663 12.8844 12.8651 14.417 13.1578C15.3297 13.33 16.2768 13.2784 17.2067 13.3989C18.1366 13.5195 19.101 13.8467 19.652 14.5871C19.8586 14.8626 19.9964 15.1726 20.2719 15.3793C20.7885 15.7753 21.529 15.6031 22.1834 15.5687C22.8377 15.5342 22.4933 15.6203 22.6655 15.7409C22.7861 15.827 22.8894 15.9475 22.9927 16.0681C23.1821 16.2919 23.3888 16.4986 23.6643 16.6019C24.267 16.8258 25.128 16.3264 25.6619 16.688L25.6446 16.7052Z"
        fill="url(#paint3_linear_50_5596)" />
    <path
        d="M47.9276 31.7212C47.8071 31.7212 47.6865 31.7212 47.5488 31.7212C45.534 31.6007 43.6054 30.6536 42.2622 29.1382C41.935 28.7594 41.6422 28.3633 41.3495 27.95C40.9018 27.3301 40.4713 26.7446 39.9202 26.3141C38.7665 25.4186 37.0444 25.3325 35.8046 26.1074C35.5463 26.2797 35.3052 26.4691 35.0641 26.6585C34.6164 27.0201 34.1342 27.399 33.5487 27.6401C32.0506 28.2255 30.6213 27.6401 29.2265 27.089C28.1244 26.6413 27.0911 26.228 26.1096 26.4174C25.0592 26.6241 24.2326 27.4851 23.3716 28.3977C22.4245 29.3965 21.4601 30.4297 20.0481 30.7569C18.791 31.0497 17.62 30.688 16.4835 30.3436C15.7258 30.1025 15.0025 29.8959 14.2965 29.8615C13.1772 29.827 12.0234 30.2575 10.7836 31.153L10.0087 30.0853C11.4724 29.0177 12.9361 28.4838 14.3309 28.5355C15.2092 28.5699 16.053 28.8282 16.8623 29.0693C17.8783 29.3793 18.8426 29.672 19.7553 29.4654C20.7713 29.2243 21.5807 28.3805 22.4245 27.4851C23.3888 26.4519 24.4048 25.3842 25.8857 25.1087C27.2461 24.8504 28.5204 25.367 29.7431 25.8491C30.9485 26.3313 32.085 26.779 33.101 26.4002C33.5143 26.2452 33.8759 25.9352 34.272 25.6253C34.5475 25.4014 34.8403 25.1776 35.1502 24.9709C36.8378 23.9033 39.2142 24.0238 40.7812 25.2637C41.47 25.8147 41.9866 26.5035 42.4688 27.1751C42.7443 27.5367 43.0026 27.9156 43.3126 28.26C44.4319 29.5171 46.0334 30.292 47.7038 30.3953C48.2548 30.4297 48.6509 30.3781 48.9608 30.2231C49.6669 29.8615 49.9424 28.8799 50.0457 28.1222C50.0802 27.8984 50.0974 27.6573 50.1318 27.4162C50.2179 26.5724 50.304 25.6942 50.7173 24.8848C51.1134 24.1271 51.9399 23.5589 53.0765 23.2489C54.5574 22.8528 56.2106 23.0078 57.1921 23.6277L56.4861 24.7471C55.8145 24.3165 54.523 24.2304 53.4209 24.5232C52.6632 24.7298 52.1122 25.0742 51.8883 25.4875C51.5783 26.073 51.5094 26.7963 51.4406 27.5367C51.4233 27.795 51.3889 28.0361 51.3545 28.2772C51.1478 29.8098 50.5279 30.8775 49.5636 31.3768C49.133 31.6007 48.6164 31.7212 47.9965 31.7212H47.9276Z"
        fill="white" />
    <path
        d="M21.1157 53.7804C20.668 53.4187 20.3924 52.8333 20.3063 52.0583C20.2202 51.2146 20.3924 50.0608 20.9607 49.372C21.6323 48.5799 22.5277 48.1321 23.3887 47.7188L23.7676 47.5294C24.5081 47.1678 25.3863 46.634 25.679 45.8418C25.989 44.9636 25.5757 44.0337 25.0936 42.9488C24.6114 41.8812 24.1292 40.7791 24.3014 39.5564C24.5253 37.9033 25.8512 36.8529 27.0222 35.923C27.4011 35.613 27.7799 35.3203 28.1243 34.9931C30.1046 33.1333 30.8107 29.7409 29.7775 27.089L31.0001 26.6068C32.2227 29.7409 31.3789 33.7532 29.0198 35.9574C28.6581 36.3018 28.2449 36.629 27.8316 36.9562C26.7639 37.8172 25.7479 38.6093 25.5929 39.7459C25.4724 40.5897 25.8685 41.4679 26.2817 42.415C26.7984 43.586 27.4011 44.9119 26.9017 46.2896C26.454 47.5294 25.3002 48.2355 24.3359 48.7176L23.9398 48.907C23.1649 49.2859 22.4244 49.6303 21.9422 50.2158C21.7012 50.4913 21.5117 51.2145 21.5806 51.9206C21.6323 52.3855 21.77 52.6438 21.8906 52.7472L21.064 53.7804H21.1157Z"
        fill="white" />
    <path
        d="M33.4626 10.4715L19.8414 6.56249L23.3027 54.5381L32.8772 50.6119L43.0888 53.6943L44.8452 6.64859L33.4626 10.4715Z"
        fill="url(#paint4_linear_50_5596)" />
    <path
        d="M41.8145 22.2329C41.8145 22.2329 42.2105 24.6093 43.6226 25.5736C43.6226 25.5736 43.6915 27.4679 44.4664 28.1739C45.2413 28.8799 46.7394 35.458 46.7394 35.458L51.5439 32.3756C51.5439 32.3756 43.4159 22.9906 43.1576 22.8184C42.8993 22.6462 41.8145 22.2157 41.8145 22.2157V22.2329Z"
        fill="url(#paint5_linear_50_5596)" />
    <path
        d="M46.5671 35.2342C46.5671 35.2342 47.6176 38.6093 48.0481 39.5048C48.4614 40.4002 49.8045 43.5688 50.7172 44.7397C51.4577 45.6869 53.0247 42.6733 52.6459 42.0362C52.267 41.399 46.5671 35.2342 46.5671 35.2342Z"
        fill="url(#paint6_linear_50_5596)" />
    <path
        d="M57.3298 33.7705C56.8477 30.3953 56.2105 28.7766 55.7972 28.6044C55.384 28.4322 55.0051 28.6389 54.6435 28.4839C54.2819 28.3117 53.8169 26.8824 53.0937 26.5897C52.3704 26.2969 51.6472 26.7791 51.6472 26.7791C51.6472 26.7791 50.8723 26.1247 50.2868 26.0903C50.2868 26.0903 49.4258 25.9009 48.9608 26.3658C48.823 26.5036 48.8575 27.1063 48.8575 27.1063C48.8575 27.1063 46.8083 24.8676 46.1711 24.2133C45.534 23.5589 43.2092 21.2686 42.3138 21.3719C41.4183 21.4753 41.8144 22.7668 42.641 23.7139C43.4676 24.6438 43.7259 24.5749 43.7259 24.5749C43.7259 24.5749 45.2757 26.7619 45.8095 27.0202C45.8095 27.0202 46.085 28.4667 46.4294 29.2416C46.1195 28.8455 45.5684 28.415 44.8107 28.9661C44.8107 28.9661 45.3446 31.4458 45.534 31.9452C45.7751 32.5823 45.3101 34.0116 45.9473 35.1137C46.5844 36.233 48.117 38.4372 48.117 38.4372V38.42C48.1687 38.5405 48.2203 38.6611 48.272 38.7816C49.2363 40.5036 51.4405 42.8111 51.871 44.6193C52.3015 46.4446 58.122 42.8628 58.122 42.8628C58.122 42.8628 57.8292 37.1629 57.3471 33.7705H57.3298Z"
        fill="url(#paint7_linear_50_5596)" />
    <path
        d="M42.2277 22.1812C42.2277 22.1812 41.9866 21.7679 42.1416 21.2858C42.1416 21.2858 43.0026 21.3547 43.5536 21.9401C43.5536 21.9401 43.1231 22.6117 42.2104 22.1812H42.2277Z"
        fill="white" />
    <path
        d="M45.2756 31.0152C45.2756 31.0152 45.62 30.9636 45.8095 30.6708C45.9989 30.3781 45.9128 29.1726 45.8095 29.0004C45.7061 28.8282 45.1034 28.6733 44.7762 28.9143C44.7762 28.9143 45.1034 30.7741 45.2929 31.0152H45.2756Z"
        fill="white" />
    <path
        d="M50.7173 43.9993C50.7173 43.9993 53.3692 40.8135 58.5697 40.0903C59.9818 39.9009 60.154 42.3117 60.0507 42.5183C59.9473 42.725 52.3188 47.7705 51.4233 46.9439C50.5279 46.1346 50.0801 44.4298 50.7173 43.9993Z"
        fill="#FAA847" />
    <path
        d="M47.101 33.4088C47.0321 33.4088 46.9632 33.3572 46.946 33.2711C46.8427 32.7889 46.8255 32.2895 46.9288 31.8073V31.7557C46.946 31.6696 46.9633 31.5835 46.9633 31.5146C46.9633 31.4285 46.9116 31.3252 46.8771 31.2218C46.6016 30.5847 46.3778 29.9131 46.2228 29.2415C46.2056 29.1554 46.2572 29.0693 46.3433 29.0349C46.4294 29.0004 46.5155 29.0693 46.55 29.1554C46.7222 29.8098 46.9288 30.4642 47.1871 31.0669C47.2388 31.2046 47.2904 31.3252 47.3077 31.4802C47.3077 31.6007 47.3077 31.704 47.2732 31.8073V31.8418C47.1871 32.2723 47.1871 32.7372 47.2732 33.185C47.2904 33.2711 47.2388 33.3572 47.1527 33.3744C47.1527 33.3744 47.1355 33.3744 47.1182 33.3744L47.101 33.4088Z"
        fill="#92150D" />
    <path
        d="M46.2917 32.2895C46.2573 32.2895 46.2228 32.2895 46.1884 32.2551C46.1195 32.2034 46.1195 32.0829 46.1884 32.0312C46.4122 31.7729 46.6878 31.549 46.9805 31.3768C47.0494 31.3252 47.1527 31.3596 47.2044 31.4285C47.256 31.5146 47.2216 31.6007 47.1527 31.6524C46.8772 31.8073 46.6361 32.014 46.4295 32.2378C46.395 32.2723 46.3434 32.2895 46.3089 32.2895H46.2917Z"
        fill="#92150D" />
    <path
        d="M50.0628 30.0164C49.994 30.0164 49.9251 29.982 49.9079 29.9131C49.5462 28.9316 49.1157 27.9672 48.5991 27.0546C48.5475 26.9685 48.5991 26.8824 48.668 26.8307C48.7541 26.779 48.8402 26.8307 48.8919 26.8996C49.4085 27.8295 49.8562 28.811 50.2178 29.8098C50.2523 29.8959 50.2178 29.982 50.1145 30.0164C50.0973 30.0164 50.0801 30.0164 50.0628 30.0164Z"
        fill="#92150D" />
    <path
        d="M52.8526 29.1038C52.7837 29.1038 52.732 29.0693 52.6976 29.0004C52.336 28.1739 51.871 27.399 51.32 26.6929C51.2683 26.624 51.2855 26.5207 51.3544 26.4691C51.4233 26.4174 51.5266 26.4174 51.5783 26.5035C52.1465 27.244 52.6287 28.0361 53.0075 28.8799C53.042 28.966 53.0075 29.0693 52.9214 29.1038C52.9042 29.1038 52.8698 29.1038 52.8526 29.1038Z"
        fill="#92150D" />
    <path
        d="M55.1084 29.6031C55.0396 29.6031 54.9879 29.5687 54.9535 29.517L54.5574 28.7077C54.5057 28.6044 54.4713 28.5183 54.4196 28.4322C54.3852 28.3461 54.4196 28.26 54.4885 28.2083C54.5574 28.1739 54.6607 28.2083 54.7124 28.2772C54.764 28.3805 54.8157 28.4666 54.8674 28.5699L55.2634 29.3793C55.2979 29.4654 55.2634 29.5515 55.1946 29.6031C55.1773 29.6031 55.1429 29.6031 55.1257 29.6031H55.1084Z"
        fill="#92150D" />
    <path
        d="M61.015 45.6597V42.6117C60.7223 41.9745 60.4123 41.544 60.1196 41.544C59.1036 41.544 53.8514 43.4038 51.6644 45.608C49.4775 47.8294 50.7345 51.6695 50.7345 51.6695C50.8551 52.4617 51.7333 54.4248 52.1466 55.1136L58.7075 52.2895C61.7899 50.8085 61.015 48.1019 61.015 45.8633V45.6597Z"
        fill="white" />
    <path
        d="M11.0075 26.4518C11.0075 26.4518 8.59663 28.5872 8.44165 29.2415L9.13046 32.7372C9.13046 32.7372 10.818 27.5539 10.9214 27.3645C11.0247 27.1751 11.0075 26.4518 11.0075 26.4518Z"
        fill="url(#paint8_linear_50_5596)" />
    <path
        d="M13.2633 40.3658C13.2633 40.2797 13.2633 40.1936 13.2633 40.1075C13.2633 40.0214 13.2633 39.9353 13.2633 39.832C13.2633 39.7975 13.2633 39.7631 13.2633 39.7287C13.2633 39.4876 13.2288 39.2465 13.1944 38.9882C13.1772 38.8504 13.1599 38.7299 13.1255 38.5921C13.1255 38.5405 13.0911 38.506 13.0911 38.4716C12.9189 37.5073 12.6605 36.4913 12.2989 35.5441C11.7651 34.1321 12.2989 30.8602 12.4195 30.3781C12.5228 29.8959 12.8844 29.0349 12.85 28.0361C12.8155 27.0373 12.7122 26.4519 12.3334 26.2624C11.9545 26.0558 11.1624 26.0041 10.7663 26.779C10.7663 26.779 9.3026 29.5687 9.07874 30.4125C8.8721 31.2563 8.97542 32.875 8.57935 34.2182C8.57935 34.2182 8.57935 34.2354 8.57935 34.2526C8.54491 34.201 8.52769 34.1493 8.51047 34.0804L8.40715 33.9771C8.14885 32.6684 7.30505 30.9119 7.30505 30.9119C7.95942 29.5687 8.04552 28.3289 7.92498 27.9328C7.92498 27.9328 7.99386 27.8295 8.13163 27.6745L7.39115 24.4715C7.13285 24.6093 6.90899 24.8332 6.77123 25.1431C6.34072 26.1936 4.34317 29.1038 4.29151 29.8615C4.23985 30.6192 4.46371 31.5663 4.46371 31.5663C4.46371 31.5663 4.15375 32.0312 4.34317 32.9611C4.54981 33.891 5.25584 40.848 5.06642 42.6733C4.877 44.4987 4.53259 45.308 4.53259 45.308L10.9557 48.3904C10.9557 48.3904 11.4207 44.9636 11.9373 43.9132C12.0234 43.7238 12.1439 43.5171 12.2645 43.276C12.2645 43.276 12.2645 43.2588 12.2817 43.2416C12.7983 42.57 13.1772 41.5196 13.246 40.3486L13.2633 40.3658Z"
        fill="#EB5938" />
    <path
        d="M13.2633 40.3658C13.2633 40.2797 13.2633 40.1936 13.2633 40.1075C13.2633 40.0214 13.2633 39.9353 13.2633 39.832C13.2633 39.7975 13.2633 39.7631 13.2633 39.7287C13.2633 39.4876 13.2288 39.2465 13.1944 38.9882C13.1772 38.8504 13.1599 38.7299 13.1255 38.5921C13.1255 38.5405 13.0911 38.506 13.0911 38.4716C12.9189 37.5073 12.6605 36.4913 12.2989 35.5441C11.7651 34.1321 12.2989 30.8602 12.4195 30.3781C12.5228 29.8959 12.8844 29.0349 12.85 28.0361C12.8155 27.0373 12.7122 26.4519 12.3334 26.2624C11.9545 26.0558 11.1624 26.0041 10.7663 26.779C10.7663 26.779 9.3026 29.5687 9.07874 30.4125C8.8721 31.2563 8.97542 32.875 8.57935 34.2182C8.57935 34.2182 8.57935 34.2354 8.57935 34.2526C8.54491 34.201 8.52769 34.1493 8.51047 34.0804L8.40715 33.9771C8.14885 32.6684 7.30505 30.9119 7.30505 30.9119C7.95942 29.5687 8.04552 28.3289 7.92498 27.9328C7.92498 27.9328 7.99386 27.8295 8.13163 27.6745L7.39115 24.4715C7.13285 24.6093 6.90899 24.8332 6.77123 25.1431C6.34072 26.1936 4.34317 29.1038 4.29151 29.8615C4.23985 30.6192 4.46371 31.5663 4.46371 31.5663C4.46371 31.5663 4.15375 32.0312 4.34317 32.9611C4.54981 33.891 5.25584 40.848 5.06642 42.6733C4.877 44.4987 4.53259 45.308 4.53259 45.308L10.9557 48.3904C10.9557 48.3904 11.4207 44.9636 11.9373 43.9132C12.0234 43.7238 12.1439 43.5171 12.2645 43.276C12.2645 43.276 12.2645 43.2588 12.2817 43.2416C12.7983 42.57 13.1772 41.5196 13.246 40.3486L13.2633 40.3658Z"
        fill="url(#paint9_linear_50_5596)" />
    <path
        d="M10.7147 27.8467C10.7147 27.8467 11.2485 26.6413 11.4896 26.5035C11.7307 26.3658 12.4195 26.5724 12.5228 26.8996C12.6261 27.2268 12.4539 28.4838 12.1956 28.7249C11.9373 28.966 10.9558 28.7938 10.7491 28.4666C10.5425 28.1394 10.7319 27.8467 10.7319 27.8467H10.7147Z"
        fill="white" />
    <path
        d="M8.16609 38.4199C8.07999 38.4199 8.01111 38.3338 8.01111 38.2477C8.11443 36.629 8.33829 34.9931 8.64826 33.3916C8.66548 33.3055 8.75158 33.2366 8.83768 33.2539C8.92378 33.2711 8.99266 33.3572 8.97544 33.4433C8.66548 35.0275 8.44161 36.6462 8.33829 38.2477C8.33829 38.3338 8.25219 38.4027 8.16609 38.4027V38.4199Z"
        fill="#92150D" />
    <path
        d="M7.35669 35.923C7.30503 35.923 7.27059 35.9058 7.23615 35.8713C7.18449 35.8024 7.18449 35.6991 7.23615 35.6475C7.59777 35.3375 7.90774 34.9587 8.18326 34.4937C7.89052 34.6142 7.58056 34.7003 7.27059 34.7003C7.18449 34.7003 7.11561 34.6315 7.09839 34.5454C7.09839 34.4593 7.16727 34.3732 7.25337 34.3732C7.56334 34.3732 7.8733 34.2871 8.16604 34.1321C8.20048 34.1321 8.2177 34.0976 8.25214 34.0804C8.33825 34.0288 8.44157 33.9599 8.56211 33.9427L8.85485 33.9082L8.71709 34.1665C8.35547 34.8898 7.9594 35.4408 7.44279 35.8713C7.40835 35.9058 7.37391 35.9058 7.33947 35.9058L7.35669 35.923Z"
        fill="#92150D" />
    <path
        d="M3.03442 45.3425C3.03442 45.3425 3.82655 43.8271 4.75645 43.8271C5.68634 43.8271 11.0591 46.2379 11.7306 47.5122C12.4022 48.7865 11.9889 50.3536 11.4207 50.6807C10.8524 51.0079 3.03442 45.3425 3.03442 45.3425Z"
        fill="#FAA847" />
    <path
        d="M11.0419 49.9919C9.00986 47.4261 4.51538 45.3425 3 45.2736V47.5639C3 49.6647 4.20542 51.5762 6.09964 52.4372L11.834 55.0891C11.9545 53.8837 12.0578 51.249 11.0591 49.9919H11.0419Z"
        fill="white" />
    <path
        d="M4.80812 33.7188C4.72202 33.7188 4.65314 33.6671 4.65314 33.581L4.27429 30.843C4.27429 30.7569 4.32595 30.6708 4.41205 30.6536C4.49816 30.6536 4.58426 30.7053 4.60148 30.7914L4.98032 33.5294C4.98032 33.6155 4.92866 33.7016 4.84256 33.7188C4.84256 33.7188 4.84256 33.7188 4.82534 33.7188H4.80812Z"
        fill="#92150D" />
</svg>
