<svg width="360" height="309" viewBox="0 0 360 309" fill="none" xmlns="http://www.w3.org/2000/svg">
    <defs>
        <linearGradient id="paint0_linear_24_16355" x1="-361" y1="-34" x2="-29.7075" y2="783.791"
            gradientUnits="userSpaceOnUse">
            <stop offset="0.02" stop-color="#F9A947" />
            <stop offset="1" stop-color="#EA4537" />
        </linearGradient>
        <linearGradient id="paint1_linear_24_16355" x1="-360" y1="-40" x2="-191.405" y2="566.027"
            gradientUnits="userSpaceOnUse">
            <stop offset="0.02" stop-color="#F9A947" />
            <stop offset="1" stop-color="#EA4537" />
        </linearGradient>
        <linearGradient id="paint2_linear_24_16355" x1="298.167" y1="-369.127" x2="54.7906"
            y2="-82.9284" gradientUnits="userSpaceOnUse">
            <stop stop-color="#F88B2E" />
            <stop offset="1" stop-color="#E43125" stop-opacity="0.43" />
        </linearGradient>
        <linearGradient id="paint3_linear_24_16355" x1="319.571" y1="-360.004" x2="99.6249"
            y2="-104.685" gradientUnits="userSpaceOnUse">
            <stop stop-color="#F88B2E" />
            <stop offset="1" stop-color="#E43125" stop-opacity="0.43" />
        </linearGradient>
        <linearGradient id="paint4_linear_24_16355" x1="353.789" y1="-348.066" x2="175.91"
            y2="-147.474" gradientUnits="userSpaceOnUse">
            <stop stop-color="#F88B2E" />
            <stop offset="1" stop-color="#E43125" stop-opacity="0.43" />
        </linearGradient>
        <linearGradient id="paint5_linear_24_16355" x1="379.915" y1="-336.446" x2="230.996"
            y2="-171.599" gradientUnits="userSpaceOnUse">
            <stop stop-color="#F88B2E" />
            <stop offset="1" stop-color="#E43125" stop-opacity="0.43" />
        </linearGradient>
        <linearGradient id="paint6_linear_24_16355" x1="396.716" y1="-328.401" x2="265.417"
            y2="-184.699" gradientUnits="userSpaceOnUse">
            <stop stop-color="#F88B2E" />
            <stop offset="1" stop-color="#E43125" stop-opacity="0.43" />
        </linearGradient>
        <linearGradient id="paint7_linear_24_16355" x1="472.089" y1="-275.327" x2="395.833"
            y2="-194.162" gradientUnits="userSpaceOnUse">
            <stop stop-color="#F88B2E" />
            <stop offset="1" stop-color="#E43125" stop-opacity="0.43" />
        </linearGradient>
        <linearGradient id="paint8_linear_24_16355" x1="170.663" y1="-431.296" x2="-199.092"
            y2="22.657" gradientUnits="userSpaceOnUse">
            <stop stop-color="#F88B2E" />
            <stop offset="1" stop-color="#E43125" stop-opacity="0.43" />
        </linearGradient>
        <linearGradient id="paint9_linear_24_16355" x1="112.887" y1="-452.416" x2="-322.194"
            y2="93.8371" gradientUnits="userSpaceOnUse">
            <stop stop-color="#F88B2E" />
            <stop offset="1" stop-color="#E43125" stop-opacity="0.43" />
        </linearGradient>
        <linearGradient id="paint10_linear_24_16355" x1="217.83" y1="-410.696" x2="-102.17"
            y2="-24.218" gradientUnits="userSpaceOnUse">
            <stop stop-color="#F88B2E" />
            <stop offset="1" stop-color="#E43125" stop-opacity="0.43" />
        </linearGradient>
        <linearGradient id="paint11_linear_24_16355" x1="249.617" y1="-395.168" x2="-38.8688"
            y2="-50.4212" gradientUnits="userSpaceOnUse">
            <stop stop-color="#F88B2E" />
            <stop offset="1" stop-color="#E43125" stop-opacity="0.43" />
        </linearGradient>
        <linearGradient id="paint12_linear_24_16355" x1="95.4734" y1="-457.802" x2="-360.287"
            y2="118.583" gradientUnits="userSpaceOnUse">
            <stop stop-color="#F88B2E" />
            <stop offset="1" stop-color="#E43125" stop-opacity="0.43" />
        </linearGradient>
        <linearGradient id="paint13_linear_24_16355" x1="70.5286" y1="-465.684" x2="-414.389"
            y2="153.597" gradientUnits="userSpaceOnUse">
            <stop stop-color="#F88B2E" />
            <stop offset="1" stop-color="#E43125" stop-opacity="0.43" />
        </linearGradient>
        <linearGradient id="paint14_linear_24_16355" x1="31.499" y1="-476.157" x2="-501.279"
            y2="214.395" gradientUnits="userSpaceOnUse">
            <stop stop-color="#F88B2E" />
            <stop offset="1" stop-color="#E43125" stop-opacity="0.43" />
        </linearGradient>
        <linearGradient id="paint15_linear_24_16355" x1="35.0131" y1="-482.676" x2="-484.107"
            y2="184.672" gradientUnits="userSpaceOnUse">
            <stop stop-color="#F88B2E" />
            <stop offset="1" stop-color="#E43125" stop-opacity="0.43" />
        </linearGradient>
        <clipPath id="clip0_24_16355">
            <rect width="1080" height="309" fill="white" transform="translate(-360)" />
        </clipPath>
    </defs>

    <g clip-path="url(#clip0_24_16355)">
        <path opacity="0.2"
            d="M-296.235 274.91L-361 236L-353 -34H814V96.5357C795.934 147.26 737.541 170.722 689.402 146.598L631.664 117.663C560.888 82.1946 474.737 109.254 436.951 178.82L412.387 224.043C358.5 323.252 218.567 329.878 155.546 236.205C97.6646 150.171 -27.8836 147.184 -89.791 230.369L-93.0771 234.784C-140.415 298.392 -228.269 315.744 -296.235 274.91Z"
            fill="url(#paint0_linear_24_16355)" />
        <path fill-rule="evenodd" clip-rule="evenodd"
            d="M-360 236.5L-306.393 265.342C-233.869 304.362 -144.011 288.169 -89.6695 226.287L-64.5851 197.721C-0.475952 124.715 115.441 132.412 169.335 213.253C231.794 306.941 371.906 299.109 423.535 199.045L442.079 163.105C475.572 98.1908 555.028 72.264 620.362 104.931L711.535 150.518C758.382 173.941 813.5 139.876 813.5 87.5V-40H-360V236.5ZM610.454 115.295C583.199 108.156 526.999 99.2979 504.476 132.167C478.619 169.901 573.419 155.85 613.405 129.977C620.025 125.694 618.081 117.293 610.454 115.295Z"
            fill="url(#paint1_linear_24_16355)" />
        <mask id="mask0_24_16355" style="mask-type:alpha" maskUnits="userSpaceOnUse" x="-360"
            y="-40" width="1174" height="327">
            <path fill-rule="evenodd" clip-rule="evenodd"
                d="M-360 236.5L-306.393 265.342C-233.869 304.362 -144.011 288.169 -89.6695 226.287L-64.5851 197.721C-0.475952 124.715 115.441 132.412 169.335 213.253C231.794 306.941 371.906 299.109 423.535 199.045L442.079 163.105C475.572 98.1908 555.028 72.264 620.362 104.931L711.535 150.518C758.382 173.941 813.5 139.876 813.5 87.5V-40H-360V236.5ZM610.454 115.295C583.199 108.156 526.999 99.2979 504.476 132.167C478.619 169.901 573.419 155.85 613.405 129.977C620.025 125.694 618.081 117.293 610.454 115.295Z"
                fill="#F16F3E" />
        </mask>
        <g mask="url(#mask0_24_16355)">
            <g opacity="0.6">
                <path
                    d="M579.788 85.6422C509.799 70.9478 443.3 46.533 377.991 19.3221C307.814 -9.08758 239.833 -42.2556 174.509 -79.9562C133.286 -104.238 93.6751 -130.458 66.1462 -170.708C45.5442 -198.947 35.9874 -233.962 39.1797 -269.51C43.9918 -317.27 70.4681 -353.585 107.051 -383.693C147.774 -417.424 191.305 -447.73 229.262 -484.839C246.012 -501.008 261.452 -518.469 275.426 -537.046L267.559 -545.835C236.148 -503.619 195.752 -470.098 153.088 -438.918C120.73 -415.314 86.5752 -393.811 59.6197 -363.499C42.3967 -344.985 29.7871 -322.758 22.8763 -298.732C15.9656 -274.707 14.9608 -249.602 19.9484 -225.58C29.542 -173.811 60.6115 -136.895 101.182 -106.917C141.753 -76.9383 187.377 -55.0297 233.09 -33.6944C306.796 1.35704 382.489 32.3869 459.846 59.2624C535.531 85.0196 612.368 106.117 694.226 106.065C734.867 106.553 775.535 99.1877 813.982 84.375C818.329 82.7097 822.601 80.8644 826.792 78.9276L821.014 72.4731C797.553 82.9126 772.905 90.1912 747.744 94.1098C690.628 103.101 635.107 97.4716 579.788 85.6422Z"
                    fill="url(#paint2_linear_24_16355)" />
                <path
                    d="M170.686 -411.299C144.999 -389.544 118.821 -368.338 97.8399 -341.806C63.3016 -298.192 55.9105 -251.586 77.8209 -202.266C94.0615 -164.94 123.09 -138.648 155.047 -115.224C208.941 -75.7327 268.058 -44.7931 328.46 -16.1584C412.804 23.7808 499.316 59.1404 592.084 78.1815C634.693 87.6249 678.717 90.7239 722.746 87.3795C753.966 84.6952 784.739 76.9537 813.844 64.462L807.083 56.9089C750.745 80.2928 692.14 83.1127 632.723 75.529C556.98 65.8202 486.165 40.8991 416.823 11.7732C363.473 -10.4106 311.785 -36.1157 262.09 -65.1766C209.504 -96.1086 158.879 -129.455 121.668 -179.179C101.494 -206.224 90.6776 -236.532 95.6178 -271.297C100.558 -306.062 119.185 -334.362 143.578 -359C178.551 -394.263 215.006 -427.966 249.604 -463.552C265.718 -480.014 280.545 -497.67 293.947 -516.355L284.851 -526.517C252.904 -482.502 212.191 -446.554 170.686 -411.299Z"
                    fill="url(#paint3_linear_24_16355)" />
                <path
                    d="M257.037 -416.116C231.191 -386.385 204.623 -357.079 185.385 -322.461C169.06 -295.619 163.186 -264.062 168.919 -234.008C175.793 -200.335 195.446 -174.638 217.763 -150.666C256.632 -109.353 303.946 -78.6499 352.975 -50.6361C394.472 -27.0094 437.756 -6.47814 482.487 10.7965C548.032 36.0647 614.822 54.8588 686.631 54.8967C721.433 55.2686 756.265 49.2467 789.381 37.1326L786.554 33.974C724.358 56.6645 661.595 55.1263 598.761 42.1907C546.609 30.9767 496.023 14.2341 447.851 -7.7557C394.252 -30.928 343.312 -59.4355 295.778 -92.859C254.301 -122.603 214.532 -154.371 190.376 -201.02C179.787 -220.352 174.876 -242.432 176.183 -264.834C178.491 -295.346 192 -321.786 209.329 -347.027C236.366 -386.647 269.847 -420.987 298.762 -458.99C306.01 -468.445 312.909 -478.002 319.515 -487.791L316.401 -491.27C298.114 -465.104 278.289 -440.007 257.037 -416.116Z"
                    fill="url(#paint4_linear_24_16355)" />
                <path
                    d="M317.855 -425.287C297.137 -395.776 275.177 -366.884 258.615 -334.744C239.394 -297.42 231.002 -259.318 244.779 -219.373C257.61 -182.211 281.891 -153.07 310.85 -128.2C400.142 -51.4632 503.062 0.212637 621.189 21.208C671.732 30.3868 721.25 29.0213 768.402 13.695L757.953 2.02187C714.235 14.288 668.677 16.5409 624.764 8.60838C547.681 -3.94072 477.915 -33.924 412.491 -74.3074C373.335 -97.4964 338.361 -126.857 308.865 -161.301C286.264 -188.565 269.495 -218.905 267.88 -255.718C266.359 -289.069 277.529 -319.847 293.625 -349.344C310.7 -380.624 331.091 -409.925 349.81 -440.039C351.531 -442.816 353.347 -445.678 354.884 -448.373L342.592 -462.107C334.687 -449.644 326.442 -437.371 317.855 -425.287Z"
                    fill="url(#paint5_linear_24_16355)" />
                <path
                    d="M344.28 -416.866C322.934 -383.165 301.178 -349.921 288.061 -312.206C280.479 -291.503 277.721 -269.531 279.999 -247.992C282.276 -226.452 289.53 -205.924 301.196 -187.996C328.637 -143.049 368.331 -110.885 411.463 -82.4574C461.594 -49.0976 516.888 -23.8136 575.412 -7.48981C623.594 5.8626 673.103 12.2561 723.464 4.44688C733.751 2.8333 743.945 0.539686 753.979 -2.41855L736.605 -21.8279L732.584 -20.9493C672.582 -8.46823 615.059 -17.0053 559.136 -36.1274C519.301 -49.7484 481.482 -68.2288 446.516 -91.1587C411.994 -112.786 381.631 -140.221 356.712 -172.302C323.696 -216.381 314.032 -264.872 332.055 -319.263C343.976 -354.67 362.74 -387.132 380.596 -419.937L360.108 -442.825C354.905 -433.963 349.634 -425.369 344.28 -416.866Z"
                    fill="url(#paint6_linear_24_16355)" />
                <path
                    d="M435.924 -332.997C424.458 -313.003 412.61 -293.245 406.207 -270.281C398.848 -243.493 403.686 -217.563 420.203 -192.109C439.097 -162.847 464.861 -140.971 492.374 -121.073C524.14 -98.25 559.078 -80.0015 596.211 -66.8373C625.107 -55.8128 656.243 -51.0198 687.622 -52.7655C693.8 -53.4152 699.941 -54.5035 705.998 -56.0221L694.443 -68.9312L692.058 -68.5272C655.861 -63.5018 620.204 -71.493 585.083 -85.983C559.759 -96.4375 535.77 -109.664 513.545 -125.428C491.25 -140.541 471.439 -158.924 454.747 -179.989C432.451 -208.927 424.286 -239.629 432.828 -272.672C439.18 -293.536 447.59 -313.799 457.933 -333.155L444.411 -348.262C441.714 -343.154 438.885 -338.066 435.924 -332.997Z"
                    fill="url(#paint7_linear_24_16355)" />
                <path
                    d="M118.977 -622.436C83.6982 -595.475 44.0721 -576.249 5.77891 -554.67C-39.0134 -529.418 -78.3894 -497.635 -106.614 -454.066C-121.898 -430.84 -133.965 -405.749 -142.471 -379.506C-154.191 -342.459 -161.91 -304.422 -165.494 -266.054C-171.085 -212.093 -169.686 -157.918 -161.332 -104.87C-153.097 -54.5232 -137.107 -6.83011 -102.313 31.3696C-76.9833 58.5445 -44.7446 78.4348 -8.73882 89.102C23.0647 98.2368 55.4872 105.372 88.3414 110.467C111.359 114.6 135.489 115.181 158.553 118.696C227.239 128.29 295.592 138.759 363.168 153.634C424.734 166.88 485.546 181.873 547.833 193.238C578.522 198.749 609.212 204.26 640.47 206.954C695.636 211.994 750.876 211.938 805.79 198.569C838.63 190.643 870.202 177.607 899.319 159.952L877.152 135.187C875.96 136.254 874.318 136.817 872.833 137.651C816.281 168.565 755.914 178.817 693.377 177.818C616.235 176.618 542.105 160.271 468.632 141.109C364.085 113.895 260.1 84.5285 154.12 62.1417C110.528 53.8971 67.816 42.1371 26.3998 26.9759C-52.0669 -3.71183 -95.9526 -62.715 -112.735 -144C-120.929 -183.284 -123.419 -223.755 -120.13 -264.195C-115.874 -318.715 -103.282 -371.213 -71.8645 -418.217C-49.8432 -450.47 -21.1517 -477.785 12.1748 -498.225C39.49 -515.666 68.5822 -530.163 96.8884 -546.018C134.18 -567.277 169.422 -591.402 196.058 -625.716L161.761 -664.031C149.321 -648.429 134.936 -634.443 118.977 -622.436Z"
                    fill="url(#paint8_linear_24_16355)" />
                <path
                    d="M49.7396 -682.329C12.649 -654.324 -28.6922 -632.985 -66.1859 -605.525C-114.66 -571.031 -153.304 -524.411 -177.97 -470.67C-202.294 -416.988 -214.859 -360.72 -224.076 -303.492C-231.62 -255.712 -236.413 -207.649 -238.429 -159.542C-241.726 -87.164 -238.342 -15.5716 -218.503 53.4947C-205.263 99.362 -184.891 141.401 -145.827 171.326C-122.61 188.593 -95.286 199.794 -66.2189 203.96C-18.8558 211.697 29.2782 210.416 77.3445 209.443C102.584 208.866 127.511 208.899 152.568 208.98C183.08 209.209 213.659 209.13 244.097 210.331C302.278 212.849 360.129 218.714 417.364 227.897C484.292 238.405 550.861 250.718 618.364 257.743C684.51 264.499 750.839 265.896 817.238 250.492C858.993 240.949 898.853 223.628 934.681 199.458L914.644 177.073C895.935 188.997 876.101 198.986 855.465 206.875C809.729 223.636 761.697 232.322 713.59 232.532C671.669 232.562 629.94 229.333 588.784 222.875C533.267 215.428 478.8 203.495 423.947 193.145C356.647 180.496 289.205 167.975 220.525 162.993C184.508 160.354 148.646 156.257 112.535 154.857C88.2544 153.915 63.9586 151.998 39.9756 149.472C-1.94865 145.029 -43.5292 137.806 -81.5401 119.224C-96.6152 111.274 -110.354 101.128 -122.322 89.1051C-159.205 53.8471 -177.162 8.65659 -187.747 -40.576C-199.498 -94.3719 -200.955 -149.137 -198.854 -204.53C-197.369 -256.09 -190.676 -307.578 -178.876 -358.215C-164.414 -418.407 -141.042 -474.783 -96.6557 -521.111C-67.9686 -549.975 -35.2999 -574.605 0.280004 -594.191C33.7766 -613.456 68.2708 -631.222 98.5621 -655.697C112.348 -666.722 124.78 -679.346 135.577 -693.283L100.338 -732.651C86.1288 -713.438 69.0529 -696.455 49.7396 -682.329Z"
                    fill="url(#paint9_linear_24_16355)" />
                <path
                    d="M120.915 -541.715C88.5243 -521.792 54.1505 -505.618 21.8623 -485.291C-35.1121 -449.382 -74.3274 -400.922 -92.4446 -336.469C-111.376 -269.871 -111.359 -200.068 -92.3962 -134.994C-70.637 -58.4111 -19.7447 -10.3796 53.6569 16.1842C117.113 39.1178 183.649 51.8731 248.59 69.8486C313.532 87.8242 380.09 106.743 446.007 124.753C507.961 141.693 570.322 157.361 634.797 164.457C671.042 168.939 707.814 169.576 744.504 166.357C788.362 162.307 831.253 149.193 870.419 127.858L864.559 121.312C854.548 126.617 844.292 131.422 833.831 135.707C779.407 157.872 722.83 162.67 665.825 159.028C606.252 154.535 547.55 143.916 490.649 127.34C412.1 105.384 333.984 81.8027 255.74 58.7489C189.453 39.1744 121.509 24.4631 57.4968 -1.6824C11.3788 -20.5934 -28.1992 -47.832 -53.9052 -91.0333C-92.0025 -154.888 -99.1553 -225.415 -87.0314 -299.345C-73.6315 -381.921 -27.2063 -442.276 45.9598 -483.692C70.6485 -497.545 95.2895 -511.356 119.807 -525.881C146.153 -540.383 170.466 -558.425 192.028 -579.478C199.995 -587.615 207.459 -596.223 214.374 -605.252L205.769 -614.866C182.081 -585.63 153.306 -560.824 120.915 -541.715Z"
                    fill="url(#paint10_linear_24_16355)" />
                <path
                    d="M158.88 -516.086C125.431 -492.165 88.2646 -474.316 53.9477 -451.843C20.6318 -430.267 -8.77145 -404.608 -29.0321 -369.981C-52.3462 -329.385 -63.259 -283.277 -60.3795 -237.534C-56.9638 -158.137 -25.1399 -94.769 42.1625 -52.1915C79.9493 -28.2967 122.06 -12.8075 164.571 1.49859C271.553 37.6655 377.514 75.5701 486.07 106.782C555.193 126.456 624.849 142.026 697.905 142.019C750.919 143.112 803.914 131.209 852.237 107.354L845.722 100.076C837.38 104.259 828.834 108 820.123 111.282C775.069 127.353 727.65 134.65 680.519 132.762C647.594 131.767 614.936 127.891 582.922 121.178C500.753 104.77 422.189 77.7148 344.081 49.9217C304.87 36.0418 265.993 21.2868 226.788 7.31844C184.856 -7.58815 143.222 -22.9276 102.879 -41.8131C66.0916 -57.7865 33.4049 -81.4278 6.94269 -111.201C-22.1921 -145.732 -39.2474 -188.989 -41.7894 -234.798C-44.9525 -273.565 -37.4481 -312.883 -20.076 -348.562C1.47325 -392.587 38.2754 -422.066 78.5805 -447.919C113.423 -470.284 150.328 -489.384 182.847 -515.688C204.667 -533.079 224.341 -553.016 241.416 -575.041L232.402 -585.112C211.45 -558.622 186.652 -535.341 158.88 -516.086Z"
                    fill="url(#paint11_linear_24_16355)" />
                <path
                    d="M25.3753 -698.038C-2.47339 -677.068 -32.0305 -658.774 -60.6377 -638.939C-93.8348 -616.677 -123.467 -589.429 -148.419 -558.221C-186.305 -509.714 -208.417 -454.136 -222.848 -396.116C-244.86 -304.471 -257.073 -211.14 -259.28 -117.708C-261.856 -58.8678 -257.448 -0.209547 -246.146 57.0473C-236.822 101.802 -223.294 144.442 -195.988 181.182C-178.028 205.889 -152.817 224.365 -123.611 234.224C-87.7505 246.568 -50.2374 246.466 -12.4876 244.998C57.4351 242.353 127.374 236.561 197.326 235.293C253.401 233.603 309.379 235.613 364.89 241.308C433.614 249.218 501.892 259.507 570.393 268.607C631.196 276.683 692.184 281.706 754.065 276.695C815.946 271.685 875.744 255.428 929.926 221.771C935.389 218.282 940.389 215.044 945.457 211.497L940.744 206.233L935.077 210.069C880.082 246.846 818.662 263.977 754.388 269.48C691.642 274.77 629.637 269.091 568.091 260.856C516.182 253.89 464.597 245.562 412.877 237.849C379.257 232.9 345.501 228.567 311.537 226.399C275.343 224.331 239.354 222.491 203.301 223.265C164.835 224.22 126.34 224.377 87.826 225.374C36.8421 226.733 -14.1719 230.839 -65.022 225.728C-132.299 219.051 -180.188 185.949 -208.688 126.422C-232.16 77.1801 -242.219 23.9313 -247.194 -30.7353C-251.822 -92.3219 -250.918 -154.417 -244.492 -216.285C-240.266 -267.736 -232.456 -318.974 -221.118 -369.63C-206.558 -432.877 -185.333 -493.186 -145.047 -546.397C-116.752 -583.845 -81.2513 -612.572 -42.5685 -638.127C-2.95245 -664.271 38.7475 -687.415 71.8049 -722.612C78.2929 -729.489 84.2696 -736.823 89.6841 -744.552L80.8334 -754.44C65.5582 -732.78 46.8065 -713.709 25.3753 -698.038Z"
                    fill="url(#paint12_linear_24_16355)" />
                <path
                    d="M5.11088 -732.091C-24.7297 -707.112 -56.8515 -684.874 -87.8736 -661.31C-118.879 -638.244 -146.418 -610.814 -169.572 -579.935C-205.562 -531.229 -226.407 -475.962 -242.141 -418.918C-250.422 -388.749 -256.302 -358.007 -261.746 -327.161C-274.239 -254.976 -282.422 -182.285 -286.253 -109.477C-290.185 -45.0291 -287.734 19.3929 -278.937 82.8538C-271.617 131.794 -259.746 179.298 -234.839 221.895C-214.224 257.203 -185.488 283.263 -144.726 295.424C-105.136 307.233 -64.8466 303.327 -24.7779 297.639C41.426 288.347 107.484 277.453 174.118 273.052C218.78 270.098 263.427 267.32 308.129 268.534C339.732 269.599 371.247 270.661 402.724 273.407C456.58 278.135 509.902 285.815 563.487 291.776C610.269 297.673 657.46 300.884 704.827 301.393C758.653 302.174 812.596 294.09 864.479 277.468C898.516 265.762 930.789 249.077 960.209 227.977L955.619 222.85C935.228 237.401 913.403 249.776 890.526 259.76C825.877 287.862 758.45 295.117 689.932 293.864C623.236 291.648 556.917 285.218 491.374 274.612C364.512 256.061 235.234 253.027 106.383 265.576C47.4351 271.177 -11.2672 281.753 -70.467 283.044C-104.079 283.86 -136.247 279.095 -165.439 262.596C-205.037 240.322 -228.141 204.439 -244.095 163.31C-264.804 109.864 -272.938 53.4906 -276.506 -3.91986C-280.656 -84.6042 -277.014 -165.809 -265.63 -246.424C-256.401 -317.928 -244.539 -388.985 -221.206 -458.354C-196.765 -534.655 -148.564 -602.061 -83.7535 -650.569C-51.3959 -674.75 -17.4804 -696.616 13.8729 -722.207C32.7245 -737.261 48.9585 -755.335 61.8627 -775.635L52.4794 -786.118C39.8358 -765.643 23.8092 -747.364 5.11088 -732.091Z"
                    fill="url(#paint13_linear_24_16355)" />
                <path
                    d="M-279.65 -429.457C-309.916 -297.773 -328.587 -164.157 -335.446 -30.1533C-339.652 38.0145 -337.066 106.158 -327.725 173.276C-318.976 230.337 -304.693 285.33 -270.902 332.673C-238.79 378.138 -194.475 404.435 -136.934 406.277C-92.6143 407.833 -49.6967 396.792 -7.32018 384.091C62.7848 362.425 134.261 346.166 206.459 335.463C293.062 323.912 380.276 321.312 466.695 327.706C540.352 332.686 613.7 341.158 687.8 342.03C728.35 342.848 769.037 339.987 809.362 333.483C873.366 323.322 934.351 297.118 986.515 257.366L981.926 252.239C942.281 282.726 897.076 305.001 849.129 317.676C771.644 338.056 693.991 337.148 616.223 331.891C557.288 327.915 498.561 321.775 439.627 317.799C362.228 312.54 284.191 314.894 206.641 324.829C151.636 331.784 97.0014 342.293 43.0865 356.287C-0.709958 367.785 -44.1351 381.425 -89.0161 387.874C-154.116 397.25 -210.373 382.55 -253.052 332.856C-276.938 303.555 -294.365 269.464 -304.266 232.671C-317.143 186.774 -324.753 139.376 -326.951 91.3662C-330.817 22.5987 -329.448 -46.57 -322.855 -115.551C-316.84 -184.507 -307.102 -253.333 -295.079 -321.813C-281.17 -401.134 -264.983 -480.597 -230.559 -555.606C-200.083 -621.886 -153.32 -674.958 -97.6086 -721.199C-73.2128 -740.864 -50.0718 -762.046 -28.3335 -784.609C-28.2113 -784.759 -28.0665 -784.888 -27.9045 -784.993L-189.392 -640.444C-236.843 -577.109 -262.517 -504.985 -279.65 -429.457Z"
                    fill="url(#paint14_linear_24_16355)" />
                <path
                    d="M-44.7495 -750.291C-74.4922 -723.668 -106.516 -699.786 -135.528 -672.25C-175.291 -634.287 -207.152 -588.932 -229.151 -538.974C-250.131 -490.679 -265.594 -440.376 -275.241 -389.043C-299.672 -268.724 -316.861 -147.796 -320.058 -25.6227C-322.005 30.2645 -319.221 86.0265 -311.736 141.072C-304.035 194.371 -291.578 245.886 -263.284 291.883C-233.603 340.101 -191.371 368.674 -132.723 372.329C-99.6975 373.401 -66.4981 369.606 -34.197 361.067C22.7015 347.901 78.9828 332.319 136.596 323.212C213.808 310.43 291.738 304.529 369.45 305.581C441.458 307.089 512.659 315.752 584.129 322.029C658.033 328.437 731.933 331.962 806.491 319.726C868.126 310.059 926.926 285.111 977.418 247.203L973.73 243.083C971.681 244.918 969.303 246.386 967.049 247.992C903.598 293.739 832.283 314.203 756.468 320.143C680.652 326.083 604.475 318 529.001 310.606C466.191 304.411 403.515 297.599 339.977 297.497C238.926 297.41 137.727 308.49 38.2351 330.534C-10.9007 341.534 -59.9227 355.73 -110.648 356.61C-158.537 357.589 -200.013 343.098 -232.367 308.486C-266.914 271.714 -284.026 225.933 -295.203 177.477C-314.415 94.2449 -315.705 9.06979 -311.63 -76.5377C-307.912 -144.88 -300.466 -213.119 -289.326 -280.953C-279.565 -343.039 -268.882 -404.959 -250.173 -465.49C-235.402 -516.557 -212.043 -565.076 -181.11 -608.939C-147.251 -655.325 -102.827 -690.389 -58.5203 -725.679C-29.9993 -748.488 -2.1205 -772.206 17.6334 -803.657C20.0752 -807.74 22.8029 -812.078 25.4763 -816.285L17.2812 -825.44C2.40665 -795.635 -20.2976 -772.179 -44.7495 -750.291Z"
                    fill="url(#paint15_linear_24_16355)" />
            </g>
        </g>
    </g>
</svg>
