<svg width="360" height="309" viewBox="0 0 360 309" fill="none" xmlns="http://www.w3.org/2000/svg">
    <defs>
        <linearGradient id="paint0_linear_24_17190" x1="-721" y1="-34" x2="-389.708" y2="783.791"
            gradientUnits="userSpaceOnUse">
            <stop offset="0.02" stop-color="#F9A947" />
            <stop offset="1" stop-color="#EA4537" />
        </linearGradient>
        <linearGradient id="paint1_linear_24_17190" x1="-720" y1="-40" x2="-551.405" y2="566.027"
            gradientUnits="userSpaceOnUse">
            <stop offset="0.02" stop-color="#F9A947" />
            <stop offset="1" stop-color="#EA4537" />
        </linearGradient>
        <linearGradient id="paint2_linear_24_17190" x1="-61.8326" y1="-369.127" x2="-305.209"
            y2="-82.9284" gradientUnits="userSpaceOnUse">
            <stop stop-color="#F88B2E" />
            <stop offset="1" stop-color="#E43125" stop-opacity="0.43" />
        </linearGradient>
        <linearGradient id="paint3_linear_24_17190" x1="-40.4285" y1="-360.004" x2="-260.375"
            y2="-104.685" gradientUnits="userSpaceOnUse">
            <stop stop-color="#F88B2E" />
            <stop offset="1" stop-color="#E43125" stop-opacity="0.43" />
        </linearGradient>
        <linearGradient id="paint4_linear_24_17190" x1="-6.21054" y1="-348.066" x2="-184.09"
            y2="-147.474" gradientUnits="userSpaceOnUse">
            <stop stop-color="#F88B2E" />
            <stop offset="1" stop-color="#E43125" stop-opacity="0.43" />
        </linearGradient>
        <linearGradient id="paint5_linear_24_17190" x1="19.915" y1="-336.446" x2="-129.004"
            y2="-171.599" gradientUnits="userSpaceOnUse">
            <stop stop-color="#F88B2E" />
            <stop offset="1" stop-color="#E43125" stop-opacity="0.43" />
        </linearGradient>
        <linearGradient id="paint6_linear_24_17190" x1="36.7158" y1="-328.401" x2="-94.5828"
            y2="-184.699" gradientUnits="userSpaceOnUse">
            <stop stop-color="#F88B2E" />
            <stop offset="1" stop-color="#E43125" stop-opacity="0.43" />
        </linearGradient>
        <linearGradient id="paint7_linear_24_17190" x1="112.089" y1="-275.327" x2="35.8332"
            y2="-194.162" gradientUnits="userSpaceOnUse">
            <stop stop-color="#F88B2E" />
            <stop offset="1" stop-color="#E43125" stop-opacity="0.43" />
        </linearGradient>
        <linearGradient id="paint8_linear_24_17190" x1="-189.337" y1="-431.296" x2="-559.092"
            y2="22.657" gradientUnits="userSpaceOnUse">
            <stop stop-color="#F88B2E" />
            <stop offset="1" stop-color="#E43125" stop-opacity="0.43" />
        </linearGradient>
        <linearGradient id="paint9_linear_24_17190" x1="-247.113" y1="-452.416" x2="-682.194"
            y2="93.8371" gradientUnits="userSpaceOnUse">
            <stop stop-color="#F88B2E" />
            <stop offset="1" stop-color="#E43125" stop-opacity="0.43" />
        </linearGradient>
        <linearGradient id="paint10_linear_24_17190" x1="-142.17" y1="-410.696" x2="-462.17"
            y2="-24.218" gradientUnits="userSpaceOnUse">
            <stop stop-color="#F88B2E" />
            <stop offset="1" stop-color="#E43125" stop-opacity="0.43" />
        </linearGradient>
        <linearGradient id="paint11_linear_24_17190" x1="-110.383" y1="-395.168" x2="-398.869"
            y2="-50.4212" gradientUnits="userSpaceOnUse">
            <stop stop-color="#F88B2E" />
            <stop offset="1" stop-color="#E43125" stop-opacity="0.43" />
        </linearGradient>
        <linearGradient id="paint12_linear_24_17190" x1="-264.527" y1="-457.802" x2="-720.287"
            y2="118.583" gradientUnits="userSpaceOnUse">
            <stop stop-color="#F88B2E" />
            <stop offset="1" stop-color="#E43125" stop-opacity="0.43" />
        </linearGradient>
        <linearGradient id="paint13_linear_24_17190" x1="-289.471" y1="-465.684" x2="-774.389"
            y2="153.597" gradientUnits="userSpaceOnUse">
            <stop stop-color="#F88B2E" />
            <stop offset="1" stop-color="#E43125" stop-opacity="0.43" />
        </linearGradient>
        <linearGradient id="paint14_linear_24_17190" x1="-328.501" y1="-476.157" x2="-861.279"
            y2="214.395" gradientUnits="userSpaceOnUse">
            <stop stop-color="#F88B2E" />
            <stop offset="1" stop-color="#E43125" stop-opacity="0.43" />
        </linearGradient>
        <linearGradient id="paint15_linear_24_17190" x1="-324.987" y1="-482.676" x2="-844.107"
            y2="184.672" gradientUnits="userSpaceOnUse">
            <stop stop-color="#F88B2E" />
            <stop offset="1" stop-color="#E43125" stop-opacity="0.43" />
        </linearGradient>
        <clipPath id="clip0_24_17190">
            <rect width="1080" height="309" fill="white" transform="translate(-720)" />
        </clipPath>
    </defs>

    <g clip-path="url(#clip0_24_17190)">
        <path opacity="0.2"
            d="M-656.235 274.91L-721 236L-713 -34H454V96.5357C435.934 147.26 377.541 170.722 329.402 146.598L271.664 117.663C200.888 82.1946 114.737 109.254 76.9505 178.82L52.3871 224.043C-1.50006 323.252 -141.433 329.878 -204.454 236.205C-262.335 150.171 -387.884 147.184 -449.791 230.369L-453.077 234.784C-500.415 298.392 -588.269 315.744 -656.235 274.91Z"
            fill="url(#paint0_linear_24_17190)" />
        <path fill-rule="evenodd" clip-rule="evenodd"
            d="M-720 236.5L-666.393 265.342C-593.869 304.362 -504.011 288.169 -449.67 226.287L-424.585 197.721C-360.476 124.715 -244.559 132.412 -190.665 213.253C-128.206 306.941 11.9063 299.109 63.5352 199.045L82.0789 163.105C115.572 98.1908 195.028 72.264 260.362 104.931L351.535 150.518C398.382 173.941 453.5 139.876 453.5 87.5V-40H-720V236.5ZM250.454 115.295C223.199 108.156 166.999 99.2979 144.476 132.167C118.619 169.901 213.419 155.85 253.405 129.977C260.025 125.694 258.081 117.293 250.454 115.295Z"
            fill="url(#paint1_linear_24_17190)" />
        <mask id="mask0_24_17190" style="mask-type:alpha" maskUnits="userSpaceOnUse" x="-720"
            y="-40" width="1174" height="327">
            <path fill-rule="evenodd" clip-rule="evenodd"
                d="M-720 236.5L-666.393 265.342C-593.869 304.362 -504.011 288.169 -449.67 226.287L-424.585 197.721C-360.476 124.715 -244.559 132.412 -190.665 213.253C-128.206 306.941 11.9063 299.109 63.5352 199.045L82.0789 163.105C115.572 98.1908 195.028 72.264 260.362 104.931L351.535 150.518C398.382 173.941 453.5 139.876 453.5 87.5V-40H-720V236.5ZM250.454 115.295C223.199 108.156 166.999 99.2979 144.476 132.167C118.619 169.901 213.419 155.85 253.405 129.977C260.025 125.694 258.081 117.293 250.454 115.295Z"
                fill="#F16F3E" />
        </mask>
        <g mask="url(#mask0_24_17190)">
            <g opacity="0.6">
                <path
                    d="M219.788 85.6422C149.799 70.9478 83.3004 46.533 17.9908 19.3221C-52.1857 -9.08758 -120.167 -42.2556 -185.491 -79.9562C-226.714 -104.238 -266.325 -130.458 -293.854 -170.708C-314.456 -198.947 -324.013 -233.962 -320.82 -269.51C-316.008 -317.27 -289.532 -353.585 -252.949 -383.693C-212.226 -417.424 -168.695 -447.73 -130.738 -484.839C-113.988 -501.008 -98.5481 -518.469 -84.5741 -537.046L-92.4414 -545.835C-123.852 -503.619 -164.248 -470.098 -206.912 -438.918C-239.27 -415.314 -273.425 -393.811 -300.38 -363.499C-317.603 -344.985 -330.213 -322.758 -337.124 -298.732C-344.034 -274.707 -345.039 -249.602 -340.052 -225.58C-330.458 -173.811 -299.389 -136.895 -258.818 -106.917C-218.247 -76.9383 -172.623 -55.0297 -126.91 -33.6944C-53.2041 1.35704 22.489 32.3869 99.846 59.2624C175.531 85.0196 252.367 106.117 334.226 106.065C374.867 106.553 415.535 99.1877 453.982 84.375C458.329 82.7097 462.601 80.8644 466.792 78.9276L461.014 72.4731C437.553 82.9126 412.905 90.1912 387.744 94.1098C330.628 103.101 275.107 97.4716 219.788 85.6422Z"
                    fill="url(#paint2_linear_24_17190)" />
                <path
                    d="M-189.314 -411.299C-215.001 -389.544 -241.179 -368.338 -262.16 -341.806C-296.698 -298.192 -304.089 -251.586 -282.179 -202.266C-265.938 -164.94 -236.91 -138.648 -204.953 -115.224C-151.059 -75.7327 -91.9422 -44.7931 -31.5396 -16.1584C52.8042 23.7808 139.316 59.1404 232.084 78.1815C274.693 87.6249 318.717 90.7239 362.746 87.3795C393.966 84.6952 424.739 76.9537 453.844 64.462L447.083 56.9089C390.745 80.2928 332.14 83.1127 272.723 75.529C196.98 65.8202 126.165 40.8991 56.823 11.7732C3.47337 -10.4106 -48.2155 -36.1157 -97.9105 -65.1766C-150.496 -96.1086 -201.121 -129.455 -238.332 -179.179C-258.506 -206.224 -269.322 -236.532 -264.382 -271.297C-259.442 -306.062 -240.815 -334.362 -216.422 -359C-181.449 -394.263 -144.994 -427.966 -110.396 -463.552C-94.2822 -480.014 -79.4547 -497.67 -66.0529 -516.355L-75.1494 -526.517C-107.096 -482.502 -147.809 -446.554 -189.314 -411.299Z"
                    fill="url(#paint3_linear_24_17190)" />
                <path
                    d="M-102.964 -416.116C-128.809 -386.385 -155.377 -357.079 -174.615 -322.461C-190.94 -295.619 -196.814 -264.062 -191.081 -234.008C-184.207 -200.335 -164.554 -174.638 -142.237 -150.666C-103.368 -109.353 -56.0536 -78.6499 -7.02458 -50.6361C34.472 -27.0094 77.7556 -6.47814 122.486 10.7965C188.032 36.0647 254.822 54.8588 326.631 54.8967C361.433 55.2686 396.265 49.2467 429.381 37.1326L426.554 33.974C364.358 56.6645 301.595 55.1263 238.761 42.1907C186.609 30.9767 136.023 14.2341 87.8507 -7.7557C34.2523 -30.928 -16.6882 -59.4355 -64.222 -92.859C-105.699 -122.603 -145.468 -154.371 -169.624 -201.02C-180.213 -220.352 -185.124 -242.432 -183.817 -264.834C-181.509 -295.346 -168 -321.786 -150.671 -347.027C-123.634 -386.647 -90.1526 -420.987 -61.2378 -458.99C-53.9903 -468.445 -47.0907 -478.002 -40.4846 -487.791L-43.5987 -491.27C-61.8863 -465.104 -81.7111 -440.007 -102.964 -416.116Z"
                    fill="url(#paint4_linear_24_17190)" />
                <path
                    d="M-42.1452 -425.287C-62.8633 -395.776 -84.8232 -366.884 -101.385 -334.744C-120.606 -297.42 -128.998 -259.318 -115.221 -219.373C-102.39 -182.211 -78.1092 -153.07 -49.1505 -128.2C40.1424 -51.4632 143.062 0.212637 261.189 21.208C311.732 30.3868 361.25 29.0213 408.402 13.695L397.953 2.02187C354.235 14.288 308.677 16.5409 264.764 8.60838C187.681 -3.94072 117.915 -33.924 52.4908 -74.3074C13.3347 -97.4964 -21.6393 -126.857 -51.1351 -161.301C-73.736 -188.565 -90.5051 -218.905 -92.1201 -255.718C-93.6415 -289.069 -82.4706 -319.847 -66.3751 -349.344C-49.3004 -380.624 -28.9093 -409.925 -10.1897 -440.039C-8.4688 -442.816 -6.65253 -445.678 -5.11557 -448.373L-17.4082 -462.107C-25.3127 -449.644 -33.5583 -437.371 -42.1452 -425.287Z"
                    fill="url(#paint5_linear_24_17190)" />
                <path
                    d="M-15.7196 -416.866C-37.0657 -383.165 -58.8215 -349.921 -71.9391 -312.206C-79.5206 -291.503 -82.2793 -269.531 -80.0014 -247.992C-77.7235 -226.452 -70.4703 -205.924 -58.8036 -187.996C-31.3633 -143.049 8.3309 -110.885 51.4628 -82.4574C101.594 -49.0976 156.888 -23.8136 215.412 -7.48981C263.594 5.8626 313.103 12.2561 363.464 4.44688C373.751 2.8333 383.945 0.539686 393.979 -2.41855L376.605 -21.8279L372.584 -20.9493C312.582 -8.46823 255.059 -17.0053 199.136 -36.1274C159.301 -49.7484 121.482 -68.2288 86.5157 -91.1587C51.9937 -112.786 21.6311 -140.221 -3.28808 -172.302C-36.3043 -216.381 -45.9681 -264.872 -27.9453 -319.263C-16.0243 -354.67 2.73952 -387.132 20.5961 -419.937L0.108337 -442.825C-5.0946 -433.963 -10.3661 -425.369 -15.7196 -416.866Z"
                    fill="url(#paint6_linear_24_17190)" />
                <path
                    d="M75.9244 -332.997C64.4582 -313.003 52.6099 -293.245 46.2071 -270.281C38.8485 -243.493 43.6862 -217.563 60.2027 -192.109C79.0975 -162.847 104.861 -140.971 132.374 -121.073C164.14 -98.25 199.078 -80.0015 236.211 -66.8373C265.107 -55.8128 296.243 -51.0198 327.622 -52.7655C333.8 -53.4152 339.941 -54.5035 345.998 -56.0221L334.443 -68.9312L332.058 -68.5272C295.861 -63.5018 260.204 -71.493 225.083 -85.983C199.759 -96.4375 175.77 -109.664 153.545 -125.428C131.25 -140.541 111.439 -158.924 94.7473 -179.989C72.4508 -208.927 64.2857 -239.629 72.8283 -272.672C79.1795 -293.536 87.5897 -313.799 97.933 -333.155L84.4111 -348.262C81.7141 -343.154 78.8851 -338.066 75.9244 -332.997Z"
                    fill="url(#paint7_linear_24_17190)" />
                <path
                    d="M-241.023 -622.436C-276.302 -595.475 -315.928 -576.249 -354.221 -554.67C-399.013 -529.418 -438.389 -497.635 -466.614 -454.066C-481.898 -430.84 -493.965 -405.749 -502.471 -379.506C-514.191 -342.459 -521.91 -304.422 -525.494 -266.054C-531.085 -212.093 -529.686 -157.918 -521.332 -104.87C-513.097 -54.5232 -497.107 -6.83011 -462.313 31.3696C-436.983 58.5445 -404.745 78.4348 -368.739 89.102C-336.935 98.2368 -304.513 105.372 -271.659 110.467C-248.641 114.6 -224.511 115.181 -201.447 118.696C-132.761 128.29 -64.408 138.759 3.16763 153.634C64.7341 166.88 125.546 181.873 187.833 193.238C218.522 198.749 249.212 204.26 280.47 206.954C335.636 211.994 390.876 211.938 445.79 198.569C478.63 190.643 510.202 177.607 539.319 159.952L517.152 135.187C515.96 136.254 514.318 136.817 512.833 137.651C456.281 168.565 395.914 178.817 333.377 177.818C256.235 176.618 182.105 160.271 108.632 141.109C4.08466 113.895 -99.9003 84.5285 -205.88 62.1417C-249.472 53.8971 -292.184 42.1371 -333.6 26.9759C-412.067 -3.71183 -455.953 -62.715 -472.735 -144C-480.929 -183.284 -483.419 -223.755 -480.13 -264.195C-475.874 -318.715 -463.282 -371.213 -431.865 -418.217C-409.843 -450.47 -381.152 -477.785 -347.825 -498.225C-320.51 -515.666 -291.418 -530.163 -263.112 -546.018C-225.82 -567.277 -190.578 -591.402 -163.942 -625.716L-198.239 -664.031C-210.679 -648.429 -225.064 -634.443 -241.023 -622.436Z"
                    fill="url(#paint8_linear_24_17190)" />
                <path
                    d="M-310.26 -682.329C-347.351 -654.324 -388.692 -632.985 -426.186 -605.525C-474.66 -571.031 -513.304 -524.411 -537.97 -470.67C-562.294 -416.988 -574.859 -360.72 -584.076 -303.492C-591.62 -255.712 -596.413 -207.649 -598.429 -159.542C-601.726 -87.164 -598.342 -15.5716 -578.503 53.4947C-565.263 99.362 -544.891 141.401 -505.827 171.326C-482.61 188.593 -455.286 199.794 -426.219 203.96C-378.856 211.697 -330.722 210.416 -282.656 209.443C-257.416 208.866 -232.489 208.899 -207.432 208.98C-176.92 209.209 -146.341 209.13 -115.903 210.331C-57.7225 212.849 0.12921 218.714 57.3636 227.897C124.292 238.405 190.861 250.718 258.364 257.743C324.51 264.499 390.839 265.896 457.238 250.492C498.993 240.949 538.853 223.628 574.681 199.458L554.644 177.073C535.935 188.997 516.101 198.986 495.465 206.875C449.729 223.636 401.697 232.322 353.59 232.532C311.669 232.562 269.94 229.333 228.784 222.875C173.267 215.428 118.8 203.495 63.9469 193.145C-3.35268 180.496 -70.7952 167.975 -139.475 162.993C-175.492 160.354 -211.354 156.257 -247.465 154.857C-271.746 153.915 -296.041 151.998 -320.024 149.472C-361.949 145.029 -403.529 137.806 -441.54 119.224C-456.615 111.274 -470.354 101.128 -482.322 89.1051C-519.205 53.8471 -537.162 8.65659 -547.747 -40.576C-559.498 -94.3719 -560.955 -149.137 -558.854 -204.53C-557.369 -256.09 -550.676 -307.578 -538.876 -358.215C-524.414 -418.407 -501.042 -474.783 -456.656 -521.111C-427.969 -549.975 -395.3 -574.605 -359.72 -594.191C-326.223 -613.456 -291.729 -631.222 -261.438 -655.697C-247.652 -666.722 -235.22 -679.346 -224.423 -693.283L-259.662 -732.651C-273.871 -713.438 -290.947 -696.455 -310.26 -682.329Z"
                    fill="url(#paint9_linear_24_17190)" />
                <path
                    d="M-239.085 -541.715C-271.476 -521.792 -305.849 -505.618 -338.138 -485.291C-395.112 -449.382 -434.327 -400.922 -452.445 -336.469C-471.376 -269.871 -471.359 -200.068 -452.396 -134.994C-430.637 -58.4111 -379.745 -10.3796 -306.343 16.1842C-242.887 39.1178 -176.351 51.8731 -111.41 69.8486C-46.4683 87.8242 20.0905 106.743 86.0071 124.753C147.961 141.693 210.322 157.361 274.797 164.457C311.042 168.939 347.814 169.576 384.504 166.357C428.362 162.307 471.253 149.193 510.419 127.858L504.559 121.312C494.548 126.617 484.292 131.422 473.831 135.707C419.407 157.872 362.83 162.67 305.825 159.028C246.252 154.535 187.55 143.916 130.649 127.34C52.0996 105.384 -26.0159 81.8027 -104.26 58.7489C-170.547 39.1744 -238.491 24.4631 -302.503 -1.6824C-348.621 -20.5934 -388.199 -47.832 -413.905 -91.0333C-452.003 -154.888 -459.155 -225.415 -447.031 -299.345C-433.632 -381.921 -387.206 -442.276 -314.04 -483.692C-289.352 -497.545 -264.711 -511.356 -240.193 -525.881C-213.847 -540.383 -189.534 -558.425 -167.972 -579.478C-160.005 -587.615 -152.541 -596.223 -145.626 -605.252L-154.231 -614.866C-177.919 -585.63 -206.694 -560.824 -239.085 -541.715Z"
                    fill="url(#paint10_linear_24_17190)" />
                <path
                    d="M-201.12 -516.086C-234.569 -492.165 -271.735 -474.316 -306.052 -451.843C-339.368 -430.267 -368.771 -404.608 -389.032 -369.981C-412.346 -329.385 -423.259 -283.277 -420.38 -237.534C-416.964 -158.137 -385.14 -94.769 -317.838 -52.1915C-280.051 -28.2967 -237.94 -12.8075 -195.429 1.49859C-88.4473 37.6655 17.5138 75.5701 126.07 106.782C195.193 126.456 264.849 142.026 337.905 142.019C390.919 143.112 443.914 131.209 492.237 107.354L485.722 100.076C477.38 104.259 468.834 108 460.123 111.282C415.069 127.353 367.65 134.65 320.519 132.762C287.594 131.767 254.936 127.891 222.922 121.178C140.753 104.77 62.1892 77.7148 -15.9187 49.9217C-55.1295 36.0418 -94.0075 21.2868 -133.212 7.31844C-175.144 -7.58815 -216.778 -22.9276 -257.121 -41.8131C-293.908 -57.7865 -326.595 -81.4278 -353.057 -111.201C-382.192 -145.732 -399.247 -188.989 -401.789 -234.798C-404.952 -273.565 -397.448 -312.883 -380.076 -348.562C-358.527 -392.587 -321.725 -422.066 -281.42 -447.919C-246.577 -470.284 -209.672 -489.384 -177.153 -515.688C-155.333 -533.079 -135.659 -553.016 -118.584 -575.041L-127.598 -585.112C-148.55 -558.622 -173.348 -535.341 -201.12 -516.086Z"
                    fill="url(#paint11_linear_24_17190)" />
                <path
                    d="M-334.625 -698.038C-362.473 -677.068 -392.031 -658.774 -420.638 -638.939C-453.835 -616.677 -483.467 -589.429 -508.419 -558.221C-546.305 -509.714 -568.417 -454.136 -582.848 -396.116C-604.86 -304.471 -617.073 -211.14 -619.28 -117.708C-621.856 -58.8678 -617.448 -0.209547 -606.146 57.0473C-596.822 101.802 -583.294 144.442 -555.988 181.182C-538.028 205.889 -512.817 224.365 -483.611 234.224C-447.751 246.568 -410.237 246.466 -372.488 244.998C-302.565 242.353 -232.626 236.561 -162.674 235.293C-106.599 233.603 -50.6215 235.613 4.8897 241.308C73.6142 249.218 141.892 259.507 210.393 268.607C271.196 276.683 332.184 281.706 394.065 276.695C455.946 271.685 515.744 255.428 569.926 221.771C575.389 218.282 580.389 215.044 585.457 211.497L580.744 206.233L575.077 210.069C520.082 246.846 458.662 263.977 394.388 269.48C331.642 274.77 269.637 269.091 208.091 260.856C156.182 253.89 104.597 245.562 52.8774 237.849C19.2568 232.9 -14.4992 228.567 -48.4634 226.399C-84.6569 224.331 -120.646 222.491 -156.699 223.265C-195.165 224.22 -233.66 224.377 -272.174 225.374C-323.158 226.733 -374.172 230.839 -425.022 225.728C-492.299 219.051 -540.188 185.949 -568.688 126.422C-592.16 77.1801 -602.219 23.9313 -607.194 -30.7353C-611.822 -92.3219 -610.918 -154.417 -604.492 -216.285C-600.266 -267.736 -592.456 -318.974 -581.118 -369.63C-566.558 -432.877 -545.333 -493.186 -505.047 -546.397C-476.752 -583.845 -441.251 -612.572 -402.568 -638.127C-362.952 -664.271 -321.253 -687.415 -288.195 -722.612C-281.707 -729.489 -275.73 -736.823 -270.316 -744.552L-279.167 -754.44C-294.442 -732.78 -313.193 -713.709 -334.625 -698.038Z"
                    fill="url(#paint12_linear_24_17190)" />
                <path
                    d="M-354.889 -732.091C-384.73 -707.112 -416.852 -684.874 -447.874 -661.31C-478.879 -638.244 -506.418 -610.814 -529.572 -579.935C-565.562 -531.229 -586.407 -475.962 -602.141 -418.918C-610.422 -388.749 -616.302 -358.007 -621.746 -327.161C-634.239 -254.976 -642.422 -182.285 -646.253 -109.477C-650.185 -45.0291 -647.734 19.3929 -638.937 82.8538C-631.618 131.794 -619.746 179.298 -594.839 221.895C-574.224 257.203 -545.488 283.263 -504.726 295.424C-465.136 307.233 -424.847 303.327 -384.778 297.639C-318.574 288.347 -252.516 277.453 -185.882 273.052C-141.22 270.098 -96.5727 267.32 -51.8713 268.534C-20.2678 269.599 11.2471 270.661 42.7235 273.407C96.5799 278.135 149.902 285.815 203.487 291.776C250.269 297.673 297.46 300.884 344.827 301.393C398.653 302.174 452.596 294.09 504.479 277.468C538.516 265.762 570.789 249.077 600.209 227.977L595.619 222.85C575.228 237.401 553.403 249.776 530.526 259.76C465.877 287.862 398.449 295.117 329.932 293.864C263.236 291.648 196.917 285.218 131.374 274.612C4.51192 256.061 -124.766 253.027 -253.617 265.576C-312.565 271.177 -371.267 281.753 -430.467 283.044C-464.079 283.86 -496.247 279.095 -525.439 262.596C-565.037 240.322 -588.141 204.439 -604.095 163.31C-624.804 109.864 -632.939 53.4906 -636.506 -3.91986C-640.656 -84.6042 -637.014 -165.809 -625.631 -246.424C-616.401 -317.928 -604.539 -388.985 -581.206 -458.354C-556.765 -534.655 -508.564 -602.061 -443.753 -650.569C-411.396 -674.75 -377.48 -696.616 -346.127 -722.207C-327.276 -737.261 -311.042 -755.335 -298.137 -775.635L-307.521 -786.118C-320.164 -765.643 -336.191 -747.364 -354.889 -732.091Z"
                    fill="url(#paint13_linear_24_17190)" />
                <path
                    d="M-639.65 -429.457C-669.916 -297.773 -688.587 -164.157 -695.446 -30.1533C-699.652 38.0145 -697.066 106.158 -687.725 173.276C-678.976 230.337 -664.693 285.33 -630.902 332.673C-598.79 378.138 -554.475 404.435 -496.934 406.277C-452.614 407.833 -409.697 396.792 -367.32 384.091C-297.215 362.425 -225.739 346.166 -153.541 335.463C-66.9378 323.912 20.2762 321.312 106.695 327.706C180.352 332.686 253.7 341.158 327.8 342.03C368.35 342.848 409.037 339.987 449.362 333.483C513.366 323.322 574.351 297.118 626.515 257.366L621.926 252.239C582.281 282.726 537.076 305.001 489.129 317.676C411.644 338.056 333.991 337.148 256.223 331.891C197.288 327.915 138.561 321.775 79.6265 317.799C2.22757 312.54 -75.8094 314.894 -153.359 324.829C-208.364 331.784 -262.999 342.293 -316.914 356.287C-360.71 367.785 -404.135 381.425 -449.016 387.874C-514.116 397.25 -570.373 382.55 -613.052 332.856C-636.938 303.555 -654.365 269.464 -664.266 232.671C-677.143 186.774 -684.753 139.376 -686.951 91.3662C-690.817 22.5987 -689.448 -46.57 -682.855 -115.551C-676.84 -184.507 -667.102 -253.333 -655.079 -321.813C-641.17 -401.134 -624.983 -480.597 -590.559 -555.606C-560.083 -621.886 -513.32 -674.958 -457.609 -721.199C-433.213 -740.864 -410.072 -762.046 -388.334 -784.609C-388.211 -784.759 -388.066 -784.888 -387.905 -784.993L-549.392 -640.444C-596.843 -577.109 -622.517 -504.985 -639.65 -429.457Z"
                    fill="url(#paint14_linear_24_17190)" />
                <path
                    d="M-404.749 -750.291C-434.492 -723.668 -466.516 -699.786 -495.528 -672.25C-535.291 -634.287 -567.152 -588.932 -589.151 -538.974C-610.131 -490.679 -625.594 -440.376 -635.241 -389.043C-659.672 -268.724 -676.861 -147.796 -680.058 -25.6227C-682.005 30.2645 -679.221 86.0265 -671.736 141.072C-664.035 194.371 -651.578 245.886 -623.284 291.883C-593.603 340.101 -551.371 368.674 -492.723 372.329C-459.697 373.401 -426.498 369.606 -394.197 361.067C-337.299 347.901 -281.017 332.319 -223.404 323.212C-146.192 310.43 -68.262 304.529 9.45001 305.581C81.4584 307.089 152.659 315.752 224.129 322.029C298.033 328.437 371.933 331.962 446.491 319.726C508.126 310.059 566.926 285.111 617.418 247.203L613.73 243.083C611.681 244.918 609.303 246.386 607.049 247.992C543.598 293.739 472.283 314.203 396.468 320.143C320.652 326.083 244.475 318 169.001 310.606C106.191 304.411 43.5154 297.599 -20.0228 297.497C-121.074 297.41 -222.273 308.49 -321.765 330.534C-370.901 341.534 -419.923 355.73 -470.648 356.61C-518.537 357.589 -560.013 343.098 -592.367 308.486C-626.914 271.714 -644.026 225.933 -655.203 177.477C-674.415 94.2449 -675.705 9.06979 -671.63 -76.5377C-667.912 -144.88 -660.466 -213.119 -649.326 -280.953C-639.565 -343.039 -628.882 -404.959 -610.173 -465.49C-595.402 -516.557 -572.043 -565.076 -541.11 -608.939C-507.251 -655.325 -462.827 -690.389 -418.52 -725.679C-389.999 -748.488 -362.121 -772.206 -342.367 -803.657C-339.925 -807.74 -337.197 -812.078 -334.524 -816.285L-342.719 -825.44C-357.593 -795.635 -380.298 -772.179 -404.749 -750.291Z"
                    fill="url(#paint15_linear_24_17190)" />
            </g>
        </g>
    </g>
</svg>
