<svg width="360" height="309" viewBox="0 0 360 309" fill="none" xmlns="http://www.w3.org/2000/svg">

    <defs>
        <linearGradient id="paint0_linear_24_15881" x1="-1" y1="-34" x2="330.292" y2="783.791"
            gradientUnits="userSpaceOnUse">
            <stop offset="0.02" stop-color="#F9A947" />
            <stop offset="1" stop-color="#EA4537" />
        </linearGradient>
        <linearGradient id="paint1_linear_24_15881" x1="0" y1="-40" x2="168.595" y2="566.027"
            gradientUnits="userSpaceOnUse">
            <stop offset="0.02" stop-color="#F9A947" />
            <stop offset="1" stop-color="#EA4537" />
        </linearGradient>
        <linearGradient id="paint2_linear_24_15881" x1="658.167" y1="-369.127" x2="414.791"
            y2="-82.9284" gradientUnits="userSpaceOnUse">
            <stop stop-color="#F88B2E" />
            <stop offset="1" stop-color="#E43125" stop-opacity="0.43" />
        </linearGradient>
        <linearGradient id="paint3_linear_24_15881" x1="679.571" y1="-360.004" x2="459.625"
            y2="-104.685" gradientUnits="userSpaceOnUse">
            <stop stop-color="#F88B2E" />
            <stop offset="1" stop-color="#E43125" stop-opacity="0.43" />
        </linearGradient>
        <linearGradient id="paint4_linear_24_15881" x1="530.663" y1="-431.296" x2="160.908"
            y2="22.657" gradientUnits="userSpaceOnUse">
            <stop stop-color="#F88B2E" />
            <stop offset="1" stop-color="#E43125" stop-opacity="0.43" />
        </linearGradient>
        <linearGradient id="paint5_linear_24_15881" x1="472.887" y1="-452.416" x2="37.8058"
            y2="93.8371" gradientUnits="userSpaceOnUse">
            <stop stop-color="#F88B2E" />
            <stop offset="1" stop-color="#E43125" stop-opacity="0.43" />
        </linearGradient>
        <linearGradient id="paint6_linear_24_15881" x1="577.83" y1="-410.696" x2="257.83"
            y2="-24.218" gradientUnits="userSpaceOnUse">
            <stop stop-color="#F88B2E" />
            <stop offset="1" stop-color="#E43125" stop-opacity="0.43" />
        </linearGradient>
        <linearGradient id="paint7_linear_24_15881" x1="609.617" y1="-395.168" x2="321.131"
            y2="-50.4212" gradientUnits="userSpaceOnUse">
            <stop stop-color="#F88B2E" />
            <stop offset="1" stop-color="#E43125" stop-opacity="0.43" />
        </linearGradient>
        <linearGradient id="paint8_linear_24_15881" x1="455.473" y1="-457.802" x2="-0.287333"
            y2="118.583" gradientUnits="userSpaceOnUse">
            <stop stop-color="#F88B2E" />
            <stop offset="1" stop-color="#E43125" stop-opacity="0.43" />
        </linearGradient>
        <linearGradient id="paint9_linear_24_15881" x1="430.529" y1="-465.684" x2="-54.389"
            y2="153.597" gradientUnits="userSpaceOnUse">
            <stop stop-color="#F88B2E" />
            <stop offset="1" stop-color="#E43125" stop-opacity="0.43" />
        </linearGradient>
        <linearGradient id="paint10_linear_24_15881" x1="391.499" y1="-476.157" x2="-141.279"
            y2="214.395" gradientUnits="userSpaceOnUse">
            <stop stop-color="#F88B2E" />
            <stop offset="1" stop-color="#E43125" stop-opacity="0.43" />
        </linearGradient>
        <linearGradient id="paint11_linear_24_15881" x1="395.013" y1="-482.676" x2="-124.107"
            y2="184.672" gradientUnits="userSpaceOnUse">
            <stop stop-color="#F88B2E" />
            <stop offset="1" stop-color="#E43125" stop-opacity="0.43" />
        </linearGradient>
        <clipPath id="clip0_24_15881">
            <rect width="1080" height="309" fill="white" />
        </clipPath>
    </defs>
    <g clip-path="url(#clip0_24_15881)">
        <path opacity="0.2"
            d="M63.7648 274.91L-1 236L7 -34H1174V96.5357C1155.93 147.26 1097.54 170.722 1049.4 146.598L991.664 117.663C920.888 82.1946 834.737 109.254 796.951 178.82L772.387 224.043C718.5 323.252 578.567 329.878 515.546 236.205C457.665 150.171 332.116 147.184 270.209 230.369L266.923 234.784C219.585 298.392 131.731 315.744 63.7648 274.91Z"
            fill="url(#paint0_linear_24_15881)" />
        <path fill-rule="evenodd" clip-rule="evenodd"
            d="M0 236.5L53.607 265.342C126.131 304.362 215.989 288.169 270.33 226.287L295.415 197.721C359.524 124.715 475.441 132.412 529.335 213.253C591.794 306.941 731.906 299.109 783.535 199.045L802.079 163.105C835.572 98.1908 915.028 72.264 980.362 104.931L1071.54 150.518C1118.38 173.941 1173.5 139.876 1173.5 87.5V-40H0V236.5ZM970.454 115.295C943.199 108.156 886.999 99.2979 864.476 132.167C838.619 169.901 933.419 155.85 973.405 129.977C980.025 125.694 978.081 117.293 970.454 115.295Z"
            fill="url(#paint1_linear_24_15881)" />
        <mask id="mask0_24_15881" style="mask-type:alpha" maskUnits="userSpaceOnUse" x="0" y="-40"
            width="1174" height="327">
            <path fill-rule="evenodd" clip-rule="evenodd"
                d="M0 236.5L53.607 265.342C126.131 304.362 215.989 288.169 270.33 226.287L295.415 197.721C359.524 124.715 475.441 132.412 529.335 213.253C591.794 306.941 731.906 299.109 783.535 199.045L802.079 163.105C835.572 98.1908 915.028 72.264 980.362 104.931L1071.54 150.518C1118.38 173.941 1173.5 139.876 1173.5 87.5V-40H0V236.5ZM970.454 115.295C943.199 108.156 886.999 99.2979 864.476 132.167C838.619 169.901 933.419 155.85 973.405 129.977C980.025 125.694 978.081 117.293 970.454 115.295Z"
                fill="#F16F3E" />
        </mask>
        <g mask="url(#mask0_24_15881)">
            <g opacity="0.6">
                <path
                    d="M939.788 85.6422C869.799 70.9478 803.3 46.533 737.991 19.3221C667.814 -9.08758 599.833 -42.2556 534.509 -79.9562C493.286 -104.238 453.675 -130.458 426.146 -170.708C405.544 -198.947 395.987 -233.962 399.18 -269.51C403.992 -317.27 430.468 -353.585 467.051 -383.693C507.774 -417.424 551.305 -447.73 589.262 -484.839C606.012 -501.008 621.452 -518.469 635.426 -537.046L627.559 -545.835C596.148 -503.619 555.752 -470.098 513.088 -438.918C480.73 -415.314 446.575 -393.811 419.62 -363.499C402.397 -344.985 389.787 -322.758 382.876 -298.732C375.966 -274.707 374.961 -249.602 379.948 -225.58C389.542 -173.811 420.612 -136.895 461.182 -106.917C501.753 -76.9383 547.377 -55.0297 593.09 -33.6944C666.796 1.35704 742.489 32.3869 819.846 59.2624C895.531 85.0196 972.368 106.117 1054.23 106.065C1094.87 106.553 1135.54 99.1877 1173.98 84.375C1178.33 82.7097 1182.6 80.8644 1186.79 78.9276L1181.01 72.4731C1157.55 82.9126 1132.91 90.1912 1107.74 94.1098C1050.63 103.101 995.107 97.4716 939.788 85.6422Z"
                    fill="url(#paint2_linear_24_15881)" />
                <path
                    d="M530.686 -411.299C504.999 -389.544 478.821 -368.338 457.84 -341.806C423.302 -298.192 415.911 -251.586 437.821 -202.266C454.062 -164.94 483.09 -138.648 515.047 -115.224C568.941 -75.7327 628.058 -44.7931 688.46 -16.1584C772.804 23.7808 859.316 59.1404 952.084 78.1815C994.693 87.6249 1038.72 90.7239 1082.75 87.3795C1113.97 84.6952 1144.74 76.9537 1173.84 64.462L1167.08 56.9089C1110.74 80.2928 1052.14 83.1127 992.723 75.529C916.98 65.8202 846.165 40.8991 776.823 11.7732C723.473 -10.4106 671.785 -36.1157 622.09 -65.1766C569.504 -96.1086 518.879 -129.455 481.668 -179.179C461.494 -206.224 450.678 -236.532 455.618 -271.297C460.558 -306.062 479.185 -334.362 503.578 -359C538.551 -394.263 575.006 -427.966 609.604 -463.552C625.718 -480.014 640.545 -497.67 653.947 -516.355L644.851 -526.517C612.904 -482.502 572.191 -446.554 530.686 -411.299Z"
                    fill="url(#paint3_linear_24_15881)" />
                <path
                    d="M478.977 -622.436C443.698 -595.475 404.072 -576.249 365.779 -554.67C320.987 -529.418 281.611 -497.635 253.386 -454.066C238.102 -430.84 226.035 -405.749 217.529 -379.506C205.809 -342.459 198.09 -304.422 194.506 -266.054C188.915 -212.093 190.314 -157.918 198.668 -104.87C206.903 -54.5232 222.893 -6.83011 257.687 31.3696C283.017 58.5445 315.255 78.4348 351.261 89.102C383.065 98.2368 415.487 105.372 448.341 110.467C471.359 114.6 495.489 115.181 518.553 118.696C587.239 128.29 655.592 138.759 723.168 153.634C784.734 166.88 845.546 181.873 907.833 193.238C938.522 198.749 969.212 204.26 1000.47 206.954C1055.64 211.994 1110.88 211.938 1165.79 198.569C1198.63 190.643 1230.2 177.607 1259.32 159.952L1237.15 135.187C1235.96 136.254 1234.32 136.817 1232.83 137.651C1176.28 168.565 1115.91 178.817 1053.38 177.818C976.235 176.618 902.105 160.271 828.632 141.109C724.085 113.895 620.1 84.5285 514.12 62.1417C470.528 53.8971 427.816 42.1371 386.4 26.9759C307.933 -3.71183 264.047 -62.715 247.265 -144C239.071 -183.284 236.581 -223.755 239.87 -264.195C244.126 -318.715 256.718 -371.213 288.135 -418.217C310.157 -450.47 338.848 -477.785 372.175 -498.225C399.49 -515.666 428.582 -530.163 456.888 -546.018C494.18 -567.277 529.422 -591.402 556.058 -625.716L521.761 -664.031C509.321 -648.429 494.936 -634.443 478.977 -622.436Z"
                    fill="url(#paint4_linear_24_15881)" />
                <path
                    d="M409.74 -682.329C372.649 -654.324 331.308 -632.985 293.814 -605.525C245.34 -571.031 206.696 -524.411 182.03 -470.67C157.706 -416.988 145.141 -360.72 135.924 -303.492C128.38 -255.712 123.587 -207.649 121.571 -159.542C118.274 -87.164 121.658 -15.5716 141.497 53.4947C154.737 99.362 175.109 141.401 214.173 171.326C237.39 188.593 264.714 199.794 293.781 203.96C341.144 211.697 389.278 210.416 437.344 209.443C462.584 208.866 487.511 208.899 512.568 208.98C543.08 209.209 573.659 209.13 604.097 210.331C662.278 212.849 720.129 218.714 777.364 227.897C844.292 238.405 910.861 250.718 978.364 257.743C1044.51 264.499 1110.84 265.896 1177.24 250.492C1218.99 240.949 1258.85 223.628 1294.68 199.458L1274.64 177.073C1255.94 188.997 1236.1 198.986 1215.47 206.875C1169.73 223.636 1121.7 232.322 1073.59 232.532C1031.67 232.562 989.94 229.333 948.784 222.875C893.267 215.428 838.8 203.495 783.947 193.145C716.647 180.496 649.205 167.975 580.525 162.993C544.508 160.354 508.646 156.257 472.535 154.857C448.254 153.915 423.959 151.998 399.976 149.472C358.051 145.029 316.471 137.806 278.46 119.224C263.385 111.274 249.646 101.128 237.678 89.1051C200.795 53.8471 182.838 8.65659 172.253 -40.576C160.502 -94.3719 159.045 -149.137 161.146 -204.53C162.631 -256.09 169.324 -307.578 181.124 -358.215C195.586 -418.407 218.958 -474.783 263.344 -521.111C292.031 -549.975 324.7 -574.605 360.28 -594.191C393.777 -613.456 428.271 -631.222 458.562 -655.697C472.348 -666.722 484.78 -679.346 495.577 -693.283L460.338 -732.651C446.129 -713.438 429.053 -696.455 409.74 -682.329Z"
                    fill="url(#paint5_linear_24_15881)" />
                <path
                    d="M480.915 -541.715C448.524 -521.792 414.151 -505.618 381.862 -485.291C324.888 -449.382 285.673 -400.922 267.555 -336.469C248.624 -269.871 248.641 -200.068 267.604 -134.994C289.363 -58.4111 340.255 -10.3796 413.657 16.1842C477.113 39.1178 543.649 51.8731 608.59 69.8486C673.532 87.8242 740.09 106.743 806.007 124.753C867.961 141.693 930.322 157.361 994.797 164.457C1031.04 168.939 1067.81 169.576 1104.5 166.357C1148.36 162.307 1191.25 149.193 1230.42 127.858L1224.56 121.312C1214.55 126.617 1204.29 131.422 1193.83 135.707C1139.41 157.872 1082.83 162.67 1025.83 159.028C966.252 154.535 907.55 143.916 850.649 127.34C772.1 105.384 693.984 81.8027 615.74 58.7489C549.453 39.1744 481.509 24.4631 417.497 -1.6824C371.379 -20.5934 331.801 -47.832 306.095 -91.0333C267.997 -154.888 260.845 -225.415 272.969 -299.345C286.368 -381.921 332.794 -442.276 405.96 -483.692C430.648 -497.545 455.289 -511.356 479.807 -525.881C506.153 -540.383 530.466 -558.425 552.028 -579.478C559.995 -587.615 567.459 -596.223 574.374 -605.252L565.769 -614.866C542.081 -585.63 513.306 -560.824 480.915 -541.715Z"
                    fill="url(#paint6_linear_24_15881)" />
                <path
                    d="M518.88 -516.086C485.431 -492.165 448.265 -474.316 413.948 -451.843C380.632 -430.267 351.229 -404.608 330.968 -369.981C307.654 -329.385 296.741 -283.277 299.62 -237.534C303.036 -158.137 334.86 -94.769 402.162 -52.1915C439.949 -28.2967 482.06 -12.8075 524.571 1.49859C631.553 37.6655 737.514 75.5701 846.07 106.782C915.193 126.456 984.849 142.026 1057.91 142.019C1110.92 143.112 1163.91 131.209 1212.24 107.354L1205.72 100.076C1197.38 104.259 1188.83 108 1180.12 111.282C1135.07 127.353 1087.65 134.65 1040.52 132.762C1007.59 131.767 974.936 127.891 942.922 121.178C860.753 104.77 782.189 77.7148 704.081 49.9217C664.87 36.0418 625.993 21.2868 586.788 7.31844C544.856 -7.58815 503.222 -22.9276 462.879 -41.8131C426.092 -57.7865 393.405 -81.4278 366.943 -111.201C337.808 -145.732 320.753 -188.989 318.211 -234.798C315.048 -273.565 322.552 -312.883 339.924 -348.562C361.473 -392.587 398.275 -422.066 438.58 -447.919C473.423 -470.284 510.328 -489.384 542.847 -515.688C564.667 -533.079 584.341 -553.016 601.416 -575.041L592.402 -585.112C571.45 -558.622 546.652 -535.341 518.88 -516.086Z"
                    fill="url(#paint7_linear_24_15881)" />
                <path
                    d="M385.375 -698.038C357.527 -677.068 327.97 -658.774 299.362 -638.939C266.165 -616.677 236.533 -589.429 211.581 -558.221C173.695 -509.714 151.583 -454.136 137.152 -396.116C115.14 -304.471 102.927 -211.14 100.72 -117.708C98.1439 -58.8678 102.553 -0.209547 113.854 57.0473C123.178 101.802 136.706 144.442 164.012 181.182C181.972 205.889 207.183 224.365 236.389 234.224C272.25 246.568 309.763 246.466 347.512 244.998C417.435 242.353 487.374 236.561 557.326 235.293C613.401 233.603 669.379 235.613 724.89 241.308C793.614 249.218 861.892 259.507 930.393 268.607C991.196 276.683 1052.18 281.706 1114.06 276.695C1175.95 271.685 1235.74 255.428 1289.93 221.771C1295.39 218.282 1300.39 215.044 1305.46 211.497L1300.74 206.233L1295.08 210.069C1240.08 246.846 1178.66 263.977 1114.39 269.48C1051.64 274.77 989.637 269.091 928.091 260.856C876.182 253.89 824.597 245.562 772.877 237.849C739.257 232.9 705.501 228.567 671.537 226.399C635.343 224.331 599.354 222.491 563.301 223.265C524.835 224.22 486.34 224.377 447.826 225.374C396.842 226.733 345.828 230.839 294.978 225.728C227.701 219.051 179.812 185.949 151.312 126.422C127.84 77.1801 117.781 23.9313 112.806 -30.7353C108.178 -92.3219 109.082 -154.417 115.508 -216.285C119.734 -267.736 127.544 -318.974 138.882 -369.63C153.442 -432.877 174.667 -493.186 214.953 -546.397C243.248 -583.845 278.749 -612.572 317.432 -638.127C357.048 -664.271 398.748 -687.415 431.805 -722.612C438.293 -729.489 444.27 -736.823 449.684 -744.552L440.833 -754.44C425.558 -732.78 406.807 -713.709 385.375 -698.038Z"
                    fill="url(#paint8_linear_24_15881)" />
                <path
                    d="M365.111 -732.091C335.27 -707.112 303.149 -684.874 272.126 -661.31C241.121 -638.244 213.582 -610.814 190.428 -579.935C154.438 -531.229 133.593 -475.962 117.859 -418.918C109.578 -388.749 103.698 -358.007 98.254 -327.161C85.7613 -254.976 77.5777 -182.285 73.7467 -109.477C69.8153 -45.0291 72.2661 19.3929 81.0635 82.8538C88.3825 131.794 100.254 179.298 125.161 221.895C145.776 257.203 174.512 283.263 215.274 295.424C254.864 307.233 295.153 303.327 335.222 297.639C401.426 288.347 467.484 277.453 534.118 273.052C578.78 270.098 623.427 267.32 668.129 268.534C699.732 269.599 731.247 270.661 762.724 273.407C816.58 278.135 869.902 285.815 923.487 291.776C970.269 297.673 1017.46 300.884 1064.83 301.393C1118.65 302.174 1172.6 294.09 1224.48 277.468C1258.52 265.762 1290.79 249.077 1320.21 227.977L1315.62 222.85C1295.23 237.401 1273.4 249.776 1250.53 259.76C1185.88 287.862 1118.45 295.117 1049.93 293.864C983.236 291.648 916.917 285.218 851.374 274.612C724.512 256.061 595.234 253.027 466.383 265.576C407.435 271.177 348.733 281.753 289.533 283.044C255.921 283.86 223.753 279.095 194.561 262.596C154.963 240.322 131.859 204.439 115.905 163.31C95.1959 109.864 87.0615 53.4906 83.4937 -3.91986C79.3442 -84.6042 82.986 -165.809 94.3695 -246.424C103.599 -317.928 115.461 -388.985 138.794 -458.354C163.235 -534.655 211.436 -602.061 276.247 -650.569C308.604 -674.75 342.52 -696.616 373.873 -722.207C392.725 -737.261 408.959 -755.335 421.863 -775.635L412.479 -786.118C399.836 -765.643 383.809 -747.364 365.111 -732.091Z"
                    fill="url(#paint9_linear_24_15881)" />
                <path
                    d="M80.3505 -429.457C50.0838 -297.773 31.413 -164.157 24.5538 -30.1533C20.3477 38.0145 22.9342 106.158 32.2754 173.276C41.0244 230.337 55.3068 285.33 89.0982 332.673C121.21 378.138 165.525 404.435 223.066 406.277C267.386 407.833 310.303 396.792 352.68 384.091C422.785 362.425 494.261 346.166 566.459 335.463C653.062 323.912 740.276 321.312 826.695 327.706C900.352 332.686 973.7 341.158 1047.8 342.03C1088.35 342.848 1129.04 339.987 1169.36 333.483C1233.37 323.322 1294.35 297.118 1346.51 257.366L1341.93 252.239C1302.28 282.726 1257.08 305.001 1209.13 317.676C1131.64 338.056 1053.99 337.148 976.223 331.891C917.288 327.915 858.561 321.775 799.627 317.799C722.228 312.54 644.191 314.894 566.641 324.829C511.636 331.784 457.001 342.293 403.086 356.287C359.29 367.785 315.865 381.425 270.984 387.874C205.884 397.25 149.627 382.55 106.948 332.856C83.0617 303.555 65.6347 269.464 55.7345 232.671C42.8566 186.774 35.2474 139.376 33.0492 91.3662C29.1832 22.5987 30.5524 -46.57 37.1451 -115.551C43.1604 -184.507 52.8985 -253.333 64.9212 -321.813C78.8304 -401.134 95.0167 -480.597 129.441 -555.606C159.917 -621.886 206.68 -674.958 262.391 -721.199C286.787 -740.864 309.928 -762.046 331.666 -784.609C331.789 -784.759 331.934 -784.888 332.095 -784.993L170.608 -640.444C123.157 -577.109 97.4833 -504.985 80.3505 -429.457Z"
                    fill="url(#paint10_linear_24_15881)" />
                <path
                    d="M315.25 -750.291C285.508 -723.668 253.484 -699.786 224.472 -672.25C184.709 -634.287 152.848 -588.932 130.849 -538.974C109.869 -490.679 94.4055 -440.376 84.7591 -389.043C60.328 -268.724 43.1386 -147.796 39.9418 -25.6227C37.9953 30.2645 40.7794 86.0265 48.2644 141.072C55.9648 194.371 68.4216 245.886 96.7157 291.883C126.397 340.101 168.629 368.674 227.277 372.329C260.303 373.401 293.502 369.606 325.803 361.067C382.701 347.901 438.983 332.319 496.596 323.212C573.808 310.43 651.738 304.529 729.45 305.581C801.458 307.089 872.659 315.752 944.129 322.029C1018.03 328.437 1091.93 331.962 1166.49 319.726C1228.13 310.059 1286.93 285.111 1337.42 247.203L1333.73 243.083C1331.68 244.918 1329.3 246.386 1327.05 247.992C1263.6 293.739 1192.28 314.203 1116.47 320.143C1040.65 326.083 964.475 318 889.001 310.606C826.191 304.411 763.515 297.599 699.977 297.497C598.926 297.41 497.727 308.49 398.235 330.534C349.099 341.534 300.077 355.73 249.352 356.61C201.463 357.589 159.987 343.098 127.633 308.486C93.0863 271.714 75.9742 225.933 64.7968 177.477C45.5847 94.2449 44.2947 9.06979 48.3698 -76.5377C52.0881 -144.88 59.5337 -213.119 70.6737 -280.953C80.4353 -343.039 91.1176 -404.959 109.827 -465.49C124.598 -516.557 147.957 -565.076 178.89 -608.939C212.749 -655.325 257.173 -690.389 301.48 -725.679C330.001 -748.488 357.879 -772.206 377.633 -803.657C380.075 -807.74 382.803 -812.078 385.476 -816.285L377.281 -825.44C362.407 -795.635 339.702 -772.179 315.25 -750.291Z"
                    fill="url(#paint11_linear_24_15881)" />
            </g>
        </g>
    </g>
</svg>
