<svg width="360" height="257" viewBox="0 0 360 257" fill="none" xmlns="http://www.w3.org/2000/svg">
    <defs>
        <linearGradient id="paint0_linear_24_15585" x1="293.113" y1="-9.30565" x2="270.503"
            y2="104.379" gradientUnits="userSpaceOnUse">
            <stop stop-color="#F9A947" />
            <stop offset="1" stop-color="#F9A947" stop-opacity="0" />
        </linearGradient>
        <linearGradient id="paint1_linear_24_15585" x1="281.461" y1="-54.7394" x2="327.26"
            y2="48.2692" gradientUnits="userSpaceOnUse">
            <stop stop-color="#EB5938" />
            <stop offset="1" stop-color="#EB5938" stop-opacity="0" />
        </linearGradient>
        <linearGradient id="paint2_linear_24_15585" x1="105.832" y1="18.8518" x2="81.219"
            y2="143.132" gradientUnits="userSpaceOnUse">
            <stop stop-color="#F9A947" />
            <stop offset="1" stop-color="#F9A947" stop-opacity="0" />
        </linearGradient>
        <linearGradient id="paint3_linear_24_15585" x1="49.39" y1="-18.5642" x2="75.4351"
            y2="73.0745" gradientUnits="userSpaceOnUse">
            <stop stop-color="#EB5938" />
            <stop offset="1" stop-color="#EB5938" stop-opacity="0" />
        </linearGradient>
        <linearGradient id="paint4_linear_24_15585" x1="14.9135" y1="-18.7551" x2="3.56138"
            y2="131.769" gradientUnits="userSpaceOnUse">
            <stop stop-color="#F9A947" />
            <stop offset="1" stop-color="#F9A947" stop-opacity="0" />
        </linearGradient>
        <linearGradient id="paint5_linear_24_15585" x1="268.951" y1="19.8063" x2="338.52"
            y2="119.11" gradientUnits="userSpaceOnUse">
            <stop stop-color="#BC2511" />
            <stop offset="1" stop-color="#BC2511" stop-opacity="0" />
        </linearGradient>
        <linearGradient id="paint6_linear_24_15585" x1="222.536" y1="112.964" x2="294.98"
            y2="189.364" gradientUnits="userSpaceOnUse">
            <stop stop-color="#BC2511" />
            <stop offset="1" stop-color="#BC2511" stop-opacity="0" />
        </linearGradient>
        <linearGradient id="paint7_linear_24_15585" x1="298.27" y1="171.093" x2="337.883"
            y2="207.863" gradientUnits="userSpaceOnUse">
            <stop stop-color="#EB5938" />
            <stop offset="1" stop-color="#EB5938" stop-opacity="0" />
        </linearGradient>
        <linearGradient id="paint8_linear_24_15585" x1="326.921" y1="53.6906" x2="250.01"
            y2="183.253" gradientUnits="userSpaceOnUse">
            <stop stop-color="#FFC578" />
            <stop offset="1" stop-color="#FFC578" stop-opacity="0" />
        </linearGradient>
        <linearGradient id="paint9_linear_24_15585" x1="273.63" y1="26.3922" x2="163.331"
            y2="259.813" gradientUnits="userSpaceOnUse">
            <stop stop-color="#F9A947" />
            <stop offset="1" stop-color="#F9A947" stop-opacity="0" />
        </linearGradient>
        <linearGradient id="paint10_linear_24_15585" x1="126.174" y1="13.1248" x2="162.619"
            y2="122.617" gradientUnits="userSpaceOnUse">
            <stop stop-color="#BC2511" />
            <stop offset="1" stop-color="#BC2511" stop-opacity="0" />
        </linearGradient>
        <linearGradient id="paint11_linear_24_15585" x1="130.445" y1="36.8078" x2="137.124"
            y2="313.362" gradientUnits="userSpaceOnUse">
            <stop stop-color="white" />
            <stop offset="1" stop-color="white" stop-opacity="0" />
        </linearGradient>
        <linearGradient id="paint12_linear_24_15585" x1="147.911" y1="25.5066" x2="118.076"
            y2="92.2719" gradientUnits="userSpaceOnUse">
            <stop stop-color="#DEE0E4" />
            <stop offset="1" stop-color="#DEE0E4" stop-opacity="0" />
        </linearGradient>
        <linearGradient id="paint13_linear_24_15585" x1="130.025" y1="36.8312" x2="136.699"
            y2="313.29" gradientUnits="userSpaceOnUse">
            <stop stop-color="white" />
            <stop offset="1" stop-color="white" stop-opacity="0" />
        </linearGradient>
        <linearGradient id="paint14_linear_24_15585" x1="147.695" y1="25.423" x2="117.859"
            y2="92.1877" gradientUnits="userSpaceOnUse">
            <stop stop-color="#DEE0E4" />
            <stop offset="1" stop-color="#DEE0E4" stop-opacity="0" />
        </linearGradient>
        <linearGradient id="paint15_linear_24_15585" x1="129.705" y1="36.7535" x2="136.297"
            y2="313.313" gradientUnits="userSpaceOnUse">
            <stop stop-color="white" />
            <stop offset="1" stop-color="white" stop-opacity="0" />
        </linearGradient>
        <linearGradient id="paint16_linear_24_15585" x1="147.48" y1="25.3394" x2="117.636"
            y2="92.0115" gradientUnits="userSpaceOnUse">
            <stop stop-color="#DEE0E4" />
            <stop offset="1" stop-color="#DEE0E4" stop-opacity="0" />
        </linearGradient>
        <linearGradient id="paint17_linear_24_15585" x1="130.97" y1="36.7816" x2="137.559"
            y2="313.299" gradientUnits="userSpaceOnUse">
            <stop stop-color="white" />
            <stop offset="1" stop-color="white" stop-opacity="0" />
        </linearGradient>
        <linearGradient id="paint18_linear_24_15585" x1="148.131" y1="25.6903" x2="118.295"
            y2="92.3561" gradientUnits="userSpaceOnUse">
            <stop stop-color="#DEE0E4" />
            <stop offset="1" stop-color="#DEE0E4" stop-opacity="0" />
        </linearGradient>
        <linearGradient id="paint19_linear_24_15585" x1="131.179" y1="36.7668" x2="137.771"
            y2="313.327" gradientUnits="userSpaceOnUse">
            <stop stop-color="white" />
            <stop offset="1" stop-color="white" stop-opacity="0" />
        </linearGradient>
        <linearGradient id="paint20_linear_24_15585" x1="148.235" y1="25.6797" x2="118.4"
            y2="92.4444" gradientUnits="userSpaceOnUse">
            <stop stop-color="#DEE0E4" />
            <stop offset="1" stop-color="#DEE0E4" stop-opacity="0" />
        </linearGradient>
        <linearGradient id="paint21_linear_24_15585" x1="130.655" y1="36.7961" x2="137.333"
            y2="313.35" gradientUnits="userSpaceOnUse">
            <stop stop-color="white" />
            <stop offset="1" stop-color="white" stop-opacity="0" />
        </linearGradient>
        <linearGradient id="paint22_linear_24_15585" x1="148.02" y1="25.5961" x2="118.176"
            y2="92.2681" gradientUnits="userSpaceOnUse">
            <stop stop-color="#DEE0E4" />
            <stop offset="1" stop-color="#DEE0E4" stop-opacity="0" />
        </linearGradient>
        <linearGradient id="paint23_linear_24_15585" x1="115.096" y1="43.0958" x2="88.3739"
            y2="77.472" gradientUnits="userSpaceOnUse">
            <stop stop-color="#BC2511" />
            <stop offset="1" stop-color="#BC2511" stop-opacity="0" />
        </linearGradient>
        <linearGradient id="paint24_linear_24_15585" x1="273.248" y1="104.756" x2="258.461"
            y2="157.734" gradientUnits="userSpaceOnUse">
            <stop stop-color="#A8A8A8" />
            <stop offset="0.1" stop-color="#A8A8A8" stop-opacity="0.9" />
            <stop offset="1" stop-color="#A8A8A8" stop-opacity="0" />
        </linearGradient>
        <linearGradient id="paint25_linear_24_15585" x1="84.8214" y1="276.755" x2="224.849"
            y2="144.289" gradientUnits="userSpaceOnUse">
            <stop stop-color="#EB5938" />
            <stop offset="1" stop-color="#EB5938" stop-opacity="0" />
        </linearGradient>
        <linearGradient id="paint26_linear_24_15585" x1="107.933" y1="337.747" x2="269.734"
            y2="200.21" gradientUnits="userSpaceOnUse">
            <stop stop-color="#EB5938" />
            <stop offset="1" stop-color="#EB5938" stop-opacity="0" />
        </linearGradient>
        <linearGradient id="paint27_linear_24_15585" x1="153.679" y1="322.761" x2="231.757"
            y2="245.499" gradientUnits="userSpaceOnUse">
            <stop stop-color="#EB5938" />
            <stop offset="1" stop-color="#EB5938" stop-opacity="0" />
        </linearGradient>
        <linearGradient id="paint28_linear_24_15585" x1="134.96" y1="84.4252" x2="261.412"
            y2="249.907" gradientUnits="userSpaceOnUse">
            <stop stop-color="#EB5938" />
            <stop offset="1" stop-color="#EB5938" stop-opacity="0" />
        </linearGradient>
        <clipPath id="clip0_24_15585">
            <rect width="360" height="257" fill="white" />
        </clipPath>
    </defs>
    <g style="mix-blend-mode:multiply" opacity="0.8" clip-path="url(#clip0_24_15585)">
        <path
            d="M385.655 81.9435C381.262 74.7849 376.868 67.6262 372.475 60.563C371.425 58.8449 370.374 57.1268 368.751 55.886C367.414 54.836 365.695 54.2633 364.167 53.5952C353.088 49.3 342.965 42.714 333.033 36.3189C326.348 32.0237 319.376 27.3467 315.747 20.379C315.556 19.9972 315.365 19.6154 315.174 19.1381C314.41 17.3246 313.837 15.5111 312.691 13.8884C309.921 10.1659 304.573 9.59323 299.893 9.78412C295.214 9.97502 290.248 10.6432 286.141 8.44784C285.186 7.9706 284.326 7.30246 283.562 6.63432C281.939 5.20259 280.411 3.57996 278.596 2.43457C273.248 -1.09704 265.99 -0.428897 260.26 2.43457C254.53 5.29804 250.041 10.0705 245.743 14.8429C240.395 20.5699 238.676 21.1425 233.328 26.8695C232.85 27.3467 231.322 28.5876 229.412 30.0193C225.401 32.9782 219.48 36.8916 218.048 37.178C212.317 38.4188 208.688 44.2412 206.778 49.7772C204.964 54.9315 203.913 60.4675 200.762 64.9536C200.475 65.3354 200.189 65.7172 199.902 66.099C194.363 72.8759 184.813 74.3076 176.408 76.5984C159.982 81.0845 144.702 90.7248 134.865 104.66H406.474L385.75 82.1344L385.655 81.9435Z"
            fill="url(#paint0_linear_24_15585)" />
        <path
            d="M385.655 81.9435C381.262 74.7848 376.868 67.6262 372.475 60.563C371.425 58.8449 370.374 57.1268 368.751 55.886C367.414 54.836 365.695 54.2633 364.167 53.5952C353.088 49.3 342.965 42.714 333.033 36.3189C326.348 32.0237 319.376 27.3467 315.747 20.3789C315.556 19.9971 315.365 19.6154 315.174 19.1381C314.41 17.3246 313.837 15.5111 312.691 13.8884C309.921 10.1659 304.573 9.5932 299.893 9.7841C295.214 9.975 290.248 10.6431 286.141 8.44782C285.186 7.97058 284.326 7.30244 283.562 6.6343C281.939 5.20256 280.411 3.57994 278.596 2.43455C273.63 -0.906165 266.945 -0.524375 261.406 1.86185C267.136 1.19371 273.153 3.10269 277.259 7.207C280.506 10.5477 282.512 15.7019 280.602 19.9017C279.074 23.2424 275.349 26.2968 276.686 29.6375C277.546 31.8328 280.124 32.7873 281.461 34.7917C283.467 37.7507 281.748 41.855 279.838 44.9093C277.928 47.9637 275.636 51.3999 276.686 54.9315C277.45 57.4131 279.838 59.1312 282.416 59.7993C284.995 60.4675 287.573 60.2766 290.248 60.1812C300.562 59.7039 310.972 59.7994 321.286 60.563C324.533 60.7539 328.449 61.5174 329.69 64.4764C330.645 66.7671 329.69 69.4397 330.168 71.8259C331.314 77.1711 338.858 78.5074 341.341 83.3753C343.538 87.6704 341.15 93.2065 343.061 97.6926C343.92 99.697 344.302 102.083 344.78 104.374H406.665L385.941 81.8481L385.655 81.9435Z"
            fill="url(#paint1_linear_24_15585)" />
        <path
            d="M141.837 111.342C137.634 106.092 130.185 104.374 126.27 98.9334C125.028 97.2153 124.169 95.1155 123.405 93.111C120.539 85.9524 117.77 78.7937 114.905 71.5396C114.141 69.6306 113.377 67.7216 111.944 66.1944C109.843 63.9991 106.692 63.2355 103.826 62.281C92.0796 58.2722 82.5294 48.4409 78.7093 36.7007C77.8498 33.9327 77.1812 31.0692 75.3667 28.8739C74.0296 27.2512 72.0241 26.1059 70.114 25.1514C64.0019 22.0016 59.3222 17.1337 53.4966 14.2702C56.5527 19.6153 58.4627 26.3922 63.2379 30.4011C64.6704 31.5465 66.2939 32.501 67.5355 33.9327C71.1646 38.037 69.159 45.5775 63.9064 47.2955C59.6087 48.6318 54.1651 46.7228 51.109 50.0636C49.0079 52.3543 49.4855 55.9814 50.6315 58.7494C51.7775 61.5174 53.7831 64.0946 54.3561 67.1489C55.3111 71.9214 52.8281 76.7893 49.581 80.5118C46.3339 84.1388 42.3228 87.0977 39.2667 91.0112C33.441 98.3607 32.104 107.715 32.295 117.355H141.741V111.437L141.837 111.342Z"
            fill="url(#paint2_linear_24_15585)" />
        <path
            d="M141.837 111.342C137.634 106.092 130.185 104.374 126.27 98.9334C125.028 97.2153 124.169 95.1155 123.405 93.111C120.539 85.9524 117.77 78.7937 114.905 71.5396C114.141 69.6306 113.377 67.7216 111.944 66.1944C109.843 63.9991 106.692 63.2355 103.826 62.281C92.0796 58.2722 82.5294 48.4409 78.7093 36.7007C77.8498 33.9327 77.1812 31.0692 75.3667 28.8739C74.0296 27.2512 72.0241 26.1059 70.114 25.1514C64.0019 22.0016 59.3222 17.1337 53.4966 14.2702C56.5527 19.6153 58.4627 26.3922 63.2379 30.4011C64.6704 31.5465 66.2939 32.501 67.5355 33.9327C71.1646 38.037 69.159 45.5775 63.9064 47.2955C59.6087 48.6318 54.1651 46.7228 51.109 50.0636C49.0079 52.3543 49.4855 55.9814 50.6315 58.7494C51.7775 61.5174 53.7831 64.0946 54.3561 67.1489C55.3111 71.9214 52.8281 76.7893 49.581 80.5118C46.3339 84.1388 42.3228 87.0977 39.2667 91.0112C33.441 98.3607 32.104 107.715 32.295 117.355H141.741V111.437L141.837 111.342Z"
            fill="url(#paint3_linear_24_15585)" />
        <path
            d="M39.3622 90.9157C42.9913 87.575 46.4294 84.1388 49.6765 80.4163C52.9235 76.7893 55.5021 71.9214 54.4516 67.0535C53.8786 63.9991 51.9685 61.5175 50.727 58.654C49.4855 55.7905 49.1034 52.2589 51.2045 49.9681C54.2606 46.6274 59.7997 48.6318 64.0018 47.2001C69.159 45.482 71.2601 37.9416 67.631 33.8372C66.3894 32.501 64.7659 31.5465 63.3333 30.3056C58.6537 26.2968 56.6481 19.5199 53.5921 14.1748C51.873 13.3157 50.0585 12.6476 48.0529 12.3612C40.5082 10.9295 15.6775 26.3922 9.85185 28.4921C8.32381 29.0648 6.70027 29.3512 5.36323 30.1147C4.02619 30.9738 3.07116 32.2146 2.21164 33.5509C-4.28254 42.6185 -10.7767 51.6862 -17.2709 60.7538C-18.5124 62.4719 -19.8495 64.2855 -21.7595 65.24C-23.3831 66.099 -25.1976 66.1945 -26.9167 66.3854C-32.1693 66.8626 -37.5175 67.2444 -42.7701 67.7216C-43.8206 67.7216 -44.9667 67.9125 -45.8262 68.5807C-46.6857 69.2488 -47.0677 70.2987 -47.3542 71.2532C-48.7868 75.5484 -50.3148 79.8436 -51.7474 84.1388L-57 224.449L26.1828 139.022C25.9918 129.477 26.4693 102.751 39.3622 90.7248V90.9157Z"
            fill="url(#paint4_linear_24_15585)" />
        <path
            d="M401.508 224.353V150.953C397.593 147.326 393.964 143.317 391.289 138.736C387.66 132.627 385.655 125.659 382.694 119.169C379.734 112.678 375.245 106.378 368.655 103.706C365.599 102.465 362.257 101.988 359.201 100.652C350.701 96.929 346.499 87.0023 338.477 82.2299C331.218 77.9347 321.477 78.221 315.46 72.3032C312.977 69.8215 311.449 66.5762 309.635 63.6173C304.191 54.7406 292.349 39.5642 286.714 38.2279C282.703 37.2734 263.793 74.9757 270.765 86.2387C275.158 93.3974 284.709 95.1155 291.776 99.697C294.736 101.606 297.219 103.897 299.511 106.569L310.972 94.6382L401.508 224.449V224.353Z"
            fill="#FCE0E0" />
        <path
            d="M401.508 224.353V150.953C397.593 147.326 393.964 143.317 391.289 138.736C387.66 132.627 385.655 125.659 382.694 119.169C379.734 112.678 375.245 106.378 368.655 103.706C365.599 102.465 362.257 101.988 359.201 100.652C350.701 96.929 346.499 87.0023 338.477 82.2299C331.218 77.9347 321.477 78.221 315.46 72.3032C312.977 69.8215 311.449 66.5762 309.635 63.6173C304.191 54.7406 292.349 39.5642 286.714 38.2279C282.703 37.2734 263.793 74.9757 270.765 86.2387C275.158 93.3974 284.709 95.1155 291.776 99.697C294.736 101.606 297.219 103.897 299.511 106.569L310.972 94.6382L401.508 224.449V224.353Z"
            fill="#FFC578" />
        <path
            d="M401.508 224.353V150.953C397.593 147.326 393.964 143.317 391.289 138.736C387.66 132.627 385.655 125.659 382.694 119.169C379.734 112.678 375.245 106.378 368.655 103.706C365.599 102.465 362.257 101.988 359.201 100.652C350.701 96.929 346.499 87.0023 338.477 82.2299C331.218 77.9347 321.477 78.221 315.46 72.3032C312.977 69.8215 311.449 66.5762 309.635 63.6173C304.191 54.7406 292.349 39.5642 286.714 38.2279C282.703 37.2734 263.793 74.9757 270.765 86.2387C275.158 93.3974 284.709 95.1155 291.776 99.697C294.736 101.606 297.219 103.897 299.511 106.569L310.972 94.6382L401.508 224.449V224.353Z"
            fill="url(#paint5_linear_24_15585)" />
        <path
            d="M245.648 169.375L299.989 107.142C299.798 106.951 299.607 106.76 299.511 106.569L243.642 164.793C240.109 171.952 243.642 248.693 243.642 248.693C243.642 248.693 242.114 176.629 245.648 169.47V169.375Z"
            fill="white" />
        <path
            d="M310.972 94.5428L299.989 107.047L245.648 169.279C242.114 176.438 243.642 248.502 243.642 248.502L259.591 249.552C260.737 237.716 262.456 223.208 264.175 220.726L325.488 172.62L400.458 258.715H401.508V242.489V224.353L310.972 94.5428Z"
            fill="#FCE0E0" />
        <path
            d="M311.831 93.5883L299.989 107.142L245.648 169.375C242.114 176.533 243.642 248.597 243.642 248.597L259.591 249.647C260.737 237.812 262.456 223.303 264.175 220.822L325.488 172.715L400.458 258.81H401.508V242.584V224.449L311.831 93.6837V93.5883Z"
            fill="#FFC578" />
        <path
            d="M311.831 93.5883L299.989 107.142L245.648 169.375C242.114 176.533 243.642 248.597 243.642 248.597L259.591 249.647C260.737 237.812 262.456 223.303 264.175 220.822L325.488 172.715L400.458 258.81H401.508V242.584V224.449L311.831 93.6837V93.5883Z"
            fill="url(#paint6_linear_24_15585)" />
        <path
            d="M323.96 170.997L343.825 193.046L327.78 222.349L298.747 190.946C298.747 190.946 319.949 169.279 323.96 170.997Z"
            fill="#F27864" />
        <path
            d="M323.96 170.997L343.825 193.046L327.78 222.349L298.747 190.946C298.747 190.946 319.949 169.279 323.96 170.997Z"
            fill="url(#paint7_linear_24_15585)" />
        <path
            d="M286.523 47.4864C284.518 52.5452 280.888 57.7949 277.641 63.8082C275.158 68.3898 272.58 73.4486 274.108 78.4119C275.731 83.5661 281.748 85.8569 287.096 86.0478C292.444 86.2387 297.983 84.9979 303.141 86.3342C308.393 87.575 313.359 92.7293 311.736 97.8835C311.067 99.9834 309.444 101.606 307.916 103.133C293.113 117.641 277.737 131.959 266.563 149.426C263.029 154.962 260.833 163.839 266.659 166.607C268.473 167.466 270.574 167.37 272.58 167.275C286.428 166.607 300.275 165.843 314.123 165.175C317.275 164.984 320.713 164.984 323.101 166.989C326.921 170.138 325.775 176.438 322.91 180.447C320.14 184.551 316.033 187.796 314.314 192.473C310.781 201.923 318.612 211.659 326.157 218.34C339.527 230.08 354.234 240.293 369.037 250.22C380.307 257.856 393.009 268.069 391.863 281.623C355.572 288.495 319.376 295.367 283.085 302.144C269.046 304.817 255.007 307.489 240.777 308.348C222.059 309.494 203.34 307.585 184.717 305.199C161.51 302.24 138.399 298.708 115.478 294.317C102.776 291.836 89.9787 289.068 78.3274 283.436C61.1369 275.037 46.907 260.338 28.3795 255.661C24.0819 254.611 19.2112 253.847 16.4416 250.316C11.953 244.493 16.5372 236.189 21.2168 230.558C54.5472 190.564 96.6639 158.494 141.837 132.531C156.353 124.227 171.156 116.496 185.577 107.906C205.346 96.2609 224.16 83.0889 242.687 69.4397C251.665 62.7583 260.642 55.9814 269.524 49.1091C278.405 42.2368 281.939 37.2734 286.332 38.037C290.725 38.8006 287.669 43.6685 286.237 47.2956L286.523 47.4864Z"
            fill="white" />
        <path
            d="M287.192 47.6774C285.186 52.7362 281.939 57.795 278.692 63.8082C276.209 68.3898 273.344 73.544 274.872 78.5074C276.495 83.6616 282.417 85.2843 287.765 85.4752C293.113 85.6661 298.747 84.7116 304 85.9524C309.253 87.1932 314.601 92.1566 312.977 97.3108C312.309 99.4107 310.685 101.701 309.062 103.229C294.259 117.737 278.214 131.959 267.041 149.426C263.507 154.962 262.265 162.884 268.187 165.748C270.001 166.607 272.102 166.702 274.108 166.607C287.956 165.939 301.613 164.984 315.46 164.316C318.612 164.125 322.05 164.889 324.438 166.893C328.258 170.043 327.971 176.82 325.202 180.924C322.432 185.028 317.084 187.796 315.365 192.473C311.831 201.923 318.994 211.659 326.539 218.34C339.909 230.08 354.617 240.293 369.419 250.22C380.689 257.856 393.391 268.069 392.245 281.623C355.954 288.495 319.758 295.367 283.467 302.144C269.428 304.817 255.389 307.489 241.159 308.348C222.441 309.494 203.722 307.585 185.099 305.199C161.892 302.24 138.781 298.708 115.86 294.317C103.158 291.836 90.3607 289.068 78.7094 283.436C61.5189 275.037 47.289 260.338 28.7615 255.661C24.4639 254.611 19.5932 253.847 16.8237 250.316C12.335 244.493 16.9192 236.189 21.5988 230.558C54.9292 190.564 97.0459 158.494 142.219 132.531C156.735 124.227 171.538 116.496 185.959 107.906C205.728 96.2609 223.873 82.7071 242.305 69.0579C251.283 62.3765 260.355 55.7905 269.237 49.0136C278.119 42.2368 282.225 37.2734 286.714 37.9416C291.203 38.6097 288.624 43.9549 287.192 47.5819V47.6774Z"
            fill="#F27864" />
        <path
            d="M287.192 47.6774C285.186 52.7362 281.939 57.795 278.692 63.8082C276.209 68.3898 273.344 73.544 274.872 78.5074C276.495 83.6616 282.417 85.2843 287.765 85.4752C293.113 85.6661 298.747 84.7116 304 85.9524C309.253 87.1932 314.601 92.1566 312.977 97.3108C312.309 99.4107 310.685 101.701 309.062 103.229C294.259 117.737 278.214 131.959 267.041 149.426C263.507 154.962 262.265 162.884 268.187 165.748C270.001 166.607 272.102 166.702 274.108 166.607C287.956 165.939 301.613 164.984 315.46 164.316C318.612 164.125 322.05 164.889 324.438 166.893C328.258 170.043 327.971 176.82 325.202 180.924C322.432 185.028 317.084 187.796 315.365 192.473C311.831 201.923 318.994 211.659 326.539 218.34C339.909 230.08 354.617 240.293 369.419 250.22C380.689 257.856 393.391 268.069 392.245 281.623C355.954 288.495 319.758 295.367 283.467 302.144C269.428 304.817 255.389 307.489 241.159 308.348C222.441 309.494 203.722 307.585 185.099 305.199C161.892 302.24 138.781 298.708 115.86 294.317C103.158 291.836 90.3607 289.068 78.7094 283.436C61.5189 275.037 47.289 260.338 28.7615 255.661C24.4639 254.611 19.5932 253.847 16.8237 250.316C12.335 244.493 16.9192 236.189 21.5988 230.558C54.9292 190.564 97.0459 158.494 142.219 132.531C156.735 124.227 171.538 116.496 185.959 107.906C205.728 96.2609 223.873 82.7071 242.305 69.0579C251.283 62.3765 260.355 55.7905 269.237 49.0136C278.119 42.2368 282.225 37.2734 286.714 37.9416C291.203 38.6097 288.624 43.9549 287.192 47.5819V47.6774Z"
            fill="url(#paint8_linear_24_15585)" />
        <path
            d="M282.703 350.823L7.08239 366.477L-36.9443 205.55C-36.9443 205.55 17.7787 143.317 22.3628 139.117C26.9469 134.918 47.7665 112.01 52.8281 103.515C57.8898 95.0201 64.2885 90.0567 70.4006 84.2343C76.5128 78.4119 87.7821 48.9182 89.5012 47.7728C91.3157 46.6274 96.0909 46.3411 98.6694 46.3411C101.248 46.3411 106.787 58.654 112.231 57.9858C117.674 57.2223 146.803 22.097 158.263 20.9517C159.887 23.4333 161.892 26.0105 162.274 28.5876C162.847 33.4555 161.988 38.6097 163.802 43.1913C164.948 46.0547 167.049 49.4909 165.044 51.8771C162.752 54.5497 158.454 52.7361 155.111 51.6862C149.381 49.8727 141.455 51.9726 140.404 57.6041C139.736 61.3266 142.314 64.8582 142.696 68.5807C143.365 74.4031 138.685 80.2255 140.404 85.8569C141.741 90.4385 146.994 94.161 145.657 98.7426C145.179 100.365 143.938 101.701 142.601 102.751C134.292 109.719 122.736 112.201 113.95 118.691C110.13 121.555 106.692 126.327 108.984 130.336C109.843 131.863 111.276 132.913 112.708 133.868C116.337 136.445 120.062 139.022 123.691 141.599C128.084 144.653 132.573 147.803 137.635 149.521C150.623 153.912 164.948 148.567 178.701 149.903C190.925 151.049 202.099 157.444 214.419 158.112C218.716 158.398 223.109 157.921 226.834 155.916C227.885 155.344 228.935 154.676 229.89 153.912C232.755 160.689 235.429 166.225 238.294 173.002C239.249 175.102 240.109 177.297 241.732 179.015C243.738 181.115 246.603 182.165 248.895 183.978C252.62 186.842 254.625 191.233 256.535 195.528C259.782 202.877 263.125 210.513 263.125 218.531C263.125 220.822 262.839 223.113 263.316 225.403C265.417 234.089 277.737 235.903 282.13 243.73C283.849 246.784 284.136 250.506 286.428 253.179C290.439 258.047 298.652 257.188 303.141 261.769C306.006 264.728 306.579 269.31 309.253 272.555C312.309 276.278 317.466 277.614 321 280.859C323.292 283.055 323.483 287.159 326.061 288.972C336.28 296.036 359.487 304.626 363.689 313.598C364.549 315.412 340.387 319.707 339.814 321.616C339.241 323.334 337.522 324.384 335.898 325.338C319.567 334.883 301.804 350.632 282.99 350.632L282.703 350.823Z"
            fill="#EB5938" />
        <path
            d="M282.703 350.823L7.08239 366.477L-36.9443 205.55C-36.9443 205.55 17.7787 143.317 22.3628 139.117C26.9469 134.918 47.7665 112.01 52.8281 103.515C57.8898 95.0201 64.2885 90.0567 70.4006 84.2343C76.5128 78.4119 87.7821 48.9182 89.5012 47.7728C91.3157 46.6274 96.0909 46.3411 98.6694 46.3411C101.248 46.3411 106.787 58.654 112.231 57.9858C117.674 57.2223 146.803 22.097 158.263 20.9517C159.887 23.4333 161.892 26.0105 162.274 28.5876C162.847 33.4555 161.988 38.6097 163.802 43.1913C164.948 46.0547 167.049 49.4909 165.044 51.8771C162.752 54.5497 158.454 52.7361 155.111 51.6862C149.381 49.8727 141.455 51.9726 140.404 57.6041C139.736 61.3266 142.314 64.8582 142.696 68.5807C143.365 74.4031 138.685 80.2255 140.404 85.8569C141.741 90.4385 146.994 94.161 145.657 98.7426C145.179 100.365 143.938 101.701 142.601 102.751C134.292 109.719 122.736 112.201 113.95 118.691C110.13 121.555 106.692 126.327 108.984 130.336C109.843 131.863 111.276 132.913 112.708 133.868C116.337 136.445 120.062 139.022 123.691 141.599C128.084 144.653 132.573 147.803 137.635 149.521C150.623 153.912 164.948 148.567 178.701 149.903C190.925 151.049 202.099 157.444 214.419 158.112C218.716 158.398 223.109 157.921 226.834 155.916C227.885 155.344 228.935 154.676 229.89 153.912C232.755 160.689 235.429 166.225 238.294 173.002C239.249 175.102 240.109 177.297 241.732 179.015C243.738 181.115 246.603 182.165 248.895 183.978C252.62 186.842 254.625 191.233 256.535 195.528C259.782 202.877 263.125 210.513 263.125 218.531C263.125 220.822 262.839 223.113 263.316 225.403C265.417 234.089 277.737 235.903 282.13 243.73C283.849 246.784 284.136 250.506 286.428 253.179C290.439 258.047 298.652 257.188 303.141 261.769C306.006 264.728 306.579 269.31 309.253 272.555C312.309 276.278 317.466 277.614 321 280.859C323.292 283.055 323.483 287.159 326.061 288.972C336.28 296.036 359.487 304.626 363.689 313.598C364.549 315.412 340.387 319.707 339.814 321.616C339.241 323.334 337.522 324.384 335.898 325.338C319.567 334.883 301.804 350.632 282.99 350.632L282.703 350.823Z"
            fill="url(#paint9_linear_24_15585)" />
        <path
            d="M163.707 43.1913C164.853 46.0547 166.954 49.4909 164.948 51.8771C162.656 54.5497 158.359 52.7361 155.016 51.6862C149.286 49.8727 141.359 51.9726 140.309 57.604C139.64 61.3266 142.219 64.8582 142.601 68.5807C143.269 74.4031 138.59 80.2255 140.309 85.8569C141.646 90.4385 146.898 94.161 145.561 98.7426C145.084 100.365 143.842 101.701 142.505 102.751C134.196 109.719 122.641 112.201 113.854 118.691C110.034 121.555 106.596 126.327 108.888 130.336C109.748 131.863 111.18 132.913 112.613 133.868C116.242 136.445 119.967 139.022 123.596 141.599C127.989 144.653 132.477 147.803 137.539 149.521C150.527 153.912 164.853 148.567 178.605 149.903C190.829 151.049 202.003 157.444 214.323 158.112C218.621 158.398 223.014 157.921 226.738 155.916C227.789 155.344 228.84 154.676 229.795 153.912C212.222 127.664 194.363 99.0289 189.015 83.8525C180.515 60.0857 173.066 40.6141 169.532 31.8328C168.291 28.7785 166.19 20.188 158.55 20.6653C158.55 20.6653 158.359 20.6653 158.263 20.6653C159.887 23.147 161.892 25.7241 162.274 28.3012C162.847 33.1691 161.988 38.3234 163.802 42.9049L163.707 43.1913Z"
            fill="#EB5938" />
        <path
            d="M163.707 43.1913C164.853 46.0547 166.954 49.4909 164.948 51.8771C162.656 54.5497 158.359 52.7361 155.016 51.6862C149.286 49.8727 141.359 51.9726 140.309 57.604C139.64 61.3266 142.219 64.8582 142.601 68.5807C143.269 74.4031 138.59 80.2255 140.309 85.8569C141.646 90.4385 146.898 94.161 145.561 98.7426C145.084 100.365 143.842 101.701 142.505 102.751C134.196 109.719 122.641 112.201 113.854 118.691C110.034 121.555 106.596 126.327 108.888 130.336C109.748 131.863 111.18 132.913 112.613 133.868C116.242 136.445 119.967 139.022 123.596 141.599C127.989 144.653 132.477 147.803 137.539 149.521C150.527 153.912 164.853 148.567 178.605 149.903C190.829 151.049 202.003 157.444 214.323 158.112C218.621 158.398 223.014 157.921 226.738 155.916C227.789 155.344 228.84 154.676 229.795 153.912C212.222 127.664 194.363 99.0289 189.015 83.8525C180.515 60.0857 173.066 40.6141 169.532 31.8328C168.291 28.7785 166.19 20.188 158.55 20.6653C158.55 20.6653 158.359 20.6653 158.263 20.6653C159.887 23.147 161.892 25.7241 162.274 28.3012C162.847 33.1691 161.988 38.3234 163.802 42.9049L163.707 43.1913Z"
            fill="url(#paint10_linear_24_15585)" />
        <path
            d="M113.95 57.1268C113.95 57.1268 113.759 57.2223 113.663 57.3177C113.663 57.3177 113.854 57.2222 113.95 57.1268Z"
            fill="url(#paint11_linear_24_15585)" />
        <path
            d="M113.95 57.1268C113.95 57.1268 113.759 57.2223 113.663 57.3177C113.663 57.3177 113.854 57.2222 113.95 57.1268Z"
            fill="url(#paint12_linear_24_15585)" />
        <path
            d="M113.568 57.4131C113.568 57.4131 113.377 57.4132 113.377 57.5086C113.377 57.5086 113.568 57.5086 113.568 57.4131Z"
            fill="url(#paint13_linear_24_15585)" />
        <path
            d="M113.568 57.4131C113.568 57.4131 113.377 57.4132 113.377 57.5086C113.377 57.5086 113.568 57.5086 113.568 57.4131Z"
            fill="url(#paint14_linear_24_15585)" />
        <path
            d="M113.186 57.604C113.186 57.604 112.995 57.604 112.995 57.6995C112.995 57.6995 113.186 57.6995 113.186 57.604Z"
            fill="url(#paint15_linear_24_15585)" />
        <path
            d="M113.186 57.604C113.186 57.604 112.995 57.604 112.995 57.6995C112.995 57.6995 113.186 57.6995 113.186 57.604Z"
            fill="url(#paint16_linear_24_15585)" />
        <path
            d="M114.427 56.8405C114.332 56.8405 114.236 56.9359 114.141 57.0313C114.141 57.0313 114.332 56.9359 114.427 56.8405Z"
            fill="url(#paint17_linear_24_15585)" />
        <path
            d="M114.427 56.8405C114.332 56.8405 114.236 56.9359 114.141 57.0313C114.141 57.0313 114.332 56.9359 114.427 56.8405Z"
            fill="url(#paint18_linear_24_15585)" />
        <path
            d="M114.618 56.745C114.618 56.745 114.523 56.745 114.427 56.8404C114.427 56.8404 114.523 56.8404 114.618 56.745Z"
            fill="url(#paint19_linear_24_15585)" />
        <path
            d="M114.618 56.745C114.618 56.745 114.523 56.745 114.427 56.8404C114.427 56.8404 114.523 56.8404 114.618 56.745Z"
            fill="url(#paint20_linear_24_15585)" />
        <path
            d="M114.141 57.0313C114.141 57.0313 114.045 57.0313 113.95 57.1268C113.95 57.1268 114.045 57.1268 114.141 57.0313Z"
            fill="url(#paint21_linear_24_15585)" />
        <path
            d="M114.141 57.0313C114.141 57.0313 114.045 57.0313 113.95 57.1268C113.95 57.1268 114.045 57.1268 114.141 57.0313Z"
            fill="url(#paint22_linear_24_15585)" />
        <path
            d="M96.7594 57.4132C95.8998 57.604 95.0403 57.604 94.1808 57.8904C92.1752 58.4631 90.9337 60.2766 89.8832 61.9947C86.6361 67.2444 83.6755 72.5895 81.0014 78.0301C79.8554 80.3209 78.8049 82.6117 77.0858 84.5207C75.9398 85.7615 74.5072 86.8114 73.6477 88.2432C73.0747 89.1977 72.6927 90.343 72.8837 91.393C72.9792 92.252 74.0297 92.6338 74.7938 92.252C82.052 88.0523 87.1136 81.0845 93.3213 75.453C94.1808 74.6894 95.0403 73.9258 96.1864 73.7349C97.2369 73.544 98.2874 73.7349 99.3379 73.4486C100.77 73.0668 101.821 71.9214 102.776 70.776C107.074 65.5263 111.562 60.4675 116.337 55.5996C116.337 55.5996 116.242 55.5996 116.146 55.6951C116.051 55.7905 115.86 55.886 115.764 55.9814C115.764 55.9814 115.669 55.9814 115.573 56.0769C115.478 56.0769 115.382 56.2678 115.287 56.3632C115.287 56.3632 115.191 56.3632 115.096 56.4587C115 56.4587 114.905 56.6496 114.809 56.6496C114.809 56.6496 114.714 56.6496 114.618 56.745C114.523 56.745 114.427 56.8405 114.332 56.9359C114.332 56.9359 114.236 56.9359 114.141 57.0314C114.141 57.0314 113.95 57.1268 113.854 57.2223C113.854 57.2223 113.759 57.2223 113.663 57.2223C113.663 57.2223 113.472 57.2223 113.472 57.3177C113.472 57.3177 113.472 57.3177 113.377 57.3177C113.377 57.3177 113.186 57.3177 113.186 57.4132C113.186 57.4132 113.186 57.4132 113.09 57.4132H112.899C112.804 57.4132 112.708 57.4132 112.613 57.4132C109.27 57.8904 105.928 53.5952 103.254 50.0636C102.967 50.3499 102.776 50.7317 102.585 51.1135C101.152 53.4043 99.8155 56.1723 97.0459 56.9359L96.7594 57.4132Z"
            fill="#EB5938" />
        <path
            d="M96.7594 57.4132C95.8998 57.604 95.0403 57.604 94.1808 57.8904C92.1752 58.4631 90.9337 60.2766 89.8832 61.9947C86.6361 67.2444 83.6755 72.5895 81.0014 78.0301C79.8554 80.3209 78.8049 82.6117 77.0858 84.5207C75.9398 85.7615 74.5072 86.8114 73.6477 88.2432C73.0747 89.1977 72.6927 90.343 72.8837 91.393C72.9792 92.252 74.0297 92.6338 74.7938 92.252C82.052 88.0523 87.1136 81.0845 93.3213 75.453C94.1808 74.6894 95.0403 73.9258 96.1864 73.7349C97.2369 73.544 98.2874 73.7349 99.3379 73.4486C100.77 73.0668 101.821 71.9214 102.776 70.776C107.074 65.5263 111.562 60.4675 116.337 55.5996C116.337 55.5996 116.242 55.5996 116.146 55.6951C116.051 55.7905 115.86 55.886 115.764 55.9814C115.764 55.9814 115.669 55.9814 115.573 56.0769C115.478 56.0769 115.382 56.2678 115.287 56.3632C115.287 56.3632 115.191 56.3632 115.096 56.4587C115 56.4587 114.905 56.6496 114.809 56.6496C114.809 56.6496 114.714 56.6496 114.618 56.745C114.523 56.745 114.427 56.8405 114.332 56.9359C114.332 56.9359 114.236 56.9359 114.141 57.0314C114.141 57.0314 113.95 57.1268 113.854 57.2223C113.854 57.2223 113.759 57.2223 113.663 57.2223C113.663 57.2223 113.472 57.2223 113.472 57.3177C113.472 57.3177 113.472 57.3177 113.377 57.3177C113.377 57.3177 113.186 57.3177 113.186 57.4132C113.186 57.4132 113.186 57.4132 113.09 57.4132H112.899C112.804 57.4132 112.708 57.4132 112.613 57.4132C109.27 57.8904 105.928 53.5952 103.254 50.0636C102.967 50.3499 102.776 50.7317 102.585 51.1135C101.152 53.4043 99.8155 56.1723 97.0459 56.9359L96.7594 57.4132Z"
            fill="url(#paint23_linear_24_15585)" />
        <path d="M236.48 91.7748L289.484 133.391C292.062 137.113 294.641 172.238 294.641 172.238"
            fill="url(#paint24_linear_24_15585)" />
        <path
            d="M216.138 111.246C214.514 113.824 213.272 116.687 211.076 118.787C205.919 123.941 197.419 123.655 191.211 127.377C184.335 131.482 180.611 140.072 173.257 143.317C170.678 144.463 167.718 144.844 165.044 145.894C159.313 148.281 155.493 153.721 152.915 159.353C150.336 164.984 148.617 170.997 145.466 176.247C140.404 184.742 132.095 190.755 124.169 196.673C113.568 204.595 52.446 250.22 42.3228 258.715C53.019 278.855 74.7936 314.075 85.4899 334.311C90.8381 322.284 141.741 261.674 150.718 252.129C168.577 233.23 178.51 208.223 194.076 187.415C201.239 177.87 209.548 169.279 216.52 159.639C221.008 153.435 225.115 146.658 231.513 142.554C237.626 138.64 245.934 137.113 249.754 130.909C255.771 121.173 239.44 88.5295 236.002 89.3886C232.564 90.2476 220.817 103.706 216.138 111.342V111.246Z"
            fill="#BC2511" />
        <path
            d="M216.138 111.246C214.514 113.824 213.272 116.687 211.076 118.787C205.919 123.941 197.419 123.655 191.211 127.377C184.335 131.482 180.611 140.072 173.257 143.317C170.678 144.463 167.718 144.844 165.044 145.894C159.313 148.281 155.493 153.721 152.915 159.353C150.336 164.984 148.617 170.997 145.466 176.247C140.404 184.742 132.095 190.755 124.169 196.673C113.568 204.595 52.446 250.22 42.3228 258.715C53.019 278.855 74.7936 314.075 85.4899 334.311C90.8381 322.284 141.741 261.674 150.718 252.129C168.577 233.23 178.51 208.223 194.076 187.415C201.239 177.87 209.548 169.279 216.52 159.639C221.008 153.435 225.115 146.658 231.513 142.554C237.626 138.64 245.934 137.113 249.754 130.909C255.771 121.173 239.44 88.5295 236.002 89.3886C232.564 90.2476 220.817 103.706 216.138 111.342V111.246Z"
            fill="#92150D" />
        <path
            d="M216.138 111.246C214.514 113.824 213.272 116.687 211.076 118.787C205.919 123.941 197.419 123.655 191.211 127.377C184.335 131.482 180.611 140.072 173.257 143.317C170.678 144.463 167.718 144.844 165.044 145.894C159.313 148.281 155.493 153.721 152.915 159.353C150.336 164.984 148.617 170.997 145.466 176.247C140.404 184.742 132.095 190.755 124.169 196.673C113.568 204.595 52.446 250.22 42.3228 258.715C53.019 278.855 74.7936 314.075 85.4899 334.311C90.8381 322.284 141.741 261.674 150.718 252.129C168.577 233.23 178.51 208.223 194.076 187.415C201.239 177.87 209.548 169.279 216.52 159.639C221.008 153.435 225.115 146.658 231.513 142.554C237.626 138.64 245.934 137.113 249.754 130.909C255.771 121.173 239.44 88.5295 236.002 89.3886C232.564 90.2476 220.817 103.706 216.138 111.342V111.246Z"
            fill="url(#paint25_linear_24_15585)" />
        <path
            d="M273.248 198.678C276.304 204.882 273.248 271.314 273.248 271.314L114.905 281.527L214.992 137.972L273.248 198.678Z"
            fill="#FCE0E0" />
        <path
            d="M273.248 198.678C276.304 204.882 240.013 334.979 240.013 334.979L52.1595 323.716L214.61 137.877L273.248 198.678Z"
            fill="#BC2511" />
        <path
            d="M273.248 198.678C276.304 204.882 240.013 334.979 240.013 334.979L52.1595 323.716L214.61 137.877L273.248 198.678Z"
            fill="#92150D" />
        <path
            d="M273.248 198.678C276.304 204.882 240.013 334.979 240.013 334.979L52.1595 323.716L214.61 137.877L273.248 198.678Z"
            fill="url(#paint26_linear_24_15585)" />
        <path
            d="M255.389 247.166C257.968 250.888 260.546 286.013 260.546 286.013L126.843 292.218L202.385 205.55L255.389 247.166Z"
            fill="#92150D" />
        <path
            d="M255.389 247.166C257.968 250.888 260.546 286.013 260.546 286.013L126.843 292.218L202.385 205.55L255.389 247.166Z"
            fill="url(#paint27_linear_24_15585)" />
        <path
            d="M236.098 97.2154C237.817 101.606 240.968 106.092 243.738 111.342C245.839 115.255 248.131 119.646 246.794 123.941C245.457 128.427 240.204 130.336 235.525 130.527C230.845 130.718 226.165 129.668 221.581 130.718C216.997 131.768 212.795 136.254 214.132 140.645C214.705 142.458 216.138 143.89 217.475 145.226C230.272 157.825 243.547 170.234 253.193 185.315C256.249 190.087 258.159 197.723 253.097 200.205C251.474 200.968 249.659 200.873 247.94 200.777C235.907 200.205 223.969 199.537 211.935 198.964C209.261 198.869 206.205 198.773 204.104 200.491C200.762 203.259 201.812 208.604 204.2 212.136C206.587 215.668 210.216 218.531 211.649 222.54C214.705 230.748 207.924 239.148 201.335 244.875C189.779 255.088 177.077 263.869 164.28 272.46C154.538 279.046 128.944 326.961 129.994 338.701C161.415 344.619 210.694 341.278 242.019 347.196C254.148 349.487 291.68 341.469 304 342.233C320.14 343.187 405.806 306.153 415.834 301.285C430.732 294.031 442.956 281.336 459.001 277.232C462.725 276.278 466.927 275.609 469.315 272.651C473.231 267.592 469.315 260.433 465.113 255.565C436.271 220.917 399.789 193.237 360.729 170.711C348.218 163.457 335.325 156.776 322.91 149.426C305.815 139.308 289.484 127.95 273.535 116.114C265.703 110.387 258.063 104.469 250.328 98.5517C247.558 96.4518 239.631 88.3386 235.716 89.0068C232.087 89.5795 234.57 93.8746 235.716 97.0245L236.098 97.2154Z"
            fill="#BC2511" />
        <path
            d="M236.098 97.2154C237.817 101.606 240.968 106.092 243.738 111.342C245.839 115.255 248.131 119.646 246.794 123.941C245.457 128.427 240.204 130.336 235.525 130.527C230.845 130.718 226.165 129.668 221.581 130.718C216.997 131.768 212.795 136.254 214.132 140.645C214.705 142.458 216.138 143.89 217.475 145.226C230.272 157.825 243.547 170.234 253.193 185.315C256.249 190.087 258.159 197.723 253.097 200.205C251.474 200.968 249.659 200.873 247.94 200.777C235.907 200.205 223.969 199.537 211.935 198.964C209.261 198.869 206.205 198.773 204.104 200.491C200.762 203.259 201.812 208.604 204.2 212.136C206.587 215.668 210.216 218.531 211.649 222.54C214.705 230.748 207.924 239.148 201.335 244.875C189.779 255.088 177.077 263.869 164.28 272.46C154.538 279.046 128.944 326.961 129.994 338.701C161.415 344.619 210.694 341.278 242.019 347.196C254.148 349.487 291.68 341.469 304 342.233C320.14 343.187 405.806 306.153 415.834 301.285C430.732 294.031 442.956 281.336 459.001 277.232C462.725 276.278 466.927 275.609 469.315 272.651C473.231 267.592 469.315 260.433 465.113 255.565C436.271 220.917 399.789 193.237 360.729 170.711C348.218 163.457 335.325 156.776 322.91 149.426C305.815 139.308 289.484 127.95 273.535 116.114C265.703 110.387 258.063 104.469 250.328 98.5517C247.558 96.4518 239.631 88.3386 235.716 89.0068C232.087 89.5795 234.57 93.8746 235.716 97.0245L236.098 97.2154Z"
            fill="#92150D" />
        <path
            d="M236.098 97.2154C237.817 101.606 240.968 106.092 243.738 111.342C245.839 115.255 248.131 119.646 246.794 123.941C245.457 128.427 240.204 130.336 235.525 130.527C230.845 130.718 226.165 129.668 221.581 130.718C216.997 131.768 212.795 136.254 214.132 140.645C214.705 142.458 216.138 143.89 217.475 145.226C230.272 157.825 243.547 170.234 253.193 185.315C256.249 190.087 258.159 197.723 253.097 200.205C251.474 200.968 249.659 200.873 247.94 200.777C235.907 200.205 223.969 199.537 211.935 198.964C209.261 198.869 206.205 198.773 204.104 200.491C200.762 203.259 201.812 208.604 204.2 212.136C206.587 215.668 210.216 218.531 211.649 222.54C214.705 230.748 207.924 239.148 201.335 244.875C189.779 255.088 177.077 263.869 164.28 272.46C154.538 279.046 128.944 326.961 129.994 338.701C161.415 344.619 210.694 341.278 242.019 347.196C254.148 349.487 291.68 341.469 304 342.233C320.14 343.187 405.806 306.153 415.834 301.285C430.732 294.031 442.956 281.336 459.001 277.232C462.725 276.278 466.927 275.609 469.315 272.651C473.231 267.592 469.315 260.433 465.113 255.565C436.271 220.917 399.789 193.237 360.729 170.711C348.218 163.457 335.325 156.776 322.91 149.426C305.815 139.308 289.484 127.95 273.535 116.114C265.703 110.387 258.063 104.469 250.328 98.5517C247.558 96.4518 239.631 88.3386 235.716 89.0068C232.087 89.5795 234.57 93.8746 235.716 97.0245L236.098 97.2154Z"
            fill="url(#paint28_linear_24_15585)" />
    </g>
</svg>
