<svg width="136" height="52" viewBox="0 0 136 52" fill="none" xmlns="http://www.w3.org/2000/svg">
<path d="M29.762 51.8726C29.762 51.8726 65.7665 45.4775 68.2495 44.1412C68.2495 44.1412 41.1268 45.382 29.762 51.8726V51.8726Z" fill="url(#paint0_linear_24_15655)"/>
<path d="M99.3834 37.8416C99.3834 37.8416 84.3895 41.6595 79.3279 41.5641C79.3279 41.5641 90.2152 37.2689 99.3834 37.8416Z" fill="url(#paint1_linear_24_15655)"/>
<path d="M86.013 7.39336C86.013 7.39336 82.1929 2.62091 70.5415 3.7663C58.8902 4.91169 52.969 15.7929 52.969 15.7929C52.969 15.7929 43.3233 2.43002 27.7564 0.234693C12.1894 -1.96063 -3.18651 11.6886 -4.61905 22.6652C-4.61905 22.6652 -4.71454 18.7518 -9.20317 18.0836C-13.6918 17.4155 -15.1243 21.997 -14.6468 23.7151C-14.6468 23.7151 -17.8939 22.8561 -19.613 25.5287C-21.332 28.2012 -20.95 29.1557 -20.95 29.1557L-39 37.078L135.101 5.96163L86.013 7.4888V7.39336Z" fill="url(#paint2_linear_24_15655)"/>
<defs>
<linearGradient id="paint0_linear_24_15655" x1="31.2832" y1="55.4414" x2="66.538" y2="40.2497" gradientUnits="userSpaceOnUse">
<stop stop-color="#FFEFDE"/>
<stop offset="1" stop-color="#FFEFDE" stop-opacity="0"/>
</linearGradient>
<linearGradient id="paint1_linear_24_15655" x1="80.6763" y1="44.0457" x2="99.2021" y2="36.3678" gradientUnits="userSpaceOnUse">
<stop stop-color="#FFEFDE"/>
<stop offset="1" stop-color="#FFEFDE" stop-opacity="0"/>
</linearGradient>
<linearGradient id="paint2_linear_24_15655" x1="-39.7519" y1="20.0695" x2="135.461" y2="11.1886" gradientUnits="userSpaceOnUse">
<stop stop-color="#FFEFDE"/>
<stop offset="1" stop-color="#FFEFDE" stop-opacity="0"/>
</linearGradient>
</defs>
</svg>
